{"glyphs":{"0":{"ha":822,"x_min":67,"x_max":758,"o":"m 401 -11 q 139 116 211 -11 q 67 454 67 243 q 151 792 67 665 q 426 918 236 918 q 688 792 617 918 q 758 454 758 665 q 675 116 758 243 q 401 -11 592 -11 m 413 71 q 585 169 543 71 q 628 454 628 268 q 585 738 628 640 q 413 836 543 836 q 240 738 282 836 q 197 454 197 640 q 240 169 197 268 q 413 71 282 71 z "},"1":{"ha":542,"x_min":61,"x_max":515,"o":"m 76 0 l 76 68 l 235 83 l 235 804 l 61 804 l 61 872 l 292 914 l 353 914 l 353 83 l 515 68 l 515 0 l 76 0 z "},"2":{"ha":675,"x_min":40,"x_max":647,"o":"m 40 0 l 40 76 l 299 347 q 437 513 392 444 q 482 661 482 582 q 446 784 482 744 q 307 824 410 824 q 206 814 242 824 q 154 797 169 804 l 132 665 l 63 665 l 63 865 q 152 897 88 876 q 307 917 217 917 q 535 859 460 917 q 611 669 611 801 q 553 499 611 582 q 350 272 494 415 l 190 114 l 190 106 l 550 106 l 578 226 l 647 226 l 647 0 l 40 0 z "},"3":{"ha":614,"x_min":28,"x_max":599,"o":"m 268 -14 q 128 7 196 -14 q 28 50 61 28 l 38 229 l 110 229 l 124 118 q 186 89 150 103 q 269 75 222 75 q 417 116 367 75 q 467 257 467 157 q 404 394 467 361 q 247 428 342 428 l 175 428 l 154 467 l 154 517 l 224 517 q 366 556 300 517 q 432 675 432 594 q 398 786 432 749 q 265 824 364 824 q 168 813 203 824 q 133 801 133 801 l 121 683 l 50 683 l 39 874 q 124 900 64 883 q 279 917 185 917 q 492 858 438 917 q 547 711 547 800 q 499 571 547 622 q 396 497 450 519 l 392 496 q 527 432 456 481 q 599 268 599 383 q 557 110 599 172 q 441 17 515 47 q 268 -14 367 -14 z "},"4":{"ha":669,"x_min":-6,"x_max":643,"o":"m 286 0 l 286 61 l 401 82 l 401 251 l 29 251 l -6 317 l 444 939 l 515 908 l 515 339 l 643 339 l 643 251 l 515 251 l 515 82 l 631 61 l 631 0 l 286 0 m 119 339 l 401 339 l 401 724 l 401 749 l 401 753 l 389 729 l 115 347 l 119 339 z "},"5":{"ha":613,"x_min":28,"x_max":596,"o":"m 275 -14 q 128 3 189 -14 q 28 44 67 21 l 38 233 l 113 233 l 125 100 q 176 81 139 94 q 279 67 213 67 q 425 124 383 67 q 467 278 467 182 q 410 427 467 374 q 203 481 354 481 l 63 481 l 63 900 l 550 900 l 550 794 l 143 794 l 143 568 l 228 568 q 508 503 421 568 q 596 299 596 438 q 512 72 596 157 q 275 -14 428 -14 z "},"6":{"ha":711,"x_min":63,"x_max":663,"o":"m 351 -14 q 63 353 63 -14 q 205 756 63 608 q 606 913 347 903 l 606 857 q 199 478 210 817 q 419 547 299 547 q 595 478 528 547 q 663 297 663 408 q 578 72 663 157 q 351 -14 493 -14 m 371 67 q 496 119 456 67 q 536 278 536 171 q 364 451 536 451 q 197 424 290 451 q 197 406 197 414 q 197 388 197 397 q 235 138 197 210 q 371 67 274 67 z "},"7":{"ha":601,"x_min":29,"x_max":608,"o":"m 124 0 l 124 57 l 508 771 l 508 794 l 128 794 l 117 685 l 42 685 l 29 900 l 608 900 l 608 794 l 228 0 l 124 0 z "},"8":{"ha":669,"x_min":58,"x_max":628,"o":"m 333 -14 q 128 42 199 -14 q 58 200 58 97 q 108 347 58 282 q 228 453 157 413 q 120 543 160 490 q 81 672 81 596 q 159 850 81 783 q 349 917 238 917 q 535 857 472 917 q 597 703 597 797 q 557 574 597 631 q 456 482 517 517 q 580 388 532 442 q 628 249 628 335 q 559 69 628 151 q 333 -14 490 -14 m 346 67 q 513 231 513 67 q 462 335 513 294 q 306 417 411 375 l 281 426 q 203 334 226 385 q 179 233 179 283 q 219 108 179 150 q 346 67 258 67 m 401 508 q 466 585 444 544 q 488 685 488 626 q 451 794 488 763 q 336 825 415 825 q 224 790 256 825 q 192 701 192 756 q 228 605 192 640 q 343 535 265 569 q 373 521 358 528 q 401 508 388 514 z "},"9":{"ha":674,"x_min":33,"x_max":633,"o":"m 214 -7 q 131 -3 157 -7 q 106 0 106 0 l 106 56 q 414 140 329 56 q 503 426 499 224 q 447 392 503 426 q 286 358 392 358 q 104 425 175 358 q 33 613 33 492 q 121 844 33 771 q 325 917 208 917 q 557 821 481 917 q 633 488 633 725 q 519 112 633 231 q 214 -7 406 -7 m 349 453 q 453 468 408 453 q 503 486 497 483 q 494 659 503 579 q 447 788 485 739 q 319 836 408 836 q 193 781 225 836 q 161 625 161 725 q 222 488 161 522 q 349 453 282 453 z "},"A":{"ha":844,"x_min":-12,"x_max":857,"o":"m -12 57 l 75 79 l 382 907 l 449 907 l 768 79 l 857 57 l 857 0 l 525 0 l 525 57 l 624 79 l 624 104 l 564 258 l 229 258 l 175 104 l 175 79 l 281 57 l 281 0 l -12 0 l -12 57 m 535 338 l 400 694 l 394 710 l 392 717 l 383 692 l 257 338 l 535 338 z "},"Á":{"ha":844,"x_min":-12,"x_max":857,"o":"m 290 994 l 472 1131 q 505 1152 490 1143 q 531 1161 519 1161 q 567 1138 550 1161 q 589 1065 585 1114 l 321 946 l 290 994 m -12 57 l 75 79 l 382 907 l 449 907 l 768 79 l 857 57 l 857 0 l 525 0 l 525 57 l 624 79 l 624 104 l 564 258 l 229 258 l 175 104 l 175 79 l 281 57 l 281 0 l -12 0 l -12 57 m 535 338 l 400 694 l 394 710 l 392 717 l 383 692 l 257 338 l 535 338 z "},"Ă":{"ha":844,"x_min":-12,"x_max":857,"o":"m 318 1140 q 328 1117 318 1140 q 364 1069 339 1093 q 435 1046 389 1046 q 521 1069 489 1046 q 566 1117 553 1093 q 579 1140 579 1140 l 622 1129 q 607 1087 622 1129 q 550 1003 592 1044 q 431 961 508 961 q 299 1001 340 961 q 246 1082 257 1042 q 235 1122 235 1122 l 318 1140 m -12 57 l 75 79 l 382 907 l 449 907 l 768 79 l 857 57 l 857 0 l 525 0 l 525 57 l 624 79 l 624 104 l 564 258 l 229 258 l 175 104 l 175 79 l 281 57 l 281 0 l -12 0 l -12 57 m 535 338 l 400 694 l 394 710 l 392 717 l 383 692 l 257 338 l 535 338 z "},"Ắ":{"ha":844,"x_min":-12,"x_max":857,"o":"m -12 57 l 75 79 l 382 907 l 449 907 l 768 79 l 857 57 l 857 0 l 525 0 l 525 57 l 624 79 l 624 104 l 564 258 l 229 258 l 175 104 l 175 79 l 281 57 l 281 0 l -12 0 l -12 57 m 535 338 l 400 694 l 394 710 l 392 717 l 383 692 l 257 338 l 535 338 z "},"Ặ":{"ha":844,"x_min":-12,"x_max":857,"o":"m -12 57 l 75 79 l 382 907 l 449 907 l 768 79 l 857 57 l 857 0 l 525 0 l 525 57 l 624 79 l 624 104 l 564 258 l 229 258 l 175 104 l 175 79 l 281 57 l 281 0 l -12 0 l -12 57 m 535 338 l 400 694 l 394 710 l 392 717 l 383 692 l 257 338 l 535 338 m 418 -239 q 361 -215 382 -239 q 340 -153 340 -192 q 364 -89 340 -117 q 425 -61 388 -61 q 481 -83 460 -61 q 503 -144 503 -106 q 481 -210 503 -182 q 418 -239 458 -239 z "},"Ằ":{"ha":844,"x_min":-12,"x_max":857,"o":"m -12 57 l 75 79 l 382 907 l 449 907 l 768 79 l 857 57 l 857 0 l 525 0 l 525 57 l 624 79 l 624 104 l 564 258 l 229 258 l 175 104 l 175 79 l 281 57 l 281 0 l -12 0 l -12 57 m 535 338 l 400 694 l 394 710 l 392 717 l 383 692 l 257 338 l 535 338 z "},"Ẳ":{"ha":844,"x_min":-12,"x_max":857,"o":"m -12 57 l 75 79 l 382 907 l 449 907 l 768 79 l 857 57 l 857 0 l 525 0 l 525 57 l 624 79 l 624 104 l 564 258 l 229 258 l 175 104 l 175 79 l 281 57 l 281 0 l -12 0 l -12 57 m 535 338 l 400 694 l 394 710 l 392 717 l 383 692 l 257 338 l 535 338 z "},"Ẵ":{"ha":844,"x_min":-12,"x_max":857,"o":"m -12 57 l 75 79 l 382 907 l 449 907 l 768 79 l 857 57 l 857 0 l 525 0 l 525 57 l 624 79 l 624 104 l 564 258 l 229 258 l 175 104 l 175 79 l 281 57 l 281 0 l -12 0 l -12 57 m 535 338 l 400 694 l 394 710 l 392 717 l 383 692 l 257 338 l 535 338 z "},"Ǎ":{"ha":844,"x_min":-12,"x_max":857,"o":"m -12 57 l 75 79 l 382 907 l 449 907 l 768 79 l 857 57 l 857 0 l 525 0 l 525 57 l 624 79 l 624 104 l 564 258 l 229 258 l 175 104 l 175 79 l 281 57 l 281 0 l -12 0 l -12 57 m 535 338 l 400 694 l 394 710 l 392 717 l 383 692 l 257 338 l 535 338 z "},"Â":{"ha":844,"x_min":-12,"x_max":857,"o":"m 197 994 l 307 1083 q 376 1140 356 1122 q 413 1158 397 1158 q 454 1138 429 1158 q 519 1083 479 1117 l 622 999 l 576 942 l 407 1032 l 232 944 l 197 994 m -12 57 l 75 79 l 382 907 l 449 907 l 768 79 l 857 57 l 857 0 l 525 0 l 525 57 l 624 79 l 624 104 l 564 258 l 229 258 l 175 104 l 175 79 l 281 57 l 281 0 l -12 0 l -12 57 m 535 338 l 400 694 l 394 710 l 392 717 l 383 692 l 257 338 l 535 338 z "},"Ấ":{"ha":844,"x_min":-12,"x_max":857,"o":"m -12 57 l 75 79 l 382 907 l 449 907 l 768 79 l 857 57 l 857 0 l 525 0 l 525 57 l 624 79 l 624 104 l 564 258 l 229 258 l 175 104 l 175 79 l 281 57 l 281 0 l -12 0 l -12 57 m 535 338 l 400 694 l 394 710 l 392 717 l 383 692 l 257 338 l 535 338 z "},"Ậ":{"ha":844,"x_min":-12,"x_max":857,"o":"m -12 57 l 75 79 l 382 907 l 449 907 l 768 79 l 857 57 l 857 0 l 525 0 l 525 57 l 624 79 l 624 104 l 564 258 l 229 258 l 175 104 l 175 79 l 281 57 l 281 0 l -12 0 l -12 57 m 535 338 l 400 694 l 394 710 l 392 717 l 383 692 l 257 338 l 535 338 m 418 -239 q 361 -215 382 -239 q 340 -153 340 -192 q 364 -89 340 -117 q 425 -61 388 -61 q 481 -83 460 -61 q 503 -144 503 -106 q 481 -210 503 -182 q 418 -239 458 -239 z "},"Ầ":{"ha":844,"x_min":-12,"x_max":857,"o":"m -12 57 l 75 79 l 382 907 l 449 907 l 768 79 l 857 57 l 857 0 l 525 0 l 525 57 l 624 79 l 624 104 l 564 258 l 229 258 l 175 104 l 175 79 l 281 57 l 281 0 l -12 0 l -12 57 m 535 338 l 400 694 l 394 710 l 392 717 l 383 692 l 257 338 l 535 338 z "},"Ẩ":{"ha":844,"x_min":-12,"x_max":857,"o":"m -12 57 l 75 79 l 382 907 l 449 907 l 768 79 l 857 57 l 857 0 l 525 0 l 525 57 l 624 79 l 624 104 l 564 258 l 229 258 l 175 104 l 175 79 l 281 57 l 281 0 l -12 0 l -12 57 m 535 338 l 400 694 l 394 710 l 392 717 l 383 692 l 257 338 l 535 338 z "},"Ẫ":{"ha":844,"x_min":-12,"x_max":857,"o":"m -12 57 l 75 79 l 382 907 l 449 907 l 768 79 l 857 57 l 857 0 l 525 0 l 525 57 l 624 79 l 624 104 l 564 258 l 229 258 l 175 104 l 175 79 l 281 57 l 281 0 l -12 0 l -12 57 m 535 338 l 400 694 l 394 710 l 392 717 l 383 692 l 257 338 l 535 338 z "},"Ȁ":{"ha":844,"x_min":-12,"x_max":857,"o":"m -12 57 l 75 79 l 382 907 l 449 907 l 768 79 l 857 57 l 857 0 l 525 0 l 525 57 l 624 79 l 624 104 l 564 258 l 229 258 l 175 104 l 175 79 l 281 57 l 281 0 l -12 0 l -12 57 m 535 338 l 400 694 l 394 710 l 392 717 l 383 692 l 257 338 l 535 338 z "},"Ä":{"ha":844,"x_min":-12,"x_max":857,"o":"m 265 953 q 214 974 233 953 q 194 1031 194 996 q 215 1089 194 1064 q 271 1114 236 1114 q 322 1094 303 1114 q 342 1039 342 1074 q 322 978 342 1004 q 265 953 301 953 m 558 953 q 507 974 526 953 q 488 1031 488 996 q 508 1089 488 1064 q 564 1114 529 1114 q 615 1094 596 1114 q 635 1039 635 1074 q 615 978 635 1004 q 558 953 594 953 m -12 57 l 75 79 l 382 907 l 449 907 l 768 79 l 857 57 l 857 0 l 525 0 l 525 57 l 624 79 l 624 104 l 564 258 l 229 258 l 175 104 l 175 79 l 281 57 l 281 0 l -12 0 l -12 57 m 535 338 l 400 694 l 394 710 l 392 717 l 383 692 l 257 338 l 535 338 z "},"Ạ":{"ha":844,"x_min":-12,"x_max":857,"o":"m -12 57 l 75 79 l 382 907 l 449 907 l 768 79 l 857 57 l 857 0 l 525 0 l 525 57 l 624 79 l 624 104 l 564 258 l 229 258 l 175 104 l 175 79 l 281 57 l 281 0 l -12 0 l -12 57 m 535 338 l 400 694 l 394 710 l 392 717 l 383 692 l 257 338 l 535 338 m 418 -239 q 361 -215 382 -239 q 340 -153 340 -192 q 364 -89 340 -117 q 425 -61 388 -61 q 481 -83 460 -61 q 503 -144 503 -106 q 481 -210 503 -182 q 418 -239 458 -239 z "},"À":{"ha":844,"x_min":-12,"x_max":857,"o":"m 228 1065 q 249 1138 232 1114 q 286 1161 267 1161 q 312 1152 297 1161 q 344 1131 326 1143 l 526 994 l 496 946 l 228 1065 m -12 57 l 75 79 l 382 907 l 449 907 l 768 79 l 857 57 l 857 0 l 525 0 l 525 57 l 624 79 l 624 104 l 564 258 l 229 258 l 175 104 l 175 79 l 281 57 l 281 0 l -12 0 l -12 57 m 535 338 l 400 694 l 394 710 l 392 717 l 383 692 l 257 338 l 535 338 z "},"Ả":{"ha":844,"x_min":-12,"x_max":857,"o":"m -12 57 l 75 79 l 382 907 l 449 907 l 768 79 l 857 57 l 857 0 l 525 0 l 525 57 l 624 79 l 624 104 l 564 258 l 229 258 l 175 104 l 175 79 l 281 57 l 281 0 l -12 0 l -12 57 m 535 338 l 400 694 l 394 710 l 392 717 l 383 692 l 257 338 l 535 338 m 382 940 q 375 965 375 957 q 428 1015 375 996 q 465 1036 454 1025 q 476 1063 476 1047 q 408 1090 476 1090 q 321 1079 368 1090 q 311 1103 314 1093 q 308 1124 308 1114 q 322 1153 308 1142 q 392 1165 336 1165 q 522 1141 474 1165 q 571 1068 571 1117 q 490 976 571 1001 q 458 959 464 968 q 453 940 453 950 l 382 940 z "},"Ȃ":{"ha":844,"x_min":-12,"x_max":857,"o":"m -12 57 l 75 79 l 382 907 l 449 907 l 768 79 l 857 57 l 857 0 l 525 0 l 525 57 l 624 79 l 624 104 l 564 258 l 229 258 l 175 104 l 175 79 l 281 57 l 281 0 l -12 0 l -12 57 m 535 338 l 400 694 l 394 710 l 392 717 l 383 692 l 257 338 l 535 338 m 532 961 q 522 985 532 961 q 486 1032 511 1008 q 415 1056 461 1056 q 329 1032 361 1056 q 284 985 297 1008 q 271 961 271 961 l 228 972 q 243 1014 228 972 q 300 1098 258 1056 q 419 1140 342 1140 q 551 1100 510 1140 q 604 1019 593 1060 q 615 979 615 979 l 532 961 z "},"Ā":{"ha":844,"x_min":-12,"x_max":857,"o":"m 192 1085 l 653 1085 l 639 1004 l 178 1004 l 192 1085 m -12 57 l 75 79 l 382 907 l 449 907 l 768 79 l 857 57 l 857 0 l 525 0 l 525 57 l 624 79 l 624 104 l 564 258 l 229 258 l 175 104 l 175 79 l 281 57 l 281 0 l -12 0 l -12 57 m 535 338 l 400 694 l 394 710 l 392 717 l 383 692 l 257 338 l 535 338 z "},"Ą":{"ha":844,"x_min":-12,"x_max":857,"o":"m 599 8 q 543 -42 575 -10 q 511 -115 511 -75 q 571 -176 511 -176 q 609 -167 588 -176 q 650 -147 631 -158 l 675 -189 q 635 -224 675 -189 q 535 -260 594 -260 q 452 -234 485 -260 q 419 -157 419 -208 q 457 -58 419 -100 q 538 8 494 -17 l 599 8 m -12 57 l 75 79 l 382 907 l 449 907 l 768 79 l 857 57 l 857 0 l 525 0 l 525 57 l 624 79 l 624 104 l 564 258 l 229 258 l 175 104 l 175 79 l 281 57 l 281 0 l -12 0 l -12 57 m 535 338 l 400 694 l 394 710 l 392 717 l 383 692 l 257 338 l 535 338 z "},"Å":{"ha":844,"x_min":-12,"x_max":857,"o":"m 289 1015 q 327 1110 289 1079 q 418 1140 365 1140 q 506 1114 469 1140 q 542 1025 542 1088 q 513 930 542 963 q 414 896 483 897 q 317 924 346 894 q 289 1015 289 954 m 417 958 q 475 1018 475 958 q 465 1064 475 1047 q 417 1081 456 1081 q 369 1067 382 1081 q 356 1021 356 1053 q 366 974 356 990 q 417 958 376 958 m -12 57 l 75 79 l 382 907 l 449 907 l 768 79 l 857 57 l 857 0 l 525 0 l 525 57 l 624 79 l 624 104 l 564 258 l 229 258 l 175 104 l 175 79 l 281 57 l 281 0 l -12 0 l -12 57 m 535 338 l 400 694 l 394 710 l 392 717 l 383 692 l 257 338 l 535 338 z "},"Ǻ":{"ha":844,"x_min":-12,"x_max":857,"o":"m -12 57 l 75 79 l 382 907 l 449 907 l 768 79 l 857 57 l 857 0 l 525 0 l 525 57 l 624 79 l 624 104 l 564 258 l 229 258 l 175 104 l 175 79 l 281 57 l 281 0 l -12 0 l -12 57 m 535 338 l 400 694 l 394 710 l 392 717 l 383 692 l 257 338 l 535 338 z "},"Ã":{"ha":844,"x_min":-12,"x_max":857,"o":"m 172 1011 l 224 1079 q 260 1110 239 1101 q 308 1119 282 1119 q 354 1113 329 1119 q 406 1099 379 1107 l 515 1064 l 626 1114 l 658 1078 l 607 1010 q 570 978 592 988 q 522 969 549 969 q 476 976 501 969 q 425 990 451 982 l 315 1025 l 204 975 l 172 1011 m -12 57 l 75 79 l 382 907 l 449 907 l 768 79 l 857 57 l 857 0 l 525 0 l 525 57 l 624 79 l 624 104 l 564 258 l 229 258 l 175 104 l 175 79 l 281 57 l 281 0 l -12 0 l -12 57 m 535 338 l 400 694 l 394 710 l 392 717 l 383 692 l 257 338 l 535 338 z "},"Æ":{"ha":1101,"x_min":-12,"x_max":1074,"o":"m -12 57 l 75 79 l 464 900 l 989 900 l 989 672 l 921 672 l 892 824 l 761 824 l 631 815 l 660 456 l 857 456 l 881 524 l 939 524 l 939 308 l 881 308 l 857 376 l 667 376 l 693 93 q 757 83 717 86 q 836 79 797 79 l 975 79 l 1006 228 l 1074 228 l 1074 0 l 453 0 l 453 60 l 568 83 l 543 376 l 307 376 l 178 104 l 178 79 l 281 57 l 281 0 l -12 0 l -12 57 m 536 456 l 507 810 l 347 456 l 536 456 z "},"Ǽ":{"ha":1101,"x_min":-12,"x_max":1074,"o":"m -12 57 l 75 79 l 464 900 l 989 900 l 989 672 l 921 672 l 892 824 l 761 824 l 631 815 l 660 456 l 857 456 l 881 524 l 939 524 l 939 308 l 881 308 l 857 376 l 667 376 l 693 93 q 757 83 717 86 q 836 79 797 79 l 975 79 l 1006 228 l 1074 228 l 1074 0 l 453 0 l 453 60 l 568 83 l 543 376 l 307 376 l 178 104 l 178 79 l 281 57 l 281 0 l -12 0 l -12 57 m 536 456 l 507 810 l 347 456 l 536 456 z "},"B":{"ha":833,"x_min":82,"x_max":776,"o":"m 82 0 l 82 60 l 197 83 l 197 817 l 82 840 l 82 900 l 446 900 q 653 842 576 900 q 729 683 729 783 q 569 479 729 535 q 717 395 658 461 q 776 247 776 329 q 694 65 776 131 q 467 0 613 0 l 82 0 m 444 76 q 639 251 639 76 q 585 381 639 342 q 411 419 532 419 l 317 419 l 317 85 q 372 79 336 82 q 444 76 408 76 m 317 496 l 388 496 q 548 544 493 496 q 603 682 603 592 q 418 819 603 819 q 317 813 368 819 l 317 496 z "},"C":{"ha":850,"x_min":63,"x_max":774,"o":"m 706 256 l 774 256 l 774 44 q 665 6 733 26 q 472 -15 597 -15 q 163 101 263 -15 q 63 439 63 218 q 115 674 63 565 q 264 850 167 783 q 493 917 361 917 q 653 906 585 917 q 768 876 721 894 l 768 658 l 700 658 l 671 811 q 618 822 671 811 q 483 833 565 833 q 267 741 331 833 q 203 443 203 649 q 277 168 203 274 q 489 63 351 63 q 635 88 592 63 q 678 114 678 114 l 706 256 z "},"Ć":{"ha":850,"x_min":63,"x_max":774,"o":"m 706 256 l 774 256 l 774 44 q 665 6 733 26 q 472 -15 597 -15 q 163 101 263 -15 q 63 439 63 218 q 115 674 63 565 q 264 850 167 783 q 493 917 361 917 q 653 906 585 917 q 768 876 721 894 l 768 658 l 700 658 l 671 811 q 618 822 671 811 q 483 833 565 833 q 267 741 331 833 q 203 443 203 649 q 277 168 203 274 q 489 63 351 63 q 635 88 592 63 q 678 114 678 114 l 706 256 m 389 994 l 571 1131 q 603 1152 589 1143 q 629 1161 618 1161 q 666 1138 649 1161 q 688 1065 683 1114 l 419 946 l 389 994 z "},"Č":{"ha":850,"x_min":63,"x_max":774,"o":"m 706 256 l 774 256 l 774 44 q 665 6 733 26 q 472 -15 597 -15 q 163 101 263 -15 q 63 439 63 218 q 115 674 63 565 q 264 850 167 783 q 493 917 361 917 q 653 906 585 917 q 768 876 721 894 l 768 658 l 700 658 l 671 811 q 618 822 671 811 q 483 833 565 833 q 267 741 331 833 q 203 443 203 649 q 277 168 203 274 q 489 63 351 63 q 635 88 592 63 q 678 114 678 114 l 706 256 m 311 1158 l 481 1068 l 656 1156 l 690 1106 l 581 1017 q 511 960 533 978 q 475 942 489 942 q 433 963 458 942 q 368 1017 408 983 l 265 1101 l 311 1158 z "},"Ç":{"ha":850,"x_min":63,"x_max":774,"o":"m 379 -186 q 413 -197 394 -192 q 454 -201 431 -201 q 536 -160 536 -201 q 525 -130 536 -136 q 493 -119 514 -124 l 442 -108 l 415 -82 l 443 -14 q 156 109 249 -7 q 63 439 63 225 q 115 674 63 565 q 264 850 167 783 q 493 917 361 917 q 653 906 585 917 q 768 876 721 894 l 768 658 l 700 658 l 671 811 q 618 822 671 811 q 483 833 565 833 q 267 741 331 833 q 203 443 203 649 q 277 168 203 274 q 489 63 351 63 q 635 88 592 63 q 678 114 678 114 l 706 256 l 774 256 l 774 44 q 675 8 736 28 q 507 -15 614 -11 l 507 -40 l 531 -46 q 600 -72 569 -56 q 631 -133 631 -87 q 576 -233 631 -206 q 460 -260 522 -260 q 404 -253 428 -260 q 357 -237 381 -247 l 379 -186 z "},"Ĉ":{"ha":850,"x_min":63,"x_max":774,"o":"m 706 256 l 774 256 l 774 44 q 665 6 733 26 q 472 -15 597 -15 q 163 101 263 -15 q 63 439 63 218 q 115 674 63 565 q 264 850 167 783 q 493 917 361 917 q 653 906 585 917 q 768 876 721 894 l 768 658 l 700 658 l 671 811 q 618 822 671 811 q 483 833 565 833 q 267 741 331 833 q 203 443 203 649 q 277 168 203 274 q 489 63 351 63 q 635 88 592 63 q 678 114 678 114 l 706 256 z "},"Ċ":{"ha":850,"x_min":63,"x_max":774,"o":"m 706 256 l 774 256 l 774 44 q 665 6 733 26 q 472 -15 597 -15 q 163 101 263 -15 q 63 439 63 218 q 115 674 63 565 q 264 850 167 783 q 493 917 361 917 q 653 906 585 917 q 768 876 721 894 l 768 658 l 700 658 l 671 811 q 618 822 671 811 q 483 833 565 833 q 267 741 331 833 q 203 443 203 649 q 277 168 203 274 q 489 63 351 63 q 635 88 592 63 q 678 114 678 114 l 706 256 z "},"D":{"ha":976,"x_min":76,"x_max":914,"o":"m 76 0 l 76 60 l 192 83 l 192 815 l 76 840 l 76 900 l 488 900 q 803 789 693 900 q 914 472 914 678 q 792 119 914 239 q 431 0 669 0 l 76 0 m 443 71 q 633 111 561 71 q 740 240 706 151 q 774 468 774 328 q 738 667 774 589 q 631 782 703 744 q 444 819 558 819 q 372 817 406 819 q 311 810 339 815 l 311 86 q 369 76 331 81 q 443 71 407 71 z "},"Ǳ":{"ha":1753,"x_min":76,"x_max":1704,"o":"m 76 0 l 76 60 l 192 83 l 192 815 l 76 840 l 76 900 l 488 900 q 803 789 693 900 q 914 472 914 678 q 792 119 914 239 q 431 0 669 0 l 76 0 m 443 71 q 633 111 561 71 q 740 240 706 151 q 774 468 774 328 q 738 667 774 589 q 631 782 703 744 q 444 819 558 819 q 372 817 406 819 q 311 810 339 815 l 311 86 q 369 76 331 81 q 443 71 407 71 m 1025 82 l 1525 792 l 1525 818 l 1147 818 l 1107 674 l 1039 674 l 1039 900 l 1692 900 l 1692 808 l 1178 99 l 1178 82 l 1596 82 l 1636 226 l 1704 226 l 1704 0 l 1025 0 l 1025 82 z "},"Ǆ":{"ha":1753,"x_min":76,"x_max":1704,"o":"m 76 0 l 76 60 l 192 83 l 192 815 l 76 840 l 76 900 l 488 900 q 803 789 693 900 q 914 472 914 678 q 792 119 914 239 q 431 0 669 0 l 76 0 m 443 71 q 633 111 561 71 q 740 240 706 151 q 774 468 774 328 q 738 667 774 589 q 631 782 703 744 q 444 819 558 819 q 372 817 406 819 q 311 810 339 815 l 311 86 q 369 76 331 81 q 443 71 407 71 m 1025 82 l 1525 792 l 1525 818 l 1147 818 l 1107 674 l 1039 674 l 1039 900 l 1692 900 l 1692 808 l 1178 99 l 1178 82 l 1596 82 l 1636 226 l 1704 226 l 1704 0 l 1025 0 l 1025 82 z "},"Ð":{"ha":989,"x_min":79,"x_max":919,"o":"m 82 60 l 197 83 l 197 424 l 79 424 l 79 503 l 197 503 l 197 815 l 82 840 l 82 900 l 510 900 q 813 785 707 900 q 919 458 919 671 q 797 126 919 251 q 472 0 675 0 l 82 0 l 82 60 m 317 86 q 378 75 343 79 q 457 71 414 71 q 643 110 572 71 q 747 233 714 149 q 779 454 779 318 q 747 661 779 581 q 644 781 714 742 q 467 819 575 819 q 389 817 425 819 q 317 810 353 815 l 317 503 l 561 503 l 561 424 l 317 424 l 317 86 z "},"Ď":{"ha":982,"x_min":76,"x_max":914,"o":"m 304 1158 l 474 1068 l 649 1156 l 683 1106 l 574 1017 q 504 960 525 978 q 468 942 483 942 q 426 963 451 942 q 361 1017 401 983 l 258 1101 l 304 1158 m 76 0 l 76 60 l 192 83 l 192 815 l 76 840 l 76 900 l 488 900 q 803 789 693 900 q 914 472 914 678 q 792 119 914 239 q 431 0 669 0 l 76 0 m 443 71 q 633 111 561 71 q 740 240 706 151 q 774 468 774 328 q 738 667 774 589 q 631 782 703 744 q 444 819 558 819 q 372 817 406 819 q 311 810 339 815 l 311 86 q 369 76 331 81 q 443 71 407 71 z "},"Đ":{"ha":989,"x_min":79,"x_max":919,"o":"m 82 60 l 197 83 l 197 424 l 79 424 l 79 503 l 197 503 l 197 815 l 82 840 l 82 900 l 510 900 q 813 785 707 900 q 919 458 919 671 q 797 126 919 251 q 472 0 675 0 l 82 0 l 82 60 m 317 86 q 378 75 343 79 q 457 71 414 71 q 643 110 572 71 q 747 233 714 149 q 779 454 779 318 q 747 661 779 581 q 644 781 714 742 q 467 819 575 819 q 389 817 425 819 q 317 810 353 815 l 317 503 l 561 503 l 561 424 l 317 424 l 317 86 z "},"Ḍ":{"ha":976,"x_min":76,"x_max":914,"o":"m 76 0 l 76 60 l 192 83 l 192 815 l 76 840 l 76 900 l 488 900 q 803 789 693 900 q 914 472 914 678 q 792 119 914 239 q 431 0 669 0 l 76 0 m 443 71 q 633 111 561 71 q 740 240 706 151 q 774 468 774 328 q 738 667 774 589 q 631 782 703 744 q 444 819 558 819 q 372 817 406 819 q 311 810 339 815 l 311 86 q 369 76 331 81 q 443 71 407 71 m 485 -239 q 428 -215 449 -239 q 407 -153 407 -192 q 431 -89 407 -117 q 492 -61 454 -61 q 548 -83 526 -61 q 569 -144 569 -106 q 547 -210 569 -182 q 485 -239 525 -239 z "},"ǲ":{"ha":1579,"x_min":76,"x_max":1547,"o":"m 76 0 l 76 60 l 192 83 l 192 815 l 76 840 l 76 900 l 488 900 q 803 789 693 900 q 914 472 914 678 q 792 119 914 239 q 431 0 669 0 l 76 0 m 443 71 q 633 111 561 71 q 740 240 706 151 q 774 468 774 328 q 738 667 774 589 q 631 782 703 744 q 444 819 558 819 q 372 817 406 819 q 311 810 339 815 l 311 86 q 369 76 331 81 q 443 71 407 71 m 1003 0 l 1003 69 l 1383 594 l 1383 613 l 1113 613 l 1093 497 l 1036 497 l 1017 686 l 1517 686 l 1517 583 l 1161 94 l 1161 72 l 1451 72 l 1471 190 l 1528 190 l 1547 0 l 1003 0 z "},"ǅ":{"ha":1579,"x_min":76,"x_max":1547,"o":"m 76 0 l 76 60 l 192 83 l 192 815 l 76 840 l 76 900 l 488 900 q 803 789 693 900 q 914 472 914 678 q 792 119 914 239 q 431 0 669 0 l 76 0 m 443 71 q 633 111 561 71 q 740 240 706 151 q 774 468 774 328 q 738 667 774 589 q 631 782 703 744 q 444 819 558 819 q 372 817 406 819 q 311 810 339 815 l 311 86 q 369 76 331 81 q 443 71 407 71 m 1003 0 l 1003 69 l 1383 594 l 1383 613 l 1113 613 l 1093 497 l 1036 497 l 1017 686 l 1517 686 l 1517 583 l 1161 94 l 1161 72 l 1451 72 l 1471 190 l 1528 190 l 1547 0 l 1003 0 z "},"E":{"ha":794,"x_min":76,"x_max":725,"o":"m 76 60 l 192 83 l 192 817 l 76 840 l 76 900 l 713 900 l 713 672 l 644 672 l 615 824 l 447 824 l 311 815 l 311 497 l 531 497 l 551 579 l 610 579 l 610 342 l 551 342 l 531 424 l 311 424 l 311 93 q 379 83 338 86 q 460 79 421 79 l 626 79 l 657 228 l 725 228 l 725 0 l 76 0 l 76 60 z "},"É":{"ha":794,"x_min":76,"x_max":725,"o":"m 293 994 l 475 1131 q 508 1152 493 1143 q 533 1161 522 1161 q 570 1138 553 1161 q 592 1065 588 1114 l 324 946 l 293 994 m 76 60 l 192 83 l 192 817 l 76 840 l 76 900 l 713 900 l 713 672 l 644 672 l 615 824 l 447 824 l 311 815 l 311 497 l 531 497 l 551 579 l 610 579 l 610 342 l 551 342 l 531 424 l 311 424 l 311 93 q 379 83 338 86 q 460 79 421 79 l 626 79 l 657 228 l 725 228 l 725 0 l 76 0 l 76 60 z "},"Ĕ":{"ha":794,"x_min":76,"x_max":725,"o":"m 76 60 l 192 83 l 192 817 l 76 840 l 76 900 l 713 900 l 713 672 l 644 672 l 615 824 l 447 824 l 311 815 l 311 497 l 531 497 l 551 579 l 610 579 l 610 342 l 551 342 l 531 424 l 311 424 l 311 93 q 379 83 338 86 q 460 79 421 79 l 626 79 l 657 228 l 725 228 l 725 0 l 76 0 l 76 60 z "},"Ě":{"ha":794,"x_min":76,"x_max":725,"o":"m 256 1158 l 425 1068 l 600 1156 l 635 1106 l 525 1017 q 456 960 478 978 q 419 942 433 942 q 378 963 403 942 q 313 1017 353 983 l 210 1101 l 256 1158 m 76 60 l 192 83 l 192 817 l 76 840 l 76 900 l 713 900 l 713 672 l 644 672 l 615 824 l 447 824 l 311 815 l 311 497 l 531 497 l 551 579 l 610 579 l 610 342 l 551 342 l 531 424 l 311 424 l 311 93 q 379 83 338 86 q 460 79 421 79 l 626 79 l 657 228 l 725 228 l 725 0 l 76 0 l 76 60 z "},"Ê":{"ha":794,"x_min":76,"x_max":725,"o":"m 207 994 l 317 1083 q 386 1140 364 1122 q 422 1158 408 1158 q 464 1138 439 1158 q 529 1083 489 1117 l 632 999 l 586 942 l 417 1032 l 242 944 l 207 994 m 76 60 l 192 83 l 192 817 l 76 840 l 76 900 l 713 900 l 713 672 l 644 672 l 615 824 l 447 824 l 311 815 l 311 497 l 531 497 l 551 579 l 610 579 l 610 342 l 551 342 l 531 424 l 311 424 l 311 93 q 379 83 338 86 q 460 79 421 79 l 626 79 l 657 228 l 725 228 l 725 0 l 76 0 l 76 60 z "},"Ế":{"ha":794,"x_min":76,"x_max":799,"o":"m 76 60 l 192 83 l 192 817 l 76 840 l 76 900 l 713 900 l 713 672 l 644 672 l 615 824 l 447 824 l 311 815 l 311 497 l 531 497 l 551 579 l 610 579 l 610 342 l 551 342 l 531 424 l 311 424 l 311 93 q 379 83 338 86 q 460 79 421 79 l 626 79 l 657 228 l 725 228 l 725 0 l 76 0 l 76 60 z "},"Ệ":{"ha":794,"x_min":76,"x_max":725,"o":"m 76 60 l 192 83 l 192 817 l 76 840 l 76 900 l 713 900 l 713 672 l 644 672 l 615 824 l 447 824 l 311 815 l 311 497 l 531 497 l 551 579 l 610 579 l 610 342 l 551 342 l 531 424 l 311 424 l 311 93 q 379 83 338 86 q 460 79 421 79 l 626 79 l 657 228 l 725 228 l 725 0 l 76 0 l 76 60 m 393 -239 q 336 -215 357 -239 q 315 -153 315 -192 q 339 -89 315 -117 q 400 -61 363 -61 q 456 -83 435 -61 q 478 -144 478 -106 q 456 -210 478 -182 q 393 -239 433 -239 z "},"Ề":{"ha":794,"x_min":76,"x_max":732,"o":"m 76 60 l 192 83 l 192 817 l 76 840 l 76 900 l 713 900 l 713 672 l 644 672 l 615 824 l 447 824 l 311 815 l 311 497 l 531 497 l 551 579 l 610 579 l 610 342 l 551 342 l 531 424 l 311 424 l 311 93 q 379 83 338 86 q 460 79 421 79 l 626 79 l 657 228 l 725 228 l 725 0 l 76 0 l 76 60 z "},"Ể":{"ha":794,"x_min":76,"x_max":751,"o":"m 76 60 l 192 83 l 192 817 l 76 840 l 76 900 l 713 900 l 713 672 l 644 672 l 615 824 l 447 824 l 311 815 l 311 497 l 531 497 l 551 579 l 610 579 l 610 342 l 551 342 l 531 424 l 311 424 l 311 93 q 379 83 338 86 q 460 79 421 79 l 626 79 l 657 228 l 725 228 l 725 0 l 76 0 l 76 60 z "},"Ễ":{"ha":794,"x_min":76,"x_max":725,"o":"m 76 60 l 192 83 l 192 817 l 76 840 l 76 900 l 713 900 l 713 672 l 644 672 l 615 824 l 447 824 l 311 815 l 311 497 l 531 497 l 551 579 l 610 579 l 610 342 l 551 342 l 531 424 l 311 424 l 311 93 q 379 83 338 86 q 460 79 421 79 l 626 79 l 657 228 l 725 228 l 725 0 l 76 0 l 76 60 z "},"Ȅ":{"ha":794,"x_min":76,"x_max":725,"o":"m 76 60 l 192 83 l 192 817 l 76 840 l 76 900 l 713 900 l 713 672 l 644 672 l 615 824 l 447 824 l 311 815 l 311 497 l 531 497 l 551 579 l 610 579 l 610 342 l 551 342 l 531 424 l 311 424 l 311 93 q 379 83 338 86 q 460 79 421 79 l 626 79 l 657 228 l 725 228 l 725 0 l 76 0 l 76 60 z "},"Ë":{"ha":794,"x_min":76,"x_max":725,"o":"m 576 963 q 525 984 544 963 q 506 1040 506 1006 q 526 1099 506 1074 q 582 1124 547 1124 q 633 1103 614 1124 q 653 1049 653 1083 q 633 988 653 1014 q 576 963 613 963 m 283 963 q 232 984 251 963 q 213 1040 213 1006 q 233 1099 213 1074 q 289 1124 254 1124 q 340 1103 321 1124 q 360 1049 360 1083 q 340 988 360 1014 q 283 963 319 963 m 76 60 l 192 83 l 192 817 l 76 840 l 76 900 l 713 900 l 713 672 l 644 672 l 615 824 l 447 824 l 311 815 l 311 497 l 531 497 l 551 579 l 610 579 l 610 342 l 551 342 l 531 424 l 311 424 l 311 93 q 379 83 338 86 q 460 79 421 79 l 626 79 l 657 228 l 725 228 l 725 0 l 76 0 l 76 60 z "},"Ė":{"ha":794,"x_min":76,"x_max":725,"o":"m 431 964 q 374 988 394 964 q 353 1050 353 1011 q 376 1114 353 1086 q 438 1142 400 1142 q 494 1119 472 1142 q 515 1058 515 1097 q 493 992 515 1021 q 431 964 471 964 m 76 60 l 192 83 l 192 817 l 76 840 l 76 900 l 713 900 l 713 672 l 644 672 l 615 824 l 447 824 l 311 815 l 311 497 l 531 497 l 551 579 l 610 579 l 610 342 l 551 342 l 531 424 l 311 424 l 311 93 q 379 83 338 86 q 460 79 421 79 l 626 79 l 657 228 l 725 228 l 725 0 l 76 0 l 76 60 z "},"Ẹ":{"ha":794,"x_min":76,"x_max":725,"o":"m 76 60 l 192 83 l 192 817 l 76 840 l 76 900 l 713 900 l 713 672 l 644 672 l 615 824 l 447 824 l 311 815 l 311 497 l 531 497 l 551 579 l 610 579 l 610 342 l 551 342 l 531 424 l 311 424 l 311 93 q 379 83 338 86 q 460 79 421 79 l 626 79 l 657 228 l 725 228 l 725 0 l 76 0 l 76 60 m 393 -239 q 336 -215 357 -239 q 315 -153 315 -192 q 339 -89 315 -117 q 400 -61 363 -61 q 456 -83 435 -61 q 478 -144 478 -106 q 456 -210 478 -182 q 393 -239 433 -239 z "},"È":{"ha":794,"x_min":76,"x_max":725,"o":"m 269 1065 q 291 1138 274 1114 q 328 1161 308 1161 q 353 1152 339 1161 q 386 1131 368 1143 l 568 994 l 538 946 l 269 1065 m 76 60 l 192 83 l 192 817 l 76 840 l 76 900 l 713 900 l 713 672 l 644 672 l 615 824 l 447 824 l 311 815 l 311 497 l 531 497 l 551 579 l 610 579 l 610 342 l 551 342 l 531 424 l 311 424 l 311 93 q 379 83 338 86 q 460 79 421 79 l 626 79 l 657 228 l 725 228 l 725 0 l 76 0 l 76 60 z "},"Ẻ":{"ha":794,"x_min":76,"x_max":725,"o":"m 76 60 l 192 83 l 192 817 l 76 840 l 76 900 l 713 900 l 713 672 l 644 672 l 615 824 l 447 824 l 311 815 l 311 497 l 531 497 l 551 579 l 610 579 l 610 342 l 551 342 l 531 424 l 311 424 l 311 93 q 379 83 338 86 q 460 79 421 79 l 626 79 l 657 228 l 725 228 l 725 0 l 76 0 l 76 60 m 404 940 q 397 965 397 957 q 450 1015 397 996 q 488 1036 476 1025 q 499 1063 499 1047 q 431 1090 499 1090 q 343 1079 390 1090 q 333 1103 336 1093 q 331 1124 331 1114 q 344 1153 331 1142 q 414 1165 358 1165 q 544 1141 496 1165 q 593 1068 593 1117 q 513 976 593 1001 q 481 959 486 968 q 475 940 475 950 l 404 940 z "},"Ȇ":{"ha":794,"x_min":76,"x_max":725,"o":"m 76 60 l 192 83 l 192 817 l 76 840 l 76 900 l 713 900 l 713 672 l 644 672 l 615 824 l 447 824 l 311 815 l 311 497 l 531 497 l 551 579 l 610 579 l 610 342 l 551 342 l 531 424 l 311 424 l 311 93 q 379 83 338 86 q 460 79 421 79 l 626 79 l 657 228 l 725 228 l 725 0 l 76 0 l 76 60 m 554 961 q 544 985 554 961 q 508 1032 533 1008 q 438 1056 483 1056 q 351 1032 383 1056 q 306 985 319 1008 q 293 961 293 961 l 250 972 q 265 1014 250 972 q 322 1098 281 1056 q 442 1140 364 1140 q 574 1100 532 1140 q 626 1019 615 1060 q 638 979 638 979 l 554 961 z "},"Ē":{"ha":794,"x_min":76,"x_max":725,"o":"m 201 1085 l 663 1085 l 649 1004 l 188 1004 l 201 1085 m 76 60 l 192 83 l 192 817 l 76 840 l 76 900 l 713 900 l 713 672 l 644 672 l 615 824 l 447 824 l 311 815 l 311 497 l 531 497 l 551 579 l 610 579 l 610 342 l 551 342 l 531 424 l 311 424 l 311 93 q 379 83 338 86 q 460 79 421 79 l 626 79 l 657 228 l 725 228 l 725 0 l 76 0 l 76 60 z "},"Ę":{"ha":794,"x_min":76,"x_max":824,"o":"m 76 60 l 192 83 l 192 817 l 76 840 l 76 900 l 713 900 l 713 672 l 644 672 l 615 824 l 447 824 l 311 815 l 311 497 l 531 497 l 551 579 l 610 579 l 610 342 l 551 342 l 531 424 l 311 424 l 311 93 q 376 83 343 86 q 460 79 410 79 l 626 79 l 675 228 l 743 228 l 725 22 l 724 21 q 688 -26 717 14 q 660 -115 660 -67 q 719 -176 660 -176 q 759 -167 739 -176 q 799 -147 779 -158 l 824 -189 q 783 -224 824 -189 q 683 -260 743 -260 q 601 -234 633 -260 q 568 -157 568 -208 q 591 -71 568 -111 q 640 0 614 -31 l 76 0 l 76 60 z "},"Ẽ":{"ha":794,"x_min":76,"x_max":725,"o":"m 76 60 l 192 83 l 192 817 l 76 840 l 76 900 l 713 900 l 713 672 l 644 672 l 615 824 l 447 824 l 311 815 l 311 497 l 531 497 l 551 579 l 610 579 l 610 342 l 551 342 l 531 424 l 311 424 l 311 93 q 379 83 338 86 q 460 79 421 79 l 626 79 l 657 228 l 725 228 l 725 0 l 76 0 l 76 60 z "},"F":{"ha":718,"x_min":76,"x_max":718,"o":"m 76 60 l 192 83 l 192 817 l 76 840 l 76 900 l 718 900 l 718 672 l 649 672 l 619 824 l 447 824 l 311 815 l 311 469 l 543 469 l 563 553 l 621 553 l 621 314 l 563 314 l 543 396 l 311 396 l 311 88 l 469 68 l 469 0 l 76 0 l 76 60 z "},"G":{"ha":896,"x_min":63,"x_max":847,"o":"m 674 361 l 574 386 l 574 446 l 847 446 l 847 376 l 790 365 l 790 0 l 733 0 l 689 38 l 669 38 q 596 3 644 21 q 457 -15 547 -15 q 165 92 267 -15 q 63 439 63 200 q 114 674 63 565 q 263 850 165 783 q 499 917 360 917 q 681 902 608 917 q 775 875 754 888 l 775 658 l 708 658 l 668 811 q 619 823 668 811 q 481 835 569 835 q 264 737 325 835 q 203 453 203 639 q 267 163 203 264 q 492 63 332 63 q 597 74 560 63 q 674 107 633 86 l 674 361 z "},"Ǵ":{"ha":896,"x_min":63,"x_max":847,"o":"m 674 361 l 574 386 l 574 446 l 847 446 l 847 376 l 790 365 l 790 0 l 733 0 l 689 38 l 669 38 q 596 3 644 21 q 457 -15 547 -15 q 165 92 267 -15 q 63 439 63 200 q 114 674 63 565 q 263 850 165 783 q 499 917 360 917 q 681 902 608 917 q 775 875 754 888 l 775 658 l 708 658 l 668 811 q 619 823 668 811 q 481 835 569 835 q 264 737 325 835 q 203 453 203 639 q 267 163 203 264 q 492 63 332 63 q 597 74 560 63 q 674 107 633 86 l 674 361 z "},"Ğ":{"ha":896,"x_min":63,"x_max":847,"o":"m 674 361 l 574 386 l 574 446 l 847 446 l 847 376 l 790 365 l 790 0 l 733 0 l 689 38 l 669 38 q 596 3 644 21 q 457 -15 547 -15 q 165 92 267 -15 q 63 439 63 200 q 114 674 63 565 q 263 850 165 783 q 499 917 360 917 q 681 902 608 917 q 775 875 754 888 l 775 658 l 708 658 l 668 811 q 619 823 668 811 q 481 835 569 835 q 264 737 325 835 q 203 453 203 639 q 267 163 203 264 q 492 63 332 63 q 597 74 560 63 q 674 107 633 86 l 674 361 m 364 1140 q 374 1117 364 1140 q 409 1069 383 1093 q 481 1046 435 1046 q 566 1069 535 1046 q 611 1117 597 1093 q 625 1140 625 1140 l 668 1129 q 653 1087 668 1129 q 597 1003 638 1044 q 476 961 556 961 q 344 1001 386 961 q 292 1082 303 1042 q 281 1122 281 1122 l 364 1140 z "},"Ǧ":{"ha":896,"x_min":63,"x_max":847,"o":"m 674 361 l 574 386 l 574 446 l 847 446 l 847 376 l 790 365 l 790 0 l 733 0 l 689 38 l 669 38 q 596 3 644 21 q 457 -15 547 -15 q 165 92 267 -15 q 63 439 63 200 q 114 674 63 565 q 263 850 165 783 q 499 917 360 917 q 681 902 608 917 q 775 875 754 888 l 775 658 l 708 658 l 668 811 q 619 823 668 811 q 481 835 569 835 q 264 737 325 835 q 203 453 203 639 q 267 163 203 264 q 492 63 332 63 q 597 74 560 63 q 674 107 633 86 l 674 361 z "},"Ĝ":{"ha":896,"x_min":63,"x_max":847,"o":"m 674 361 l 574 386 l 574 446 l 847 446 l 847 376 l 790 365 l 790 0 l 733 0 l 689 38 l 669 38 q 596 3 644 21 q 457 -15 547 -15 q 165 92 267 -15 q 63 439 63 200 q 114 674 63 565 q 263 850 165 783 q 499 917 360 917 q 681 902 608 917 q 775 875 754 888 l 775 658 l 708 658 l 668 811 q 619 823 668 811 q 481 835 569 835 q 264 737 325 835 q 203 453 203 639 q 267 163 203 264 q 492 63 332 63 q 597 74 560 63 q 674 107 633 86 l 674 361 z "},"Ģ":{"ha":896,"x_min":63,"x_max":847,"o":"m 674 361 l 574 386 l 574 446 l 847 446 l 847 376 l 790 365 l 790 0 l 733 0 l 689 38 l 669 38 q 596 3 644 21 q 457 -15 547 -15 q 165 92 267 -15 q 63 439 63 200 q 114 674 63 565 q 263 850 165 783 q 499 917 360 917 q 681 902 608 917 q 775 875 754 888 l 775 658 l 708 658 l 668 811 q 619 823 668 811 q 481 835 569 835 q 264 737 325 835 q 203 453 203 639 q 267 163 203 264 q 492 63 332 63 q 597 74 560 63 q 674 107 633 86 l 674 361 m 451 -260 q 468 -204 461 -229 q 475 -150 475 -179 q 464 -104 475 -124 q 439 -71 453 -85 q 470 -47 453 -54 q 501 -40 488 -40 q 553 -64 538 -40 q 568 -112 568 -87 q 549 -192 568 -158 q 513 -242 531 -225 q 494 -260 494 -260 l 451 -260 z "},"Ġ":{"ha":896,"x_min":63,"x_max":847,"o":"m 674 361 l 574 386 l 574 446 l 847 446 l 847 376 l 790 365 l 790 0 l 733 0 l 689 38 l 669 38 q 596 3 644 21 q 457 -15 547 -15 q 165 92 267 -15 q 63 439 63 200 q 114 674 63 565 q 263 850 165 783 q 499 917 360 917 q 681 902 608 917 q 775 875 754 888 l 775 658 l 708 658 l 668 811 q 619 823 668 811 q 481 835 569 835 q 264 737 325 835 q 203 453 203 639 q 267 163 203 264 q 492 63 332 63 q 597 74 560 63 q 674 107 633 86 l 674 361 z "},"H":{"ha":1046,"x_min":76,"x_max":969,"o":"m 76 61 l 192 82 l 192 818 l 76 839 l 76 900 l 426 900 l 426 839 l 311 818 l 311 500 l 735 500 l 735 818 l 621 839 l 621 900 l 969 900 l 969 839 l 856 818 l 856 82 l 969 61 l 969 0 l 621 0 l 621 61 l 735 82 l 735 424 l 311 424 l 311 82 l 426 61 l 426 0 l 76 0 l 76 61 z "},"Ħ":{"ha":1046,"x_min":76,"x_max":969,"o":"m 76 0 l 76 61 l 192 82 l 192 610 l 83 610 l 83 686 l 192 686 l 192 818 l 76 839 l 76 900 l 426 900 l 426 839 l 311 818 l 311 686 l 735 686 l 735 818 l 621 839 l 621 900 l 969 900 l 969 839 l 856 818 l 856 686 l 969 686 l 969 610 l 856 610 l 856 82 l 969 61 l 969 0 l 621 0 l 621 61 l 735 82 l 735 396 l 311 396 l 311 82 l 426 61 l 426 0 l 76 0 m 311 472 l 735 472 l 735 610 l 311 610 l 311 472 z "},"Ĥ":{"ha":1046,"x_min":76,"x_max":969,"o":"m 76 61 l 192 82 l 192 818 l 76 839 l 76 900 l 426 900 l 426 839 l 311 818 l 311 500 l 735 500 l 735 818 l 621 839 l 621 900 l 969 900 l 969 839 l 856 818 l 856 82 l 969 61 l 969 0 l 621 0 l 621 61 l 735 82 l 735 424 l 311 424 l 311 82 l 426 61 l 426 0 l 76 0 l 76 61 z "},"Ḥ":{"ha":1046,"x_min":76,"x_max":969,"o":"m 76 61 l 192 82 l 192 818 l 76 839 l 76 900 l 426 900 l 426 839 l 311 818 l 311 500 l 735 500 l 735 818 l 621 839 l 621 900 l 969 900 l 969 839 l 856 818 l 856 82 l 969 61 l 969 0 l 621 0 l 621 61 l 735 82 l 735 424 l 311 424 l 311 82 l 426 61 l 426 0 l 76 0 l 76 61 m 519 -239 q 463 -215 483 -239 q 442 -153 442 -192 q 465 -89 442 -117 q 526 -61 489 -61 q 583 -83 561 -61 q 604 -144 604 -106 q 582 -210 604 -182 q 519 -239 560 -239 z "},"I":{"ha":513,"x_min":82,"x_max":431,"o":"m 82 61 l 196 82 l 196 818 l 82 839 l 82 900 l 431 900 l 431 839 l 317 818 l 317 82 l 431 61 l 431 0 l 82 0 l 82 61 z "},"Ĳ":{"ha":1068,"x_min":82,"x_max":1006,"o":"m 82 61 l 196 82 l 196 818 l 82 839 l 82 900 l 431 900 l 431 839 l 317 818 l 317 82 l 431 61 l 431 0 l 82 0 l 82 61 m 526 218 l 593 218 l 633 65 q 653 58 633 65 q 703 51 674 51 q 767 77 750 51 q 783 138 783 103 l 783 815 l 651 839 l 651 900 l 1006 900 l 1006 839 l 904 818 l 904 154 q 850 20 904 60 q 700 -19 796 -19 q 575 -1 624 -19 q 526 18 526 18 l 526 218 z "},"Í":{"ha":513,"x_min":82,"x_max":431,"o":"m 82 61 l 196 82 l 196 818 l 82 839 l 82 900 l 431 900 l 431 839 l 317 818 l 317 82 l 431 61 l 431 0 l 82 0 l 82 61 m 117 994 l 299 1131 q 331 1152 317 1143 q 357 1161 346 1161 q 394 1138 376 1161 q 415 1065 411 1114 l 147 946 l 117 994 z "},"Ĭ":{"ha":513,"x_min":63,"x_max":450,"o":"m 82 61 l 196 82 l 196 818 l 82 839 l 82 900 l 431 900 l 431 839 l 317 818 l 317 82 l 431 61 l 431 0 l 82 0 l 82 61 z "},"Ǐ":{"ha":513,"x_min":44,"x_max":469,"o":"m 82 61 l 196 82 l 196 818 l 82 839 l 82 900 l 431 900 l 431 839 l 317 818 l 317 82 l 431 61 l 431 0 l 82 0 l 82 61 z "},"Î":{"ha":513,"x_min":38,"x_max":463,"o":"m 82 61 l 196 82 l 196 818 l 82 839 l 82 900 l 431 900 l 431 839 l 317 818 l 317 82 l 431 61 l 431 0 l 82 0 l 82 61 m 38 994 l 147 1083 q 217 1140 194 1122 q 253 1158 239 1158 q 294 1138 269 1158 q 360 1083 319 1117 l 463 999 l 417 942 l 247 1032 l 72 944 l 38 994 z "},"Ȉ":{"ha":513,"x_min":-74,"x_max":431,"o":"m 82 61 l 196 82 l 196 818 l 82 839 l 82 900 l 431 900 l 431 839 l 317 818 l 317 82 l 431 61 l 431 0 l 82 0 l 82 61 z "},"Ï":{"ha":513,"x_min":36,"x_max":476,"o":"m 82 0 l 82 61 l 196 82 l 196 818 l 82 839 l 82 900 l 431 900 l 431 839 l 317 818 l 317 82 l 431 61 l 431 0 l 82 0 m 107 963 q 56 984 75 963 q 36 1040 36 1006 q 57 1099 36 1074 q 113 1124 78 1124 q 164 1103 144 1124 q 183 1049 183 1083 q 163 988 183 1014 q 107 963 143 963 m 400 963 q 349 984 368 963 q 329 1040 329 1006 q 350 1099 329 1074 q 406 1124 371 1124 q 457 1103 438 1124 q 476 1049 476 1083 q 456 988 476 1014 q 400 963 436 963 z "},"İ":{"ha":513,"x_min":82,"x_max":431,"o":"m 82 61 l 196 82 l 196 818 l 82 839 l 82 900 l 431 900 l 431 839 l 317 818 l 317 82 l 431 61 l 431 0 l 82 0 l 82 61 m 253 964 q 196 988 217 964 q 175 1050 175 1011 q 199 1114 175 1086 q 260 1142 222 1142 q 316 1119 294 1142 q 338 1058 338 1097 q 315 992 338 1021 q 253 964 293 964 z "},"Ị":{"ha":513,"x_min":82,"x_max":431,"o":"m 82 61 l 196 82 l 196 818 l 82 839 l 82 900 l 431 900 l 431 839 l 317 818 l 317 82 l 431 61 l 431 0 l 82 0 l 82 61 m 253 -239 q 196 -215 217 -239 q 175 -153 175 -192 q 199 -89 175 -117 q 260 -61 222 -61 q 316 -83 294 -61 q 338 -144 338 -106 q 315 -210 338 -182 q 253 -239 293 -239 z "},"Ì":{"ha":513,"x_min":82,"x_max":431,"o":"m 82 61 l 196 82 l 196 818 l 82 839 l 82 900 l 431 900 l 431 839 l 317 818 l 317 82 l 431 61 l 431 0 l 82 0 l 82 61 m 104 1065 q 126 1138 108 1114 q 163 1161 143 1161 q 188 1152 174 1161 q 221 1131 203 1143 l 403 994 l 372 946 l 104 1065 z "},"Ỉ":{"ha":513,"x_min":82,"x_max":431,"o":"m 82 61 l 196 82 l 196 818 l 82 839 l 82 900 l 431 900 l 431 839 l 317 818 l 317 82 l 431 61 l 431 0 l 82 0 l 82 61 m 217 940 q 210 965 210 957 q 263 1015 210 996 q 300 1036 289 1025 q 311 1063 311 1047 q 243 1090 311 1090 q 156 1079 203 1090 q 146 1103 149 1093 q 143 1124 143 1114 q 157 1153 143 1142 q 226 1165 171 1165 q 357 1141 308 1165 q 406 1068 406 1117 q 325 976 406 1001 q 293 959 299 968 q 288 940 288 950 l 217 940 z "},"Ȋ":{"ha":513,"x_min":63,"x_max":450,"o":"m 82 61 l 196 82 l 196 818 l 82 839 l 82 900 l 431 900 l 431 839 l 317 818 l 317 82 l 431 61 l 431 0 l 82 0 l 82 61 m 367 961 q 356 985 367 961 q 321 1032 346 1008 q 250 1056 296 1056 q 164 1032 196 1056 q 119 985 132 1008 q 106 961 106 961 l 63 972 q 78 1014 63 972 q 135 1098 93 1056 q 254 1140 176 1140 q 386 1100 344 1140 q 439 1019 428 1060 q 450 979 450 979 l 367 961 z "},"Ī":{"ha":513,"x_min":46,"x_max":465,"o":"m 82 0 l 82 61 l 196 82 l 196 818 l 82 839 l 82 900 l 431 900 l 431 839 l 317 818 l 317 82 l 431 61 l 431 0 l 82 0 m 46 1004 l 60 1085 l 465 1085 l 451 1004 l 46 1004 z "},"Į":{"ha":513,"x_min":82,"x_max":474,"o":"m 82 61 l 196 82 l 196 818 l 82 839 l 82 900 l 431 900 l 431 839 l 317 818 l 317 82 l 431 61 l 431 0 l 388 0 q 337 -50 364 -19 q 310 -115 310 -81 q 369 -176 310 -176 q 408 -167 386 -176 q 449 -147 429 -158 l 474 -189 q 433 -224 474 -189 q 333 -260 393 -260 q 251 -234 283 -260 q 218 -157 218 -208 q 250 -65 218 -104 q 322 0 282 -25 l 82 0 l 82 61 z "},"Ĩ":{"ha":513,"x_min":14,"x_max":500,"o":"m 82 61 l 196 82 l 196 818 l 82 839 l 82 900 l 431 900 l 431 839 l 317 818 l 317 82 l 431 61 l 431 0 l 82 0 l 82 61 z "},"J":{"ha":556,"x_min":14,"x_max":493,"o":"m 14 218 l 81 218 l 121 65 q 141 58 121 65 q 190 51 161 51 q 254 77 238 51 q 271 138 271 103 l 271 815 l 139 839 l 139 900 l 493 900 l 493 839 l 392 818 l 392 154 q 338 20 392 60 q 188 -19 283 -19 q 63 -1 111 -19 q 14 18 14 18 l 14 218 z "},"Ĵ":{"ha":556,"x_min":14,"x_max":544,"o":"m 14 218 l 81 218 l 121 65 q 141 58 121 65 q 190 51 161 51 q 254 77 238 51 q 271 138 271 103 l 271 815 l 139 839 l 139 900 l 493 900 l 493 839 l 392 818 l 392 154 q 338 20 392 60 q 188 -19 283 -19 q 63 -1 111 -19 q 14 18 14 18 l 14 218 z "},"K":{"ha":833,"x_min":76,"x_max":840,"o":"m 76 61 l 192 82 l 192 818 l 76 839 l 76 900 l 426 900 l 426 839 l 311 818 l 311 499 l 354 499 l 610 808 l 610 824 l 529 840 l 529 900 l 813 900 l 813 839 l 733 822 l 461 497 l 751 83 l 840 63 l 840 0 l 710 0 q 660 7 676 0 q 625 40 643 14 l 357 433 l 311 433 l 311 82 l 426 61 l 426 0 l 76 0 l 76 61 z "},"Ķ":{"ha":833,"x_min":76,"x_max":840,"o":"m 76 0 l 76 61 l 192 82 l 192 818 l 76 839 l 76 900 l 426 900 l 426 839 l 311 818 l 311 499 l 354 499 l 610 808 l 610 824 l 529 840 l 529 900 l 813 900 l 813 839 l 733 822 l 461 497 l 751 83 l 840 63 l 840 0 l 710 0 q 660 7 676 0 q 625 40 643 14 l 357 433 l 311 433 l 311 82 l 426 61 l 426 0 l 76 0 m 428 -260 q 445 -204 439 -229 q 451 -150 451 -179 q 441 -104 451 -124 q 415 -71 431 -85 q 447 -47 431 -54 q 478 -40 464 -40 q 529 -64 514 -40 q 544 -112 544 -87 q 526 -192 544 -158 q 490 -242 508 -225 q 471 -260 471 -260 l 428 -260 z "},"L":{"ha":726,"x_min":76,"x_max":703,"o":"m 76 60 l 192 83 l 192 817 l 76 840 l 76 900 l 438 900 l 438 835 l 311 814 l 311 88 l 447 76 l 604 76 l 635 225 l 703 225 l 703 0 l 76 0 l 76 60 z "},"Ǉ":{"ha":1282,"x_min":76,"x_max":1219,"o":"m 76 60 l 192 83 l 192 817 l 76 840 l 76 900 l 438 900 l 438 835 l 311 814 l 311 88 l 447 76 l 576 76 l 607 225 l 675 225 l 675 0 l 76 0 l 76 60 m 740 218 l 807 218 l 847 65 q 867 58 847 65 q 917 51 888 51 q 981 77 964 51 q 997 138 997 103 l 997 815 l 865 839 l 865 900 l 1219 900 l 1219 839 l 1118 818 l 1118 154 q 1064 20 1118 60 q 914 -19 1010 -19 q 788 -1 836 -19 q 740 18 740 18 l 740 218 z "},"Ĺ":{"ha":726,"x_min":76,"x_max":703,"o":"m 76 0 l 76 60 l 192 83 l 192 817 l 76 840 l 76 900 l 438 900 l 438 835 l 311 814 l 311 88 l 447 76 l 604 76 l 635 225 l 703 225 l 703 0 l 76 0 m 211 946 l 181 994 l 363 1131 q 395 1152 381 1143 q 421 1161 410 1161 q 458 1138 440 1161 q 479 1065 475 1114 l 211 946 z "},"Ľ":{"ha":732,"x_min":82,"x_max":708,"o":"m 82 0 l 82 60 l 197 83 l 197 817 l 82 840 l 82 900 l 443 900 l 443 835 l 317 814 l 317 88 l 453 76 l 610 76 l 640 225 l 708 225 l 708 0 l 82 0 m 532 668 q 548 735 542 699 q 554 800 554 771 q 544 844 554 825 q 519 882 533 864 q 542 903 526 892 q 582 914 557 914 q 635 892 618 914 q 651 839 651 869 q 633 768 651 808 q 595 698 614 728 q 576 668 576 668 l 532 668 z "},"Ļ":{"ha":732,"x_min":82,"x_max":708,"o":"m 82 0 l 82 60 l 197 83 l 197 817 l 82 840 l 82 900 l 443 900 l 443 835 l 317 814 l 317 88 l 453 76 l 610 76 l 640 225 l 708 225 l 708 0 l 82 0 m 364 -260 q 381 -204 375 -229 q 388 -150 388 -179 q 377 -104 388 -124 q 351 -71 367 -85 q 383 -47 367 -54 q 414 -40 400 -40 q 465 -64 450 -40 q 481 -112 481 -87 q 463 -192 481 -158 q 426 -242 444 -225 q 407 -260 407 -260 l 364 -260 z "},"Ŀ":{"ha":726,"x_min":76,"x_max":703,"o":"m 76 60 l 192 83 l 192 817 l 76 840 l 76 900 l 438 900 l 438 835 l 311 814 l 311 88 l 447 76 l 604 76 l 635 225 l 703 225 l 703 0 l 76 0 l 76 60 m 519 410 q 462 434 483 410 q 440 497 440 458 q 464 563 440 535 q 526 590 488 590 q 584 568 563 590 q 606 506 606 546 q 583 439 606 468 q 519 410 561 410 z "},"ǈ":{"ha":1086,"x_min":76,"x_max":981,"o":"m 76 60 l 192 83 l 192 817 l 76 840 l 76 900 l 438 900 l 438 835 l 311 814 l 311 88 l 447 76 l 604 76 l 635 225 l 703 225 l 703 0 l 76 0 l 76 60 m 824 -229 q 741 -222 774 -229 q 708 -215 708 -215 l 708 -162 l 858 -126 l 858 571 l 747 590 l 747 647 l 940 686 l 972 674 l 972 -115 q 934 -199 972 -169 q 824 -229 896 -229 m 896 789 q 839 813 860 789 q 818 875 818 836 q 842 939 818 911 q 903 967 865 967 q 959 944 938 967 q 981 883 981 922 q 958 817 981 846 q 896 789 936 789 z "},"Ł":{"ha":726,"x_min":76,"x_max":703,"o":"m 76 60 l 192 83 l 192 376 l 96 343 l 96 425 l 192 460 l 192 817 l 76 840 l 76 900 l 438 900 l 438 835 l 311 814 l 311 503 l 499 572 l 499 485 l 311 418 l 311 88 l 447 76 l 604 76 l 635 225 l 703 225 l 703 0 l 76 0 l 76 60 z "},"M":{"ha":1229,"x_min":76,"x_max":1147,"o":"m 76 0 l 76 58 l 178 81 l 178 822 l 89 839 l 89 900 l 374 900 l 588 264 l 608 186 l 629 264 l 839 900 l 1147 900 l 1147 839 l 1032 818 l 1032 82 l 1147 61 l 1147 0 l 797 0 l 797 61 l 911 82 l 911 775 l 911 807 l 890 807 l 879 774 l 618 0 l 551 0 l 279 807 l 263 807 l 263 771 l 263 81 l 364 58 l 364 0 l 76 0 z "},"N":{"ha":1010,"x_min":76,"x_max":944,"o":"m 76 0 l 76 58 l 174 81 l 174 819 l 83 839 l 83 900 l 296 900 l 733 207 l 751 179 l 764 179 l 764 819 l 668 842 l 668 900 l 944 900 l 944 842 l 849 819 l 849 0 l 721 0 l 286 690 l 269 717 l 257 717 l 257 81 l 354 58 l 354 0 l 76 0 z "},"Ǌ":{"ha":1565,"x_min":76,"x_max":1503,"o":"m 76 0 l 76 58 l 174 81 l 174 819 l 83 839 l 83 900 l 296 900 l 733 207 l 751 179 l 764 179 l 764 819 l 668 842 l 668 900 l 944 900 l 944 842 l 849 819 l 849 0 l 721 0 l 286 690 l 269 717 l 257 717 l 257 81 l 354 58 l 354 0 l 76 0 m 1024 218 l 1090 218 l 1131 65 q 1151 58 1131 65 q 1200 51 1171 51 q 1264 77 1247 51 q 1281 138 1281 103 l 1281 815 l 1149 839 l 1149 900 l 1503 900 l 1503 839 l 1401 818 l 1401 154 q 1347 20 1401 60 q 1197 -19 1293 -19 q 1072 -1 1121 -19 q 1024 18 1024 18 l 1024 218 z "},"Ń":{"ha":1010,"x_min":76,"x_max":944,"o":"m 76 0 l 76 58 l 174 81 l 174 819 l 83 839 l 83 900 l 296 900 l 732 210 l 751 179 l 764 179 l 764 819 l 668 842 l 668 900 l 944 900 l 944 842 l 849 819 l 849 0 l 721 0 l 285 693 l 269 717 l 257 717 l 257 81 l 354 58 l 354 0 l 76 0 m 411 946 l 381 994 l 563 1131 q 595 1152 581 1143 q 621 1161 610 1161 q 658 1138 640 1161 q 679 1065 675 1114 l 411 946 z "},"Ň":{"ha":1010,"x_min":76,"x_max":944,"o":"m 76 0 l 76 58 l 174 81 l 174 819 l 83 839 l 83 900 l 296 900 l 732 211 l 751 179 l 764 179 l 764 819 l 668 842 l 668 900 l 944 900 l 944 842 l 849 819 l 849 0 l 721 0 l 283 694 l 269 717 l 257 717 l 257 81 l 354 58 l 354 0 l 76 0 m 507 942 q 465 963 490 942 q 400 1017 440 983 l 297 1101 l 343 1158 l 513 1068 l 688 1156 l 722 1106 l 613 1017 q 543 960 564 978 q 507 942 522 942 z "},"Ņ":{"ha":1010,"x_min":76,"x_max":944,"o":"m 76 0 l 76 58 l 174 81 l 174 819 l 83 839 l 83 900 l 296 900 l 733 208 l 751 179 l 764 179 l 764 819 l 668 842 l 668 900 l 944 900 l 944 842 l 849 819 l 849 0 l 721 0 l 283 694 l 269 717 l 257 717 l 257 81 l 354 58 l 354 0 l 76 0 m 468 -260 q 485 -204 478 -229 q 492 -150 492 -179 q 481 -104 492 -124 q 456 -71 469 -85 q 487 -47 469 -54 q 518 -40 504 -40 q 569 -64 554 -40 q 585 -112 585 -87 q 566 -192 585 -158 q 529 -242 547 -225 q 511 -260 511 -260 l 468 -260 z "},"Ṅ":{"ha":1010,"x_min":76,"x_max":944,"o":"m 76 0 l 76 58 l 174 81 l 174 819 l 83 839 l 83 900 l 296 900 l 733 207 l 751 179 l 764 179 l 764 819 l 668 842 l 668 900 l 944 900 l 944 842 l 849 819 l 849 0 l 721 0 l 286 690 l 269 717 l 257 717 l 257 81 l 354 58 l 354 0 l 76 0 z "},"Ŋ":{"ha":1010,"x_min":76,"x_max":944,"o":"m 849 122 l 849 -115 q 810 -199 849 -169 q 700 -229 772 -229 q 617 -222 650 -229 q 585 -215 585 -215 l 585 -162 l 719 -131 l 719 122 l 849 122 m 76 0 l 76 58 l 174 81 l 174 819 l 83 839 l 83 900 l 296 900 l 733 207 l 751 179 l 764 179 l 764 819 l 668 842 l 668 900 l 944 900 l 944 842 l 849 819 l 849 0 l 721 0 l 286 690 l 269 717 l 257 717 l 257 81 l 354 58 l 354 0 l 76 0 z "},"Ɲ":{"ha":1010,"x_min":24,"x_max":944,"o":"m 124 -229 q 52 -222 81 -229 q 24 -215 24 -215 l 24 -162 l 174 -126 l 174 819 l 83 839 l 83 900 l 296 900 l 731 211 l 751 179 l 764 179 l 764 819 l 668 842 l 668 900 l 944 900 l 944 842 l 849 819 l 849 0 l 721 0 l 282 696 l 269 717 l 257 717 l 257 -115 q 223 -199 257 -169 q 124 -229 189 -229 z "},"ǋ":{"ha":1369,"x_min":76,"x_max":1264,"o":"m 76 0 l 76 58 l 174 81 l 174 819 l 83 839 l 83 900 l 296 900 l 733 207 l 751 179 l 764 179 l 764 819 l 668 842 l 668 900 l 944 900 l 944 842 l 849 819 l 849 0 l 721 0 l 286 690 l 269 717 l 257 717 l 257 81 l 354 58 l 354 0 l 76 0 m 1107 -229 q 1024 -222 1057 -229 q 992 -215 992 -215 l 992 -162 l 1142 -126 l 1142 571 l 1031 590 l 1031 647 l 1224 686 l 1256 674 l 1256 -115 q 1217 -199 1256 -169 q 1107 -229 1179 -229 m 1179 789 q 1122 813 1143 789 q 1101 875 1101 836 q 1125 939 1101 911 q 1186 967 1149 967 q 1242 944 1221 967 q 1264 883 1264 922 q 1242 817 1264 846 q 1179 789 1219 789 z "},"Ñ":{"ha":1010,"x_min":76,"x_max":944,"o":"m 76 0 l 76 58 l 174 81 l 174 819 l 83 839 l 83 900 l 296 900 l 732 210 l 751 179 l 764 179 l 764 819 l 668 842 l 668 900 l 944 900 l 944 842 l 849 819 l 849 0 l 721 0 l 281 699 l 269 717 l 257 717 l 257 81 l 354 58 l 354 0 l 76 0 m 622 969 q 576 976 601 969 q 525 990 551 982 l 415 1025 l 304 975 l 272 1011 l 324 1079 q 360 1110 339 1101 q 408 1119 382 1119 q 454 1113 429 1119 q 506 1099 479 1107 l 615 1064 l 726 1114 l 758 1078 l 707 1010 q 670 978 692 988 q 622 969 649 969 z "},"O":{"ha":967,"x_min":63,"x_max":904,"o":"m 478 -18 q 168 103 274 -18 q 63 435 63 225 q 178 775 63 633 q 508 917 294 917 q 800 794 696 917 q 904 469 904 671 q 803 124 904 267 q 478 -18 703 -18 m 506 61 q 704 163 644 61 q 764 443 764 264 q 728 690 764 606 q 631 803 693 774 q 489 833 569 833 q 346 810 411 833 q 242 705 281 788 q 203 443 203 622 q 281 147 203 233 q 506 61 358 61 z "},"Ó":{"ha":967,"x_min":63,"x_max":904,"o":"m 478 -18 q 168 103 274 -18 q 63 435 63 225 q 178 775 63 633 q 508 917 294 917 q 800 794 696 917 q 904 469 904 671 q 803 124 904 267 q 478 -18 703 -18 m 506 61 q 704 163 644 61 q 764 443 764 264 q 728 690 764 606 q 631 803 693 774 q 489 833 569 833 q 346 810 411 833 q 242 705 281 788 q 203 443 203 622 q 281 147 203 233 q 506 61 358 61 m 378 946 l 347 994 l 529 1131 q 562 1152 547 1143 q 588 1161 576 1161 q 624 1138 607 1161 q 646 1065 642 1114 l 378 946 z "},"Ŏ":{"ha":967,"x_min":63,"x_max":904,"o":"m 478 -18 q 168 103 274 -18 q 63 435 63 225 q 178 775 63 633 q 508 917 294 917 q 800 794 696 917 q 904 469 904 671 q 803 124 904 267 q 478 -18 703 -18 m 506 61 q 704 163 644 61 q 764 443 764 264 q 728 690 764 606 q 631 803 693 774 q 489 833 569 833 q 346 810 411 833 q 242 705 281 788 q 203 443 203 622 q 281 147 203 233 q 506 61 358 61 z "},"Ǒ":{"ha":967,"x_min":63,"x_max":904,"o":"m 478 -18 q 168 103 274 -18 q 63 435 63 225 q 178 775 63 633 q 508 917 294 917 q 800 794 696 917 q 904 469 904 671 q 803 124 904 267 q 478 -18 703 -18 m 506 61 q 704 163 644 61 q 764 443 764 264 q 728 690 764 606 q 631 803 693 774 q 489 833 569 833 q 346 810 411 833 q 242 705 281 788 q 203 443 203 622 q 281 147 203 233 q 506 61 358 61 z "},"Ô":{"ha":967,"x_min":63,"x_max":904,"o":"m 478 -18 q 168 103 274 -18 q 63 435 63 225 q 178 775 63 633 q 508 917 294 917 q 800 794 696 917 q 904 469 904 671 q 803 124 904 267 q 478 -18 703 -18 m 506 61 q 704 163 644 61 q 764 443 764 264 q 728 690 764 606 q 631 803 693 774 q 489 833 569 833 q 346 810 411 833 q 242 705 281 788 q 203 443 203 622 q 281 147 203 233 q 506 61 358 61 m 274 994 l 383 1083 q 453 1140 431 1122 q 489 1158 475 1158 q 531 1138 506 1158 q 596 1083 556 1117 l 699 999 l 653 942 l 483 1032 l 308 944 l 274 994 z "},"Ố":{"ha":967,"x_min":63,"x_max":904,"o":"m 478 -18 q 168 103 274 -18 q 63 435 63 225 q 178 775 63 633 q 508 917 294 917 q 800 794 696 917 q 904 469 904 671 q 803 124 904 267 q 478 -18 703 -18 m 506 61 q 704 163 644 61 q 764 443 764 264 q 728 690 764 606 q 631 803 693 774 q 489 833 569 833 q 346 810 411 833 q 242 705 281 788 q 203 443 203 622 q 281 147 203 233 q 506 61 358 61 z "},"Ộ":{"ha":967,"x_min":63,"x_max":904,"o":"m 478 -18 q 168 103 274 -18 q 63 435 63 225 q 178 775 63 633 q 508 917 294 917 q 800 794 696 917 q 904 469 904 671 q 803 124 904 267 q 478 -18 703 -18 m 506 61 q 704 163 644 61 q 764 443 764 264 q 728 690 764 606 q 631 803 693 774 q 489 833 569 833 q 346 810 411 833 q 242 705 281 788 q 203 443 203 622 q 281 147 203 233 q 506 61 358 61 m 479 -239 q 422 -215 443 -239 q 401 -153 401 -192 q 425 -89 401 -117 q 486 -61 449 -61 q 542 -83 521 -61 q 564 -144 564 -106 q 542 -210 564 -182 q 479 -239 519 -239 z "},"Ồ":{"ha":967,"x_min":63,"x_max":904,"o":"m 478 -18 q 168 103 274 -18 q 63 435 63 225 q 178 775 63 633 q 508 917 294 917 q 800 794 696 917 q 904 469 904 671 q 803 124 904 267 q 478 -18 703 -18 m 506 61 q 704 163 644 61 q 764 443 764 264 q 728 690 764 606 q 631 803 693 774 q 489 833 569 833 q 346 810 411 833 q 242 705 281 788 q 203 443 203 622 q 281 147 203 233 q 506 61 358 61 z "},"Ổ":{"ha":967,"x_min":63,"x_max":904,"o":"m 478 -18 q 168 103 274 -18 q 63 435 63 225 q 178 775 63 633 q 508 917 294 917 q 800 794 696 917 q 904 469 904 671 q 803 124 904 267 q 478 -18 703 -18 m 506 61 q 704 163 644 61 q 764 443 764 264 q 728 690 764 606 q 631 803 693 774 q 489 833 569 833 q 346 810 411 833 q 242 705 281 788 q 203 443 203 622 q 281 147 203 233 q 506 61 358 61 z "},"Ỗ":{"ha":967,"x_min":63,"x_max":904,"o":"m 478 -18 q 168 103 274 -18 q 63 435 63 225 q 178 775 63 633 q 508 917 294 917 q 800 794 696 917 q 904 469 904 671 q 803 124 904 267 q 478 -18 703 -18 m 506 61 q 704 163 644 61 q 764 443 764 264 q 728 690 764 606 q 631 803 693 774 q 489 833 569 833 q 346 810 411 833 q 242 705 281 788 q 203 443 203 622 q 281 147 203 233 q 506 61 358 61 z "},"Ȍ":{"ha":967,"x_min":63,"x_max":904,"o":"m 478 -18 q 168 103 274 -18 q 63 435 63 225 q 178 775 63 633 q 508 917 294 917 q 800 794 696 917 q 904 469 904 671 q 803 124 904 267 q 478 -18 703 -18 m 506 61 q 704 163 644 61 q 764 443 764 264 q 728 690 764 606 q 631 803 693 774 q 489 833 569 833 q 346 810 411 833 q 242 705 281 788 q 203 443 203 622 q 281 147 203 233 q 506 61 358 61 z "},"Ö":{"ha":967,"x_min":63,"x_max":904,"o":"m 478 -18 q 168 103 274 -18 q 63 435 63 225 q 178 775 63 633 q 508 917 294 917 q 800 794 696 917 q 904 469 904 671 q 803 124 904 267 q 478 -18 703 -18 m 506 61 q 704 163 644 61 q 764 443 764 264 q 728 690 764 606 q 631 803 693 774 q 489 833 569 833 q 346 810 411 833 q 242 705 281 788 q 203 443 203 622 q 281 147 203 233 q 506 61 358 61 m 342 963 q 290 984 310 963 q 271 1040 271 1006 q 292 1099 271 1074 q 347 1124 313 1124 q 399 1103 379 1124 q 418 1049 418 1083 q 398 988 418 1014 q 342 963 378 963 m 635 963 q 583 984 603 963 q 564 1040 564 1006 q 585 1099 564 1074 q 640 1124 606 1124 q 692 1103 672 1124 q 711 1049 711 1083 q 691 988 711 1014 q 635 963 671 963 z "},"Ọ":{"ha":967,"x_min":63,"x_max":904,"o":"m 478 -18 q 168 103 274 -18 q 63 435 63 225 q 178 775 63 633 q 508 917 294 917 q 800 794 696 917 q 904 469 904 671 q 803 124 904 267 q 478 -18 703 -18 m 506 61 q 704 163 644 61 q 764 443 764 264 q 728 690 764 606 q 631 803 693 774 q 489 833 569 833 q 346 810 411 833 q 242 705 281 788 q 203 443 203 622 q 281 147 203 233 q 506 61 358 61 m 479 -239 q 422 -215 443 -239 q 401 -153 401 -192 q 425 -89 401 -117 q 486 -61 449 -61 q 542 -83 521 -61 q 564 -144 564 -106 q 542 -210 564 -182 q 479 -239 519 -239 z "},"Ò":{"ha":967,"x_min":63,"x_max":904,"o":"m 478 -18 q 168 103 274 -18 q 63 435 63 225 q 178 775 63 633 q 508 917 294 917 q 800 794 696 917 q 904 469 904 671 q 803 124 904 267 q 478 -18 703 -18 m 506 61 q 704 163 644 61 q 764 443 764 264 q 728 690 764 606 q 631 803 693 774 q 489 833 569 833 q 346 810 411 833 q 242 705 281 788 q 203 443 203 622 q 281 147 203 233 q 506 61 358 61 m 599 946 l 331 1065 q 352 1138 335 1114 q 389 1161 369 1161 q 415 1152 400 1161 q 447 1131 429 1143 l 629 994 l 599 946 z "},"Ỏ":{"ha":967,"x_min":63,"x_max":904,"o":"m 478 -18 q 168 103 274 -18 q 63 435 63 225 q 178 775 63 633 q 508 917 294 917 q 800 794 696 917 q 904 469 904 671 q 803 124 904 267 q 478 -18 703 -18 m 506 61 q 704 163 644 61 q 764 443 764 264 q 728 690 764 606 q 631 803 693 774 q 489 833 569 833 q 346 810 411 833 q 242 705 281 788 q 203 443 203 622 q 281 147 203 233 q 506 61 358 61 m 443 940 q 436 965 436 957 q 489 1015 436 996 q 526 1036 515 1025 q 538 1063 538 1047 q 469 1090 538 1090 q 382 1079 429 1090 q 372 1103 375 1093 q 369 1124 369 1114 q 383 1153 369 1142 q 453 1165 397 1165 q 583 1141 535 1165 q 632 1068 632 1117 q 551 976 632 1001 q 519 959 525 968 q 514 940 514 950 l 443 940 z "},"Ơ":{"ha":967,"x_min":63,"x_max":1013,"o":"m 478 -18 q 168 103 274 -18 q 63 435 63 225 q 178 775 63 633 q 508 917 294 917 q 800 794 696 917 q 904 469 904 671 q 803 124 904 267 q 478 -18 703 -18 m 506 61 q 704 163 644 61 q 764 443 764 264 q 728 690 764 606 q 631 803 693 774 q 489 833 569 833 q 346 810 411 833 q 242 705 281 788 q 203 443 203 622 q 281 147 203 233 q 506 61 358 61 m 779 654 l 776 696 q 870 772 819 725 q 921 872 921 819 q 892 919 921 899 l 892 940 l 968 994 q 997 967 982 983 q 1013 908 1013 951 q 963 797 1013 864 q 779 654 914 731 z "},"Ớ":{"ha":967,"x_min":63,"x_max":1013,"o":"m 478 -18 q 168 103 274 -18 q 63 435 63 225 q 178 775 63 633 q 508 917 294 917 q 800 794 696 917 q 904 469 904 671 q 803 124 904 267 q 478 -18 703 -18 m 506 61 q 704 163 644 61 q 764 443 764 264 q 728 690 764 606 q 631 803 693 774 q 489 833 569 833 q 346 810 411 833 q 242 705 281 788 q 203 443 203 622 q 281 147 203 233 q 506 61 358 61 m 779 654 l 776 696 q 870 772 819 725 q 921 872 921 819 q 892 919 921 899 l 892 940 l 968 994 q 997 967 982 983 q 1013 908 1013 951 q 963 797 1013 864 q 779 654 914 731 z "},"Ợ":{"ha":967,"x_min":63,"x_max":1013,"o":"m 478 -18 q 168 103 274 -18 q 63 435 63 225 q 178 775 63 633 q 508 917 294 917 q 800 794 696 917 q 904 469 904 671 q 803 124 904 267 q 478 -18 703 -18 m 506 61 q 704 163 644 61 q 764 443 764 264 q 728 690 764 606 q 631 803 693 774 q 489 833 569 833 q 346 810 411 833 q 242 705 281 788 q 203 443 203 622 q 281 147 203 233 q 506 61 358 61 m 779 654 l 776 696 q 870 772 819 725 q 921 872 921 819 q 892 919 921 899 l 892 940 l 968 994 q 997 967 982 983 q 1013 908 1013 951 q 963 797 1013 864 q 779 654 914 731 m 479 -239 q 422 -215 443 -239 q 401 -153 401 -192 q 425 -89 401 -117 q 486 -61 449 -61 q 542 -83 521 -61 q 564 -144 564 -106 q 542 -210 564 -182 q 479 -239 519 -239 z "},"Ờ":{"ha":967,"x_min":63,"x_max":1013,"o":"m 478 -18 q 168 103 274 -18 q 63 435 63 225 q 178 775 63 633 q 508 917 294 917 q 800 794 696 917 q 904 469 904 671 q 803 124 904 267 q 478 -18 703 -18 m 506 61 q 704 163 644 61 q 764 443 764 264 q 728 690 764 606 q 631 803 693 774 q 489 833 569 833 q 346 810 411 833 q 242 705 281 788 q 203 443 203 622 q 281 147 203 233 q 506 61 358 61 m 779 654 l 776 696 q 870 772 819 725 q 921 872 921 819 q 892 919 921 899 l 892 940 l 968 994 q 997 967 982 983 q 1013 908 1013 951 q 963 797 1013 864 q 779 654 914 731 z "},"Ở":{"ha":967,"x_min":63,"x_max":1013,"o":"m 478 -18 q 168 103 274 -18 q 63 435 63 225 q 178 775 63 633 q 508 917 294 917 q 800 794 696 917 q 904 469 904 671 q 803 124 904 267 q 478 -18 703 -18 m 506 61 q 704 163 644 61 q 764 443 764 264 q 728 690 764 606 q 631 803 693 774 q 489 833 569 833 q 346 810 411 833 q 242 705 281 788 q 203 443 203 622 q 281 147 203 233 q 506 61 358 61 m 779 654 l 776 696 q 870 772 819 725 q 921 872 921 819 q 892 919 921 899 l 892 940 l 968 994 q 997 967 982 983 q 1013 908 1013 951 q 963 797 1013 864 q 779 654 914 731 m 443 940 q 436 965 436 957 q 489 1015 436 996 q 526 1036 515 1025 q 538 1063 538 1047 q 469 1090 538 1090 q 382 1079 429 1090 q 372 1103 375 1093 q 369 1124 369 1114 q 383 1153 369 1142 q 453 1165 397 1165 q 583 1141 535 1165 q 632 1068 632 1117 q 551 976 632 1001 q 519 959 525 968 q 514 940 514 950 l 443 940 z "},"Ỡ":{"ha":967,"x_min":63,"x_max":1013,"o":"m 478 -18 q 168 103 274 -18 q 63 435 63 225 q 178 775 63 633 q 508 917 294 917 q 800 794 696 917 q 904 469 904 671 q 803 124 904 267 q 478 -18 703 -18 m 506 61 q 704 163 644 61 q 764 443 764 264 q 728 690 764 606 q 631 803 693 774 q 489 833 569 833 q 346 810 411 833 q 242 705 281 788 q 203 443 203 622 q 281 147 203 233 q 506 61 358 61 m 779 654 l 776 696 q 870 772 819 725 q 921 872 921 819 q 892 919 921 899 l 892 940 l 968 994 q 997 967 982 983 q 1013 908 1013 951 q 963 797 1013 864 q 779 654 914 731 z "},"Ő":{"ha":967,"x_min":63,"x_max":904,"o":"m 478 -18 q 168 103 274 -18 q 63 435 63 225 q 178 775 63 633 q 508 917 294 917 q 800 794 696 917 q 904 469 904 671 q 803 124 904 267 q 478 -18 703 -18 m 506 61 q 704 163 644 61 q 764 443 764 264 q 728 690 764 606 q 631 803 693 774 q 489 833 569 833 q 346 810 411 833 q 242 705 281 788 q 203 443 203 622 q 281 147 203 233 q 506 61 358 61 m 306 939 l 267 976 l 376 1119 q 412 1156 397 1147 q 442 1164 426 1164 q 478 1142 461 1164 q 506 1081 494 1121 l 306 939 m 561 939 l 522 976 l 632 1119 q 667 1156 653 1147 q 697 1164 682 1164 q 733 1142 717 1164 q 761 1081 750 1121 l 561 939 z "},"Ȏ":{"ha":967,"x_min":63,"x_max":904,"o":"m 478 -18 q 168 103 274 -18 q 63 435 63 225 q 178 775 63 633 q 508 917 294 917 q 800 794 696 917 q 904 469 904 671 q 803 124 904 267 q 478 -18 703 -18 m 506 61 q 704 163 644 61 q 764 443 764 264 q 728 690 764 606 q 631 803 693 774 q 489 833 569 833 q 346 810 411 833 q 242 705 281 788 q 203 443 203 622 q 281 147 203 233 q 506 61 358 61 m 593 961 q 583 985 593 961 q 547 1032 572 1008 q 476 1056 522 1056 q 390 1032 422 1056 q 345 985 358 1008 q 332 961 332 961 l 289 972 q 304 1014 289 972 q 361 1098 319 1056 q 481 1140 403 1140 q 613 1100 571 1140 q 665 1019 654 1060 q 676 979 676 979 l 593 961 z "},"Ō":{"ha":981,"x_min":69,"x_max":911,"o":"m 485 -18 q 175 103 281 -18 q 69 435 69 225 q 185 775 69 633 q 515 917 300 917 q 807 794 703 917 q 911 469 911 671 q 810 124 911 267 q 485 -18 710 -18 m 513 61 q 712 163 653 61 q 771 443 771 264 q 735 690 771 606 q 638 803 700 774 q 496 833 575 833 q 353 810 418 833 q 249 705 288 788 q 210 443 210 622 q 287 147 210 233 q 513 61 364 61 m 267 1004 l 281 1085 l 742 1085 l 728 1004 l 267 1004 z "},"Ǫ":{"ha":967,"x_min":63,"x_max":904,"o":"m 478 -18 q 168 103 274 -18 q 63 435 63 225 q 178 775 63 633 q 508 917 294 917 q 800 794 696 917 q 904 469 904 671 q 803 124 904 267 q 478 -18 703 -18 m 506 61 q 704 163 644 61 q 764 443 764 264 q 728 690 764 606 q 631 803 693 774 q 489 833 569 833 q 346 810 411 833 q 242 705 281 788 q 203 443 203 622 q 281 147 203 233 q 506 61 358 61 z "},"Ø":{"ha":967,"x_min":63,"x_max":904,"o":"m 249 38 q 63 435 63 146 q 178 775 63 633 q 508 917 294 917 q 621 903 563 917 l 664 1000 l 747 963 l 707 869 q 904 469 904 758 q 803 124 904 267 q 478 -18 703 -18 q 335 0 404 -18 l 292 -100 l 206 -62 l 249 38 m 369 83 q 506 61 426 61 q 704 163 644 61 q 764 443 764 264 q 738 659 764 579 q 668 778 713 739 l 369 83 m 586 822 q 489 833 547 833 q 346 810 411 833 q 242 705 281 788 q 203 443 203 622 q 290 136 203 228 l 586 822 z "},"Ǿ":{"ha":967,"x_min":63,"x_max":904,"o":"m 249 38 q 63 435 63 146 q 178 775 63 633 q 508 917 294 917 q 621 903 563 917 l 664 1000 l 747 963 l 707 869 q 904 469 904 758 q 803 124 904 267 q 478 -18 703 -18 q 335 0 404 -18 l 292 -100 l 206 -62 l 249 38 m 369 83 q 506 61 426 61 q 704 163 644 61 q 764 443 764 264 q 738 659 764 579 q 668 778 713 739 l 369 83 m 586 822 q 489 833 547 833 q 346 810 411 833 q 242 705 281 788 q 203 443 203 622 q 290 136 203 228 l 586 822 z "},"Õ":{"ha":967,"x_min":63,"x_max":904,"o":"m 478 -18 q 168 103 274 -18 q 63 435 63 225 q 178 775 63 633 q 508 917 294 917 q 800 794 696 917 q 904 469 904 671 q 803 124 904 267 q 478 -18 703 -18 m 506 61 q 704 163 644 61 q 764 443 764 264 q 728 690 764 606 q 631 803 693 774 q 489 833 569 833 q 346 810 411 833 q 242 705 281 788 q 203 443 203 622 q 281 147 203 233 q 506 61 358 61 m 603 969 q 557 976 582 969 q 506 990 532 982 l 396 1025 l 285 975 l 253 1011 l 304 1079 q 341 1110 319 1101 q 389 1119 363 1119 q 435 1113 410 1119 q 486 1099 460 1107 l 596 1064 l 707 1114 l 739 1078 l 688 1010 q 651 978 672 988 q 603 969 629 969 z "},"Œ":{"ha":1238,"x_min":63,"x_max":1168,"o":"m 500 0 q 185 96 307 0 q 63 435 63 192 q 183 767 63 633 q 518 900 303 900 l 1156 900 l 1156 672 l 1088 672 l 1058 824 l 890 824 l 754 815 l 754 497 l 974 497 l 994 579 l 1053 579 l 1053 342 l 994 342 l 974 424 l 754 424 l 754 93 q 822 83 781 86 q 903 79 864 79 l 1069 79 l 1100 228 l 1168 228 l 1168 0 l 500 0 m 519 69 q 580 75 550 69 q 635 97 610 81 l 635 803 q 581 819 613 814 q 519 825 550 825 q 369 801 442 825 q 249 697 296 778 q 203 443 203 617 q 288 156 203 242 q 519 69 372 69 z "},"P":{"ha":785,"x_min":76,"x_max":760,"o":"m 76 0 l 76 60 l 192 83 l 192 817 l 76 840 l 76 900 l 422 900 q 665 849 569 900 q 760 672 760 799 q 669 439 760 517 q 429 361 578 361 q 404 361 417 361 q 379 364 392 361 l 372 418 q 562 465 492 418 q 632 631 632 511 q 574 778 632 735 q 421 821 517 821 q 345 817 379 821 q 311 814 311 814 l 311 88 l 465 64 l 465 0 l 76 0 z "},"Þ":{"ha":779,"x_min":82,"x_max":744,"o":"m 82 0 l 82 61 l 196 82 l 196 818 l 82 839 l 82 900 l 431 900 l 431 839 l 317 818 l 317 708 l 440 708 q 667 664 589 708 q 744 496 744 619 q 663 282 744 347 q 425 217 581 217 l 317 217 l 317 82 l 431 61 l 431 0 l 82 0 m 317 286 l 400 286 q 564 325 511 286 q 617 467 617 364 q 569 595 617 561 q 432 629 522 629 q 374 629 403 629 q 317 629 346 629 l 317 286 z "},"Q":{"ha":975,"x_min":63,"x_max":967,"o":"m 542 -60 q 501 -34 526 -49 q 426 -12 475 -19 q 156 118 249 -4 q 63 442 63 240 q 118 676 63 568 q 274 851 174 785 q 508 917 375 917 q 800 797 696 917 q 904 476 904 676 q 880 303 904 397 q 793 128 856 208 q 615 10 731 47 l 821 -119 l 967 -119 l 967 -168 q 919 -192 967 -168 q 821 -217 872 -217 q 721 -187 765 -217 l 542 -60 m 514 63 q 704 167 644 63 q 764 450 764 271 q 728 695 764 613 q 629 806 692 778 q 489 835 567 835 q 347 812 411 835 q 242 707 282 789 q 203 450 203 625 q 285 157 203 251 q 514 63 367 63 z "},"R":{"ha":849,"x_min":76,"x_max":842,"o":"m 76 0 l 76 60 l 192 83 l 192 817 l 76 840 l 76 900 l 471 900 q 667 847 586 900 q 747 678 747 794 q 683 492 747 547 q 551 407 618 436 l 747 86 l 842 60 l 842 0 l 697 0 q 621 42 644 0 l 431 379 l 311 379 l 311 83 l 426 60 l 426 0 l 76 0 m 311 456 l 399 456 q 556 510 494 456 q 617 653 617 564 q 551 794 617 767 q 424 821 485 821 q 311 814 367 821 l 311 456 z "},"Ŕ":{"ha":849,"x_min":76,"x_max":842,"o":"m 76 0 l 76 60 l 192 83 l 192 817 l 76 840 l 76 900 l 471 900 q 667 847 586 900 q 747 678 747 794 q 683 492 747 547 q 551 407 618 436 l 747 86 l 842 60 l 842 0 l 697 0 q 621 42 644 0 l 431 379 l 311 379 l 311 83 l 426 60 l 426 0 l 76 0 m 311 456 l 399 456 q 556 510 494 456 q 617 653 617 564 q 551 794 617 767 q 424 821 485 821 q 311 814 367 821 l 311 456 m 307 946 l 276 994 l 458 1131 q 491 1152 476 1143 q 517 1161 506 1161 q 553 1138 536 1161 q 575 1065 571 1114 l 307 946 z "},"Ř":{"ha":849,"x_min":76,"x_max":842,"o":"m 76 0 l 76 60 l 192 83 l 192 817 l 76 840 l 76 900 l 471 900 q 667 847 586 900 q 747 678 747 794 q 683 492 747 547 q 551 407 618 436 l 747 86 l 842 60 l 842 0 l 697 0 q 621 42 644 0 l 431 379 l 311 379 l 311 83 l 426 60 l 426 0 l 76 0 m 311 456 l 399 456 q 556 510 494 456 q 617 653 617 564 q 551 794 617 767 q 424 821 485 821 q 311 814 367 821 l 311 456 m 418 942 q 376 963 401 942 q 311 1017 351 983 l 208 1101 l 254 1158 l 424 1068 l 599 1156 l 633 1106 l 524 1017 q 454 960 475 978 q 418 942 433 942 z "},"Ŗ":{"ha":849,"x_min":76,"x_max":842,"o":"m 76 0 l 76 60 l 192 83 l 192 817 l 76 840 l 76 900 l 471 900 q 667 847 586 900 q 747 678 747 794 q 683 492 747 547 q 551 407 618 436 l 747 86 l 842 60 l 842 0 l 697 0 q 621 42 644 0 l 431 379 l 311 379 l 311 83 l 426 60 l 426 0 l 76 0 m 401 -260 q 418 -204 411 -229 q 425 -150 425 -179 q 414 -104 425 -124 q 389 -71 403 -85 q 420 -47 403 -54 q 451 -40 438 -40 q 503 -64 488 -40 q 518 -112 518 -87 q 499 -192 518 -158 q 463 -242 481 -225 q 444 -260 444 -260 l 401 -260 m 311 456 l 399 456 q 556 510 494 456 q 617 653 617 564 q 551 794 617 767 q 424 821 485 821 q 311 814 367 821 l 311 456 z "},"Ȑ":{"ha":849,"x_min":76,"x_max":842,"o":"m 76 0 l 76 60 l 192 83 l 192 817 l 76 840 l 76 900 l 471 900 q 667 847 586 900 q 747 678 747 794 q 683 492 747 547 q 551 407 618 436 l 747 86 l 842 60 l 842 0 l 697 0 q 621 42 644 0 l 431 379 l 311 379 l 311 83 l 426 60 l 426 0 l 76 0 m 311 456 l 399 456 q 556 510 494 456 q 617 653 617 564 q 551 794 617 767 q 424 821 485 821 q 311 814 367 821 l 311 456 z "},"Ṛ":{"ha":849,"x_min":76,"x_max":842,"o":"m 76 0 l 76 60 l 192 83 l 192 817 l 76 840 l 76 900 l 471 900 q 667 847 586 900 q 747 678 747 794 q 683 492 747 547 q 551 407 618 436 l 747 86 l 842 60 l 842 0 l 697 0 q 621 42 644 0 l 431 379 l 311 379 l 311 83 l 426 60 l 426 0 l 76 0 m 311 456 l 399 456 q 556 510 494 456 q 617 653 617 564 q 551 794 617 767 q 424 821 485 821 q 311 814 367 821 l 311 456 m 465 -239 q 408 -215 429 -239 q 388 -153 388 -192 q 411 -89 388 -117 q 472 -61 435 -61 q 528 -83 507 -61 q 550 -144 550 -106 q 528 -210 550 -182 q 465 -239 506 -239 z "},"Ȓ":{"ha":849,"x_min":76,"x_max":842,"o":"m 76 0 l 76 60 l 192 83 l 192 817 l 76 840 l 76 900 l 471 900 q 667 847 586 900 q 747 678 747 794 q 683 492 747 547 q 551 407 618 436 l 747 86 l 842 60 l 842 0 l 697 0 q 621 42 644 0 l 431 379 l 311 379 l 311 83 l 426 60 l 426 0 l 76 0 m 311 456 l 399 456 q 556 510 494 456 q 617 653 617 564 q 551 794 617 767 q 424 821 485 821 q 311 814 367 821 l 311 456 m 535 961 q 524 985 535 961 q 489 1032 514 1008 q 418 1056 464 1056 q 332 1032 364 1056 q 287 985 300 1008 q 274 961 274 961 l 231 972 q 246 1014 231 972 q 303 1098 261 1056 q 422 1140 344 1140 q 554 1100 513 1140 q 607 1019 596 1060 q 618 979 618 979 l 535 961 z "},"S":{"ha":714,"x_min":81,"x_max":651,"o":"m 347 -14 q 188 10 265 -14 q 81 61 111 33 l 81 260 l 156 260 l 176 121 q 253 82 207 97 q 339 67 300 67 q 487 101 442 67 q 532 225 532 135 q 475 339 532 303 q 344 403 418 375 q 222 452 283 425 q 122 528 161 479 q 82 663 82 576 q 162 847 82 778 q 379 917 242 917 q 519 904 447 917 q 614 882 590 892 l 614 672 l 546 672 l 519 803 q 479 819 519 803 q 375 835 439 835 q 236 797 269 835 q 203 701 203 758 q 272 581 203 617 q 424 514 340 544 q 580 429 508 482 q 651 256 651 376 q 605 99 651 158 q 488 13 558 39 q 347 -14 418 -14 z "},"Ś":{"ha":714,"x_min":81,"x_max":651,"o":"m 276 946 l 246 994 l 428 1131 q 460 1152 446 1143 q 486 1161 475 1161 q 523 1138 506 1161 q 544 1065 540 1114 l 276 946 m 347 -14 q 188 10 265 -14 q 81 61 111 33 l 81 260 l 156 260 l 176 121 q 253 82 207 97 q 339 67 300 67 q 487 101 442 67 q 532 225 532 135 q 475 339 532 303 q 344 403 418 375 q 222 452 283 425 q 122 528 161 479 q 82 663 82 576 q 162 847 82 778 q 379 917 242 917 q 519 904 447 917 q 614 882 590 892 l 614 672 l 546 672 l 519 803 q 479 819 519 803 q 375 835 439 835 q 236 797 269 835 q 203 701 203 758 q 272 581 203 617 q 424 514 340 544 q 580 429 508 482 q 651 256 651 376 q 605 99 651 158 q 488 13 558 39 q 347 -14 418 -14 z "},"Ꞌ":{"ha":175,"x_min":26,"x_max":149,"o":"m 26 897 q 100 915 68 915 q 142 897 135 915 q 149 863 149 878 q 145 813 149 843 q 132 738 142 783 l 82 493 l 26 493 l 26 897 z "},"Š":{"ha":714,"x_min":81,"x_max":651,"o":"m 360 942 q 318 963 343 942 q 253 1017 293 983 l 150 1101 l 196 1158 l 365 1068 l 540 1156 l 575 1106 l 465 1017 q 396 960 417 978 q 360 942 375 942 m 347 -14 q 188 10 265 -14 q 81 61 111 33 l 81 260 l 156 260 l 176 121 q 253 82 207 97 q 339 67 300 67 q 487 101 442 67 q 532 225 532 135 q 475 339 532 303 q 344 403 418 375 q 222 452 283 425 q 122 528 161 479 q 82 663 82 576 q 162 847 82 778 q 379 917 242 917 q 519 904 447 917 q 614 882 590 892 l 614 672 l 546 672 l 519 803 q 479 819 519 803 q 375 835 439 835 q 236 797 269 835 q 203 701 203 758 q 272 581 203 617 q 424 514 340 544 q 580 429 508 482 q 651 256 651 376 q 605 99 651 158 q 488 13 558 39 q 347 -14 418 -14 z "},"Ş":{"ha":714,"x_min":81,"x_max":651,"o":"m 335 -260 q 279 -253 303 -260 q 232 -237 256 -247 l 254 -186 q 288 -197 269 -192 q 329 -201 306 -201 q 411 -160 411 -201 q 400 -130 411 -136 q 368 -119 389 -124 l 317 -108 l 290 -82 l 319 -12 q 176 13 243 -8 q 81 61 108 35 l 81 260 l 156 260 l 176 121 q 253 82 207 97 q 339 67 300 67 q 484 99 436 67 q 532 225 532 131 q 478 338 532 301 q 353 400 425 374 q 228 449 290 422 q 124 526 165 476 q 82 663 82 575 q 162 847 82 778 q 379 917 242 917 q 519 904 447 917 q 614 882 590 892 l 614 672 l 546 672 l 519 803 q 375 835 461 835 q 236 797 269 835 q 203 701 203 758 q 266 585 203 621 q 408 521 329 550 q 574 435 497 488 q 651 256 651 383 q 566 58 651 119 q 382 -12 481 -4 l 382 -40 l 406 -46 q 475 -72 444 -56 q 506 -133 506 -87 q 451 -233 506 -206 q 335 -260 397 -260 z "},"Ŝ":{"ha":714,"x_min":81,"x_max":651,"o":"m 347 -14 q 188 10 265 -14 q 81 61 111 33 l 81 260 l 156 260 l 176 121 q 253 82 207 97 q 339 67 300 67 q 487 101 442 67 q 532 225 532 135 q 475 339 532 303 q 344 403 418 375 q 222 452 283 425 q 122 528 161 479 q 82 663 82 576 q 162 847 82 778 q 379 917 242 917 q 519 904 447 917 q 614 882 590 892 l 614 672 l 546 672 l 519 803 q 479 819 519 803 q 375 835 439 835 q 236 797 269 835 q 203 701 203 758 q 272 581 203 617 q 424 514 340 544 q 580 429 508 482 q 651 256 651 376 q 605 99 651 158 q 488 13 558 39 q 347 -14 418 -14 z "},"Ș":{"ha":714,"x_min":81,"x_max":651,"o":"m 347 -14 q 188 10 265 -14 q 81 61 111 33 l 81 260 l 156 260 l 176 121 q 253 82 207 97 q 339 67 300 67 q 487 101 442 67 q 532 225 532 135 q 476 339 532 303 q 347 401 419 375 q 224 452 286 425 q 122 527 163 479 q 82 663 82 575 q 162 847 82 778 q 379 917 242 917 q 519 904 447 917 q 614 882 590 892 l 614 672 l 546 672 l 519 803 q 375 835 461 835 q 236 797 269 835 q 203 701 203 758 q 267 584 203 619 q 411 518 331 549 q 575 433 499 485 q 651 256 651 381 q 605 99 651 158 q 488 13 558 39 q 347 -14 418 -14 m 313 -260 q 329 -204 322 -229 q 336 -150 336 -179 q 325 -104 336 -124 q 300 -71 314 -85 q 331 -47 314 -54 q 363 -40 349 -40 q 414 -64 399 -40 q 429 -112 429 -87 q 410 -192 429 -158 q 374 -242 392 -225 q 356 -260 356 -260 l 313 -260 z "},"Ṣ":{"ha":714,"x_min":81,"x_max":651,"o":"m 347 -14 q 188 10 265 -14 q 81 61 111 33 l 81 260 l 156 260 l 176 121 q 253 82 207 97 q 339 67 300 67 q 487 101 442 67 q 532 225 532 135 q 475 339 532 303 q 344 403 418 375 q 222 452 283 425 q 122 528 161 479 q 82 663 82 576 q 162 847 82 778 q 379 917 242 917 q 519 904 447 917 q 614 882 590 892 l 614 672 l 546 672 l 519 803 q 479 819 519 803 q 375 835 439 835 q 236 797 269 835 q 203 701 203 758 q 272 581 203 617 q 424 514 340 544 q 580 429 508 482 q 651 256 651 376 q 605 99 651 158 q 488 13 558 39 q 347 -14 418 -14 m 353 -239 q 296 -215 317 -239 q 275 -153 275 -192 q 299 -89 275 -117 q 360 -61 322 -61 q 416 -83 394 -61 q 438 -144 438 -106 q 415 -210 438 -182 q 353 -239 393 -239 z "},"ẞ":{"ha":1022,"x_min":63,"x_max":960,"o":"m 701 -14 q 585 6 646 -14 q 500 47 525 25 l 500 246 l 575 246 l 596 107 q 636 82 607 97 q 711 67 665 67 q 810 108 781 67 q 840 214 840 150 q 807 330 840 289 q 718 387 774 371 q 597 403 663 403 l 531 403 l 531 485 l 738 789 l 738 813 q 653 828 697 822 q 569 835 610 835 q 354 747 413 835 q 296 514 296 660 l 296 82 l 411 61 l 411 0 l 63 0 l 63 61 l 176 82 l 176 475 q 278 795 176 674 q 597 917 379 917 q 682 913 633 917 q 785 900 731 908 q 890 878 839 892 l 890 792 l 683 501 l 683 488 q 874 430 789 483 q 960 246 960 376 q 878 52 960 118 q 701 -14 796 -14 z "},"Ə":{"ha":924,"x_min":63,"x_max":861,"o":"m 456 -18 q 163 104 263 -18 q 63 431 63 226 q 63 468 63 451 q 65 500 64 485 l 719 500 q 638 746 711 653 q 435 839 564 839 q 286 813 331 839 q 242 788 242 788 l 214 646 l 146 646 l 146 857 q 256 896 188 875 q 451 917 325 917 q 861 463 861 917 q 765 124 861 267 q 456 -18 669 -18 m 471 61 q 661 151 604 61 q 721 424 718 242 l 203 424 q 276 146 206 231 q 471 61 347 61 z "},"T":{"ha":751,"x_min":21,"x_max":731,"o":"m 201 61 l 315 82 l 315 819 l 118 819 l 89 672 l 21 672 l 21 900 l 731 900 l 731 672 l 663 672 l 635 819 l 436 819 l 436 82 l 550 61 l 550 0 l 201 0 l 201 61 z "},"Ŧ":{"ha":751,"x_min":21,"x_max":731,"o":"m 69 424 l 69 503 l 682 503 l 682 424 l 69 424 m 201 61 l 315 82 l 315 819 l 118 819 l 89 672 l 21 672 l 21 900 l 731 900 l 731 672 l 663 672 l 635 819 l 436 819 l 436 82 l 550 61 l 550 0 l 201 0 l 201 61 z "},"Ť":{"ha":751,"x_min":21,"x_max":731,"o":"m 201 61 l 315 82 l 315 819 l 118 819 l 89 672 l 21 672 l 21 900 l 731 900 l 731 672 l 663 672 l 635 819 l 436 819 l 436 82 l 550 61 l 550 0 l 201 0 l 201 61 m 206 1158 l 375 1068 l 550 1156 l 585 1106 l 475 1017 q 406 960 428 978 q 369 942 383 942 q 328 963 353 942 q 263 1017 303 983 l 160 1101 l 206 1158 z "},"Ţ":{"ha":751,"x_min":21,"x_max":731,"o":"m 360 -260 q 304 -253 328 -260 q 257 -237 281 -247 l 279 -186 q 313 -197 294 -192 q 354 -201 331 -201 q 436 -160 436 -201 q 425 -130 436 -136 q 393 -119 414 -124 l 342 -108 l 315 -82 l 350 0 l 201 0 l 201 61 l 315 82 l 315 819 l 118 819 l 89 672 l 21 672 l 21 900 l 731 900 l 731 672 l 663 672 l 635 819 l 436 819 l 436 82 l 550 61 l 550 0 l 407 0 l 407 -40 l 431 -46 q 500 -72 469 -56 q 531 -133 531 -87 q 476 -233 531 -206 q 360 -260 422 -260 z "},"Ț":{"ha":751,"x_min":21,"x_max":731,"o":"m 201 0 l 201 61 l 315 82 l 315 819 l 118 819 l 89 672 l 21 672 l 21 900 l 731 900 l 731 672 l 663 672 l 635 819 l 436 819 l 436 82 l 550 61 l 550 0 l 201 0 m 325 -260 q 342 -204 336 -229 q 349 -150 349 -179 q 338 -104 349 -124 q 313 -71 328 -85 q 344 -47 328 -54 q 375 -40 361 -40 q 426 -64 411 -40 q 442 -112 442 -87 q 424 -192 442 -158 q 387 -242 406 -225 q 368 -260 368 -260 l 325 -260 z "},"Ṭ":{"ha":751,"x_min":21,"x_max":731,"o":"m 201 61 l 315 82 l 315 819 l 118 819 l 89 672 l 21 672 l 21 900 l 731 900 l 731 672 l 663 672 l 635 819 l 436 819 l 436 82 l 550 61 l 550 0 l 201 0 l 201 61 m 372 -239 q 315 -215 336 -239 q 294 -153 294 -192 q 318 -89 294 -117 q 379 -61 342 -61 q 435 -83 414 -61 q 457 -144 457 -106 q 435 -210 457 -182 q 372 -239 413 -239 z "},"U":{"ha":1017,"x_min":63,"x_max":968,"o":"m 176 818 l 63 839 l 63 900 l 411 900 l 411 839 l 297 818 l 297 386 q 346 138 297 201 q 542 74 394 74 q 718 153 672 74 q 764 386 764 233 l 764 815 l 650 838 l 650 900 l 968 900 l 968 838 l 854 815 l 854 386 q 785 85 854 189 q 499 -18 715 -18 q 239 83 301 -18 q 176 386 176 185 l 176 818 z "},"Ú":{"ha":1017,"x_min":63,"x_max":968,"o":"m 499 -18 q 239 83 301 -18 q 176 386 176 185 l 176 818 l 63 839 l 63 900 l 411 900 l 411 839 l 297 818 l 297 386 q 346 138 297 201 q 542 74 394 74 q 718 153 672 74 q 764 386 764 233 l 764 815 l 650 838 l 650 900 l 968 900 l 968 838 l 854 815 l 854 386 q 785 85 854 189 q 499 -18 715 -18 m 443 946 l 413 994 l 594 1131 q 627 1152 613 1143 q 653 1161 642 1161 q 690 1138 672 1161 q 711 1065 707 1114 l 443 946 z "},"Ŭ":{"ha":1017,"x_min":63,"x_max":968,"o":"m 176 818 l 63 839 l 63 900 l 411 900 l 411 839 l 297 818 l 297 386 q 346 138 297 201 q 542 74 394 74 q 718 153 672 74 q 764 386 764 233 l 764 815 l 650 838 l 650 900 l 968 900 l 968 838 l 854 815 l 854 386 q 785 85 854 189 q 499 -18 715 -18 q 239 83 301 -18 q 176 386 176 185 l 176 818 z "},"Ǔ":{"ha":1017,"x_min":63,"x_max":968,"o":"m 176 818 l 63 839 l 63 900 l 411 900 l 411 839 l 297 818 l 297 386 q 346 138 297 201 q 542 74 394 74 q 718 153 672 74 q 764 386 764 233 l 764 815 l 650 838 l 650 900 l 968 900 l 968 838 l 854 815 l 854 386 q 785 85 854 189 q 499 -18 715 -18 q 239 83 301 -18 q 176 386 176 185 l 176 818 z "},"Û":{"ha":1017,"x_min":63,"x_max":968,"o":"m 176 818 l 63 839 l 63 900 l 411 900 l 411 839 l 297 818 l 297 386 q 346 138 297 201 q 542 74 394 74 q 718 153 672 74 q 764 386 764 233 l 764 815 l 650 838 l 650 900 l 968 900 l 968 838 l 854 815 l 854 386 q 785 85 854 189 q 499 -18 715 -18 q 239 83 301 -18 q 176 386 176 185 l 176 818 m 314 994 l 424 1083 q 493 1140 472 1122 q 529 1158 514 1158 q 571 1138 546 1158 q 636 1083 596 1117 l 739 999 l 693 942 l 524 1032 l 349 944 l 314 994 z "},"Ȕ":{"ha":1017,"x_min":63,"x_max":968,"o":"m 176 818 l 63 839 l 63 900 l 411 900 l 411 839 l 297 818 l 297 386 q 346 138 297 201 q 542 74 394 74 q 718 153 672 74 q 764 386 764 233 l 764 815 l 650 838 l 650 900 l 968 900 l 968 838 l 854 815 l 854 386 q 785 85 854 189 q 499 -18 715 -18 q 239 83 301 -18 q 176 386 176 185 l 176 818 z "},"Ü":{"ha":1017,"x_min":63,"x_max":968,"o":"m 499 -18 q 239 83 301 -18 q 176 386 176 185 l 176 818 l 63 839 l 63 900 l 411 900 l 411 839 l 297 818 l 297 386 q 346 138 297 201 q 542 74 394 74 q 718 153 672 74 q 764 386 764 233 l 764 815 l 650 838 l 650 900 l 968 900 l 968 838 l 854 815 l 854 386 q 785 85 854 189 q 499 -18 715 -18 m 383 976 q 332 998 351 976 q 313 1054 313 1019 q 333 1113 313 1088 q 389 1138 354 1138 q 440 1117 421 1138 q 460 1063 460 1097 q 440 1002 460 1028 q 383 976 419 976 m 676 976 q 625 998 644 976 q 606 1054 606 1019 q 626 1113 606 1088 q 682 1138 647 1138 q 733 1117 714 1138 q 753 1063 753 1097 q 733 1002 753 1028 q 676 976 713 976 z "},"Ǘ":{"ha":1017,"x_min":63,"x_max":968,"o":"m 176 818 l 63 839 l 63 900 l 411 900 l 411 839 l 297 818 l 297 386 q 346 138 297 201 q 542 74 394 74 q 718 153 672 74 q 764 386 764 233 l 764 815 l 650 838 l 650 900 l 968 900 l 968 838 l 854 815 l 854 386 q 785 85 854 189 q 499 -18 715 -18 q 239 83 301 -18 q 176 386 176 185 l 176 818 z "},"Ǚ":{"ha":1017,"x_min":63,"x_max":968,"o":"m 176 818 l 63 839 l 63 900 l 411 900 l 411 839 l 297 818 l 297 386 q 346 138 297 201 q 542 74 394 74 q 718 153 672 74 q 764 386 764 233 l 764 815 l 650 838 l 650 900 l 968 900 l 968 838 l 854 815 l 854 386 q 785 85 854 189 q 499 -18 715 -18 q 239 83 301 -18 q 176 386 176 185 l 176 818 z "},"Ǜ":{"ha":1017,"x_min":63,"x_max":968,"o":"m 176 818 l 63 839 l 63 900 l 411 900 l 411 839 l 297 818 l 297 386 q 346 138 297 201 q 542 74 394 74 q 718 153 672 74 q 764 386 764 233 l 764 815 l 650 838 l 650 900 l 968 900 l 968 838 l 854 815 l 854 386 q 785 85 854 189 q 499 -18 715 -18 q 239 83 301 -18 q 176 386 176 185 l 176 818 z "},"Ǖ":{"ha":1017,"x_min":63,"x_max":968,"o":"m 176 818 l 63 839 l 63 900 l 411 900 l 411 839 l 297 818 l 297 386 q 346 138 297 201 q 542 74 394 74 q 718 153 672 74 q 764 386 764 233 l 764 815 l 650 838 l 650 900 l 968 900 l 968 838 l 854 815 l 854 386 q 785 85 854 189 q 499 -18 715 -18 q 239 83 301 -18 q 176 386 176 185 l 176 818 z "},"Ụ":{"ha":1017,"x_min":63,"x_max":968,"o":"m 176 818 l 63 839 l 63 900 l 411 900 l 411 839 l 297 818 l 297 386 q 346 138 297 201 q 542 74 394 74 q 718 153 672 74 q 764 386 764 233 l 764 815 l 650 838 l 650 900 l 968 900 l 968 838 l 854 815 l 854 386 q 785 85 854 189 q 499 -18 715 -18 q 239 83 301 -18 q 176 386 176 185 l 176 818 m 504 -239 q 447 -215 468 -239 q 426 -153 426 -192 q 450 -89 426 -117 q 511 -61 474 -61 q 567 -83 546 -61 q 589 -144 589 -106 q 567 -210 589 -182 q 504 -239 544 -239 z "},"Ù":{"ha":1017,"x_min":63,"x_max":968,"o":"m 499 -18 q 239 83 301 -18 q 176 386 176 185 l 176 818 l 63 839 l 63 900 l 411 900 l 411 839 l 297 818 l 297 386 q 346 138 297 201 q 542 74 394 74 q 718 153 672 74 q 764 386 764 233 l 764 815 l 650 838 l 650 900 l 968 900 l 968 838 l 854 815 l 854 386 q 785 85 854 189 q 499 -18 715 -18 m 608 946 l 340 1065 q 362 1138 344 1114 q 399 1161 379 1161 q 424 1152 410 1161 q 457 1131 439 1143 l 639 994 l 608 946 z "},"Ủ":{"ha":1017,"x_min":63,"x_max":968,"o":"m 176 818 l 63 839 l 63 900 l 411 900 l 411 839 l 297 818 l 297 386 q 346 138 297 201 q 542 74 394 74 q 718 153 672 74 q 764 386 764 233 l 764 815 l 650 838 l 650 900 l 968 900 l 968 838 l 854 815 l 854 386 q 785 85 854 189 q 499 -18 715 -18 q 239 83 301 -18 q 176 386 176 185 l 176 818 m 468 940 q 461 965 461 957 q 514 1015 461 996 q 551 1036 540 1025 q 563 1063 563 1047 q 494 1090 563 1090 q 407 1079 454 1090 q 397 1103 400 1093 q 394 1124 394 1114 q 408 1153 394 1142 q 478 1165 422 1165 q 608 1141 560 1165 q 657 1068 657 1117 q 576 976 657 1001 q 544 959 550 968 q 539 940 539 950 l 468 940 z "},"Ư":{"ha":1017,"x_min":63,"x_max":1097,"o":"m 499 -18 q 239 83 301 -18 q 176 386 176 185 l 176 818 l 63 839 l 63 900 l 411 900 l 411 839 l 297 818 l 297 386 q 346 138 297 201 q 542 74 394 74 q 718 153 672 74 q 764 386 764 233 l 764 815 l 650 838 l 650 900 l 918 900 q 984 912 963 900 q 1006 956 1006 924 q 976 1003 1006 982 l 976 1024 l 1053 1078 q 1082 1051 1067 1067 q 1097 992 1097 1035 q 1050 904 1097 961 q 854 811 1003 847 l 854 386 q 785 85 854 189 q 499 -18 715 -18 z "},"Ứ":{"ha":1017,"x_min":63,"x_max":1097,"o":"m 499 -18 q 239 83 301 -18 q 176 386 176 185 l 176 818 l 63 839 l 63 900 l 411 900 l 411 839 l 297 818 l 297 386 q 346 138 297 201 q 542 74 394 74 q 718 153 672 74 q 764 386 764 233 l 764 815 l 650 838 l 650 900 l 918 900 q 984 912 963 900 q 1006 956 1006 924 q 976 1003 1006 982 l 976 1024 l 1053 1078 q 1082 1051 1067 1067 q 1097 992 1097 1035 q 1050 904 1097 961 q 854 811 1003 847 l 854 386 q 785 85 854 189 q 499 -18 715 -18 z "},"Ự":{"ha":1017,"x_min":63,"x_max":1097,"o":"m 499 -18 q 239 83 301 -18 q 176 386 176 185 l 176 818 l 63 839 l 63 900 l 411 900 l 411 839 l 297 818 l 297 386 q 346 138 297 201 q 542 74 394 74 q 718 153 672 74 q 764 386 764 233 l 764 815 l 650 838 l 650 900 l 918 900 q 984 912 963 900 q 1006 956 1006 924 q 976 1003 1006 982 l 976 1024 l 1053 1078 q 1082 1051 1067 1067 q 1097 992 1097 1035 q 1050 904 1097 961 q 854 811 1003 847 l 854 386 q 785 85 854 189 q 499 -18 715 -18 m 504 -239 q 447 -215 468 -239 q 426 -153 426 -192 q 450 -89 426 -117 q 511 -61 474 -61 q 567 -83 546 -61 q 589 -144 589 -106 q 567 -210 589 -182 q 504 -239 544 -239 z "},"Ừ":{"ha":1017,"x_min":63,"x_max":1097,"o":"m 499 -18 q 239 83 301 -18 q 176 386 176 185 l 176 818 l 63 839 l 63 900 l 411 900 l 411 839 l 297 818 l 297 386 q 346 138 297 201 q 542 74 394 74 q 718 153 672 74 q 764 386 764 233 l 764 815 l 650 838 l 650 900 l 918 900 q 984 912 963 900 q 1006 956 1006 924 q 976 1003 1006 982 l 976 1024 l 1053 1078 q 1082 1051 1067 1067 q 1097 992 1097 1035 q 1050 904 1097 961 q 854 811 1003 847 l 854 386 q 785 85 854 189 q 499 -18 715 -18 z "},"Ử":{"ha":1017,"x_min":63,"x_max":1097,"o":"m 499 -18 q 239 83 301 -18 q 176 386 176 185 l 176 818 l 63 839 l 63 900 l 411 900 l 411 839 l 297 818 l 297 386 q 346 138 297 201 q 542 74 394 74 q 718 153 672 74 q 764 386 764 233 l 764 815 l 650 838 l 650 900 l 918 900 q 984 912 963 900 q 1006 956 1006 924 q 976 1003 1006 982 l 976 1024 l 1053 1078 q 1082 1051 1067 1067 q 1097 992 1097 1035 q 1050 904 1097 961 q 854 811 1003 847 l 854 386 q 785 85 854 189 q 499 -18 715 -18 m 468 940 q 461 965 461 957 q 514 1015 461 996 q 551 1036 540 1025 q 563 1063 563 1047 q 494 1090 563 1090 q 407 1079 454 1090 q 397 1103 400 1093 q 394 1124 394 1114 q 408 1153 394 1142 q 478 1165 422 1165 q 608 1141 560 1165 q 657 1068 657 1117 q 576 976 657 1001 q 544 959 550 968 q 539 940 539 950 l 468 940 z "},"Ữ":{"ha":1017,"x_min":63,"x_max":1097,"o":"m 499 -18 q 239 83 301 -18 q 176 386 176 185 l 176 818 l 63 839 l 63 900 l 411 900 l 411 839 l 297 818 l 297 386 q 346 138 297 201 q 542 74 394 74 q 718 153 672 74 q 764 386 764 233 l 764 815 l 650 838 l 650 900 l 918 900 q 984 912 963 900 q 1006 956 1006 924 q 976 1003 1006 982 l 976 1024 l 1053 1078 q 1082 1051 1067 1067 q 1097 992 1097 1035 q 1050 904 1097 961 q 854 811 1003 847 l 854 386 q 785 85 854 189 q 499 -18 715 -18 z "},"Ű":{"ha":1017,"x_min":63,"x_max":968,"o":"m 499 -18 q 239 83 301 -18 q 176 386 176 185 l 176 818 l 63 839 l 63 900 l 411 900 l 411 839 l 297 818 l 297 386 q 346 138 297 201 q 542 74 394 74 q 718 153 672 74 q 764 386 764 233 l 764 815 l 650 838 l 650 900 l 968 900 l 968 838 l 854 815 l 854 386 q 785 85 854 189 q 499 -18 715 -18 m 347 939 l 308 976 l 418 1119 q 453 1156 439 1147 q 483 1164 468 1164 q 519 1142 503 1164 q 547 1081 536 1121 l 347 939 m 603 939 l 564 976 l 674 1119 q 709 1156 694 1147 q 739 1164 724 1164 q 775 1142 758 1164 q 803 1081 792 1121 l 603 939 z "},"Ȗ":{"ha":1017,"x_min":63,"x_max":968,"o":"m 176 818 l 63 839 l 63 900 l 411 900 l 411 839 l 297 818 l 297 386 q 346 138 297 201 q 542 74 394 74 q 718 153 672 74 q 764 386 764 233 l 764 815 l 650 838 l 650 900 l 968 900 l 968 838 l 854 815 l 854 386 q 785 85 854 189 q 499 -18 715 -18 q 239 83 301 -18 q 176 386 176 185 l 176 818 m 618 961 q 608 985 618 961 q 572 1032 597 1008 q 501 1056 547 1056 q 415 1032 447 1056 q 370 985 383 1008 q 357 961 357 961 l 314 972 q 329 1014 314 972 q 386 1098 344 1056 q 506 1140 428 1140 q 638 1100 596 1140 q 690 1019 679 1060 q 701 979 701 979 l 618 961 z "},"Ū":{"ha":1017,"x_min":63,"x_max":968,"o":"m 176 818 l 63 839 l 63 900 l 411 900 l 411 839 l 297 818 l 297 386 q 346 138 297 201 q 542 74 394 74 q 718 153 672 74 q 764 386 764 233 l 764 815 l 650 838 l 650 900 l 968 900 l 968 838 l 854 815 l 854 386 q 785 85 854 189 q 499 -18 715 -18 q 239 83 301 -18 q 176 386 176 185 l 176 818 m 303 1085 l 764 1085 l 750 1004 l 289 1004 l 303 1085 z "},"Ų":{"ha":1017,"x_min":63,"x_max":968,"o":"m 622 -260 q 540 -234 572 -260 q 507 -157 507 -208 q 533 -74 507 -110 q 593 -12 558 -37 q 548 -17 571 -15 q 499 -18 525 -18 q 239 83 301 -18 q 176 386 176 185 l 176 818 l 63 839 l 63 900 l 411 900 l 411 839 l 297 818 l 297 386 q 346 138 297 201 q 542 74 394 74 q 718 153 672 74 q 764 386 764 233 l 764 815 l 650 838 l 650 900 l 968 900 l 968 838 l 854 815 l 854 386 q 822 154 854 247 q 700 18 790 61 q 642 -31 686 8 q 599 -115 599 -69 q 658 -176 599 -176 q 697 -167 675 -176 q 738 -147 718 -158 l 763 -189 q 705 -235 743 -211 q 622 -260 667 -260 z "},"Ů":{"ha":1017,"x_min":63,"x_max":968,"o":"m 176 818 l 63 839 l 63 900 l 411 900 l 411 839 l 297 818 l 297 386 q 346 138 297 201 q 542 74 394 74 q 718 153 672 74 q 764 386 764 233 l 764 815 l 650 838 l 650 900 l 968 900 l 968 838 l 854 815 l 854 386 q 785 85 854 189 q 499 -18 715 -18 q 239 83 301 -18 q 176 386 176 185 l 176 818 m 408 1018 q 447 1113 408 1082 q 538 1143 485 1143 q 625 1117 589 1143 q 661 1028 661 1090 q 621 931 661 961 q 529 901 581 901 q 442 928 476 901 q 408 1018 408 954 m 536 961 q 582 975 569 961 q 594 1021 594 989 q 585 1067 594 1050 q 536 1083 575 1083 q 488 1069 501 1083 q 475 1024 475 1056 q 485 977 475 993 q 536 961 496 961 z "},"Ũ":{"ha":1017,"x_min":63,"x_max":968,"o":"m 176 818 l 63 839 l 63 900 l 411 900 l 411 839 l 297 818 l 297 386 q 346 138 297 201 q 542 74 394 74 q 718 153 672 74 q 764 386 764 233 l 764 815 l 650 838 l 650 900 l 968 900 l 968 838 l 854 815 l 854 386 q 785 85 854 189 q 499 -18 715 -18 q 239 83 301 -18 q 176 386 176 185 l 176 818 z "},"V":{"ha":836,"x_min":-12,"x_max":849,"o":"m 393 -7 l 72 821 l -12 843 l -12 900 l 321 900 l 321 843 l 217 821 l 217 800 l 428 215 l 444 168 l 464 221 l 667 796 l 667 821 l 556 843 l 556 900 l 849 900 l 849 843 l 767 821 l 461 -7 l 393 -7 z "},"W":{"ha":1313,"x_min":0,"x_max":1313,"o":"m 356 -7 l 85 821 l 0 843 l 0 900 l 333 900 l 333 843 l 229 821 l 229 796 l 404 211 l 418 167 l 422 167 l 438 213 l 614 715 l 575 821 l 472 843 l 472 900 l 824 900 l 824 843 l 719 821 l 719 796 l 931 213 l 946 169 l 953 169 l 965 213 l 1131 796 l 1131 821 l 1019 843 l 1019 900 l 1313 900 l 1313 843 l 1231 821 l 975 -7 l 893 -7 l 671 563 l 663 585 l 653 585 l 643 558 l 438 -7 l 356 -7 z "},"Ẃ":{"ha":1313,"x_min":0,"x_max":1313,"o":"m 356 -7 l 85 821 l 0 843 l 0 900 l 333 900 l 333 843 l 229 821 l 229 796 l 404 211 l 418 167 l 422 167 l 438 213 l 614 715 l 575 821 l 472 843 l 472 900 l 824 900 l 824 843 l 719 821 l 719 796 l 931 213 l 946 169 l 953 169 l 965 213 l 1131 796 l 1131 821 l 1019 843 l 1019 900 l 1313 900 l 1313 843 l 1231 821 l 975 -7 l 893 -7 l 671 563 l 663 585 l 653 585 l 643 558 l 438 -7 l 356 -7 z "},"Ŵ":{"ha":1313,"x_min":0,"x_max":1313,"o":"m 356 -7 l 85 821 l 0 843 l 0 900 l 333 900 l 333 843 l 229 821 l 229 796 l 404 211 l 418 167 l 422 167 l 438 213 l 614 715 l 575 821 l 472 843 l 472 900 l 824 900 l 824 843 l 719 821 l 719 796 l 931 213 l 946 169 l 953 169 l 965 213 l 1131 796 l 1131 821 l 1019 843 l 1019 900 l 1313 900 l 1313 843 l 1231 821 l 975 -7 l 893 -7 l 671 563 l 663 585 l 653 585 l 643 558 l 438 -7 l 356 -7 z "},"Ẅ":{"ha":1313,"x_min":0,"x_max":1313,"o":"m 356 -7 l 85 821 l 0 843 l 0 900 l 333 900 l 333 843 l 229 821 l 229 796 l 404 211 l 418 167 l 422 167 l 438 213 l 614 715 l 575 821 l 472 843 l 472 900 l 824 900 l 824 843 l 719 821 l 719 796 l 931 213 l 946 169 l 953 169 l 965 213 l 1131 796 l 1131 821 l 1019 843 l 1019 900 l 1313 900 l 1313 843 l 1231 821 l 975 -7 l 893 -7 l 671 563 l 663 585 l 653 585 l 643 558 l 438 -7 l 356 -7 z "},"Ẁ":{"ha":1313,"x_min":0,"x_max":1313,"o":"m 356 -7 l 85 821 l 0 843 l 0 900 l 333 900 l 333 843 l 229 821 l 229 796 l 404 211 l 418 167 l 422 167 l 438 213 l 614 715 l 575 821 l 472 843 l 472 900 l 824 900 l 824 843 l 719 821 l 719 796 l 931 213 l 946 169 l 953 169 l 965 213 l 1131 796 l 1131 821 l 1019 843 l 1019 900 l 1313 900 l 1313 843 l 1231 821 l 975 -7 l 893 -7 l 671 563 l 663 585 l 653 585 l 643 558 l 438 -7 l 356 -7 z "},"X":{"ha":824,"x_min":7,"x_max":844,"o":"m 7 63 l 94 81 l 349 449 l 99 808 l 11 838 l 11 900 l 347 900 l 347 838 l 264 819 l 264 793 l 433 547 l 611 797 l 611 822 l 515 840 l 515 900 l 822 900 l 822 842 l 731 822 l 481 475 l 746 82 l 844 63 l 844 0 l 494 0 l 494 63 l 592 82 l 592 99 l 397 378 l 206 103 l 206 78 l 296 60 l 296 0 l 7 0 l 7 63 z "},"Y":{"ha":811,"x_min":-1,"x_max":831,"o":"m 249 61 l 363 82 l 363 322 l 85 821 l -1 843 l -1 900 l 333 900 l 333 843 l 229 821 l 229 796 l 431 415 l 450 415 l 647 796 l 647 821 l 538 843 l 538 900 l 831 900 l 831 843 l 747 821 l 483 339 l 483 82 l 597 61 l 597 0 l 249 0 l 249 61 z "},"Ý":{"ha":811,"x_min":-7,"x_max":825,"o":"m 243 0 l 243 61 l 357 82 l 357 322 l 79 821 l -7 843 l -7 900 l 328 900 l 328 843 l 224 821 l 224 796 l 425 415 l 444 415 l 642 796 l 642 821 l 532 843 l 532 900 l 825 900 l 825 843 l 742 821 l 478 339 l 478 82 l 592 61 l 592 0 l 243 0 m 339 946 l 308 994 l 490 1131 q 523 1152 508 1143 q 549 1161 538 1161 q 585 1138 568 1161 q 607 1065 603 1114 l 339 946 z "},"Ŷ":{"ha":811,"x_min":-1,"x_max":831,"o":"m 249 61 l 363 82 l 363 322 l 85 821 l -1 843 l -1 900 l 333 900 l 333 843 l 229 821 l 229 796 l 431 415 l 450 415 l 647 796 l 647 821 l 538 843 l 538 900 l 831 900 l 831 843 l 747 821 l 483 339 l 483 82 l 597 61 l 597 0 l 249 0 l 249 61 z "},"Ÿ":{"ha":811,"x_min":-7,"x_max":825,"o":"m 243 61 l 357 82 l 357 322 l 79 821 l -7 843 l -7 900 l 328 900 l 328 843 l 224 821 l 224 796 l 425 415 l 444 415 l 642 796 l 642 821 l 532 843 l 532 900 l 825 900 l 825 843 l 742 821 l 478 339 l 478 82 l 592 61 l 592 0 l 243 0 l 243 61 m 281 964 q 229 985 249 964 q 210 1042 210 1007 q 231 1100 210 1075 q 286 1125 251 1125 q 338 1105 318 1125 q 357 1050 357 1085 q 337 990 357 1015 q 281 964 317 964 m 574 964 q 522 985 542 964 q 503 1042 503 1007 q 524 1100 503 1075 q 579 1125 544 1125 q 631 1105 611 1125 q 650 1050 650 1085 q 630 990 650 1015 q 574 964 610 964 z "},"Ỵ":{"ha":811,"x_min":-1,"x_max":831,"o":"m 249 61 l 363 82 l 363 322 l 85 821 l -1 843 l -1 900 l 333 900 l 333 843 l 229 821 l 229 796 l 431 415 l 450 415 l 647 796 l 647 821 l 538 843 l 538 900 l 831 900 l 831 843 l 747 821 l 483 339 l 483 82 l 597 61 l 597 0 l 249 0 l 249 61 m 419 -239 q 363 -215 383 -239 q 342 -153 342 -192 q 365 -89 342 -117 q 426 -61 389 -61 q 483 -83 461 -61 q 504 -144 504 -106 q 482 -210 504 -182 q 419 -239 460 -239 z "},"Ỳ":{"ha":811,"x_min":-1,"x_max":831,"o":"m 249 61 l 363 82 l 363 322 l 85 821 l -1 843 l -1 900 l 333 900 l 333 843 l 229 821 l 229 796 l 431 415 l 450 415 l 647 796 l 647 821 l 538 843 l 538 900 l 831 900 l 831 843 l 747 821 l 483 339 l 483 82 l 597 61 l 597 0 l 249 0 l 249 61 z "},"Ỷ":{"ha":811,"x_min":-1,"x_max":831,"o":"m 249 61 l 363 82 l 363 322 l 85 821 l -1 843 l -1 900 l 333 900 l 333 843 l 229 821 l 229 796 l 431 415 l 450 415 l 647 796 l 647 821 l 538 843 l 538 900 l 831 900 l 831 843 l 747 821 l 483 339 l 483 82 l 597 61 l 597 0 l 249 0 l 249 61 m 396 940 q 389 965 389 957 q 442 1015 389 996 q 479 1036 468 1025 q 490 1063 490 1047 q 422 1090 490 1090 q 335 1079 382 1090 q 325 1103 328 1093 q 322 1124 322 1114 q 336 1153 322 1142 q 406 1165 350 1165 q 536 1141 488 1165 q 585 1068 585 1117 q 504 976 585 1001 q 472 959 478 968 q 467 940 467 950 l 396 940 z "},"Ȳ":{"ha":811,"x_min":-1,"x_max":831,"o":"m 249 61 l 363 82 l 363 322 l 85 821 l -1 843 l -1 900 l 333 900 l 333 843 l 229 821 l 229 796 l 431 415 l 450 415 l 647 796 l 647 821 l 538 843 l 538 900 l 831 900 l 831 843 l 747 821 l 483 339 l 483 82 l 597 61 l 597 0 l 249 0 l 249 61 z "},"Ỹ":{"ha":811,"x_min":-1,"x_max":831,"o":"m 249 61 l 363 82 l 363 322 l 85 821 l -1 843 l -1 900 l 333 900 l 333 843 l 229 821 l 229 796 l 431 415 l 450 415 l 647 796 l 647 821 l 538 843 l 538 900 l 831 900 l 831 843 l 747 821 l 483 339 l 483 82 l 597 61 l 597 0 l 249 0 l 249 61 z "},"Z":{"ha":776,"x_min":49,"x_max":728,"o":"m 49 82 l 549 792 l 549 818 l 171 818 l 131 674 l 63 674 l 63 900 l 715 900 l 715 808 l 201 99 l 201 82 l 619 82 l 660 226 l 728 226 l 728 0 l 49 0 l 49 82 z "},"Ź":{"ha":776,"x_min":49,"x_max":728,"o":"m 49 0 l 49 82 l 549 792 l 549 818 l 171 818 l 131 674 l 63 674 l 63 900 l 715 900 l 715 808 l 201 99 l 201 82 l 619 82 l 660 226 l 728 226 l 728 0 l 49 0 m 300 946 l 269 994 l 451 1131 q 484 1152 469 1143 q 510 1161 499 1161 q 547 1138 529 1161 q 568 1065 564 1114 l 300 946 z "},"Ž":{"ha":776,"x_min":49,"x_max":728,"o":"m 49 82 l 549 792 l 549 818 l 171 818 l 131 674 l 63 674 l 63 900 l 715 900 l 715 808 l 201 99 l 201 82 l 619 82 l 660 226 l 728 226 l 728 0 l 49 0 l 49 82 m 222 1158 l 392 1068 l 567 1156 l 601 1106 l 492 1017 q 422 960 444 978 q 386 942 400 942 q 344 963 369 942 q 279 1017 319 983 l 176 1101 l 222 1158 z "},"Ż":{"ha":776,"x_min":49,"x_max":728,"o":"m 49 82 l 549 792 l 549 818 l 171 818 l 131 674 l 63 674 l 63 900 l 715 900 l 715 808 l 201 99 l 201 82 l 619 82 l 660 226 l 728 226 l 728 0 l 49 0 l 49 82 m 378 954 q 321 978 342 954 q 300 1040 300 1001 q 324 1104 300 1076 q 385 1132 347 1132 q 441 1110 419 1132 q 463 1049 463 1088 q 440 983 463 1011 q 378 954 418 954 z "},"Ẓ":{"ha":776,"x_min":49,"x_max":728,"o":"m 49 82 l 549 792 l 549 818 l 171 818 l 131 674 l 63 674 l 63 900 l 715 900 l 715 808 l 201 99 l 201 82 l 619 82 l 660 226 l 728 226 l 728 0 l 49 0 l 49 82 m 385 -239 q 328 -215 349 -239 q 307 -153 307 -192 q 331 -89 307 -117 q 392 -61 354 -61 q 448 -83 426 -61 q 469 -144 469 -106 q 447 -210 469 -182 q 385 -239 425 -239 z "},"a":{"ha":667,"x_min":53,"x_max":639,"o":"m 250 -10 q 99 42 144 -10 q 53 163 53 94 q 115 301 53 249 q 301 372 176 354 l 426 390 l 426 494 q 391 583 426 556 q 290 611 356 611 q 229 606 254 611 q 204 600 204 600 l 183 472 q 173 467 183 472 q 139 463 163 463 q 95 480 115 463 q 75 526 75 497 q 131 622 75 583 q 253 681 186 661 q 358 700 321 700 q 494 653 449 700 q 540 540 540 606 l 540 94 l 639 75 l 639 22 q 597 8 639 22 q 500 -6 556 -6 q 449 15 461 -6 q 433 58 436 36 l 428 58 q 367 18 417 46 q 250 -10 317 -10 m 303 78 q 391 90 356 78 q 426 103 426 103 l 426 324 q 236 282 297 314 q 175 183 175 250 q 208 109 175 140 q 303 78 240 78 z "},"á":{"ha":660,"x_min":46,"x_max":632,"o":"m 243 -10 q 91 42 136 -10 q 46 163 46 94 q 108 301 46 249 q 294 372 169 354 l 419 390 l 419 494 q 384 583 419 556 q 283 611 349 611 q 222 606 247 611 q 197 600 197 600 l 176 472 q 166 467 176 472 q 132 463 156 463 q 88 480 108 463 q 68 526 68 497 q 123 622 68 583 q 246 681 178 661 q 351 700 314 700 q 488 653 442 700 q 533 540 533 606 l 533 94 l 632 75 l 632 22 q 591 8 632 22 q 493 -6 550 -6 q 441 15 454 -6 q 426 58 428 36 l 421 58 q 360 18 410 46 q 243 -10 310 -10 m 296 78 q 383 90 347 78 q 419 103 419 103 l 419 324 q 229 282 290 314 q 168 183 168 250 q 201 109 168 140 q 296 78 233 78 m 231 743 l 192 785 l 343 953 q 373 984 360 972 q 401 996 386 996 q 440 974 419 996 q 472 910 460 953 l 231 743 z "},"ă":{"ha":660,"x_min":46,"x_max":632,"o":"m 243 -10 q 91 42 136 -10 q 46 163 46 94 q 108 301 46 249 q 294 372 169 354 l 419 390 l 419 494 q 384 583 419 556 q 283 611 349 611 q 222 606 247 611 q 197 600 197 600 l 176 472 q 166 467 176 472 q 132 463 156 463 q 88 480 108 463 q 68 526 68 497 q 123 622 68 583 q 246 681 178 661 q 351 700 314 700 q 488 653 442 700 q 533 540 533 606 l 533 94 l 632 75 l 632 22 q 591 8 632 22 q 493 -6 550 -6 q 441 15 454 -6 q 426 58 428 36 l 421 58 q 360 18 410 46 q 243 -10 310 -10 m 296 78 q 383 90 347 78 q 419 103 419 103 l 419 324 q 229 282 290 314 q 168 183 168 250 q 201 109 168 140 q 296 78 233 78 m 310 768 q 165 817 210 768 q 108 914 119 865 q 97 963 97 963 l 168 981 q 176 950 168 981 q 217 889 185 919 q 319 858 250 858 q 420 890 389 858 q 460 952 451 921 q 469 983 469 983 l 517 972 q 512 942 517 972 q 488 870 507 911 q 427 799 469 829 q 310 768 385 768 z "},"ắ":{"ha":667,"x_min":53,"x_max":639,"o":"m 250 -10 q 99 42 144 -10 q 53 163 53 94 q 115 301 53 249 q 301 372 176 354 l 426 390 l 426 494 q 391 583 426 556 q 290 611 356 611 q 229 606 254 611 q 204 600 204 600 l 183 472 q 173 467 183 472 q 139 463 163 463 q 95 480 115 463 q 75 526 75 497 q 131 622 75 583 q 253 681 186 661 q 358 700 321 700 q 494 653 449 700 q 540 540 540 606 l 540 94 l 639 75 l 639 22 q 597 8 639 22 q 500 -6 556 -6 q 449 15 461 -6 q 433 58 436 36 l 428 58 q 367 18 417 46 q 250 -10 317 -10 m 303 78 q 391 90 356 78 q 426 103 426 103 l 426 324 q 236 282 297 314 q 175 183 175 250 q 208 109 175 140 q 303 78 240 78 z "},"ặ":{"ha":667,"x_min":53,"x_max":639,"o":"m 250 -10 q 99 42 144 -10 q 53 163 53 94 q 115 301 53 249 q 301 372 176 354 l 426 390 l 426 494 q 391 583 426 556 q 290 611 356 611 q 229 606 254 611 q 204 600 204 600 l 183 472 q 173 467 183 472 q 139 463 163 463 q 95 480 115 463 q 75 526 75 497 q 131 622 75 583 q 253 681 186 661 q 358 700 321 700 q 494 653 449 700 q 540 540 540 606 l 540 94 l 639 75 l 639 22 q 597 8 639 22 q 500 -6 556 -6 q 449 15 461 -6 q 433 58 436 36 l 428 58 q 367 18 417 46 q 250 -10 317 -10 m 303 78 q 391 90 356 78 q 426 103 426 103 l 426 324 q 236 282 297 314 q 175 183 175 250 q 208 109 175 140 q 303 78 240 78 m 329 -239 q 272 -215 293 -239 q 251 -153 251 -192 q 275 -89 251 -117 q 336 -61 299 -61 q 392 -83 371 -61 q 414 -144 414 -106 q 392 -210 414 -182 q 329 -239 369 -239 z "},"ằ":{"ha":667,"x_min":53,"x_max":639,"o":"m 250 -10 q 99 42 144 -10 q 53 163 53 94 q 115 301 53 249 q 301 372 176 354 l 426 390 l 426 494 q 391 583 426 556 q 290 611 356 611 q 229 606 254 611 q 204 600 204 600 l 183 472 q 173 467 183 472 q 139 463 163 463 q 95 480 115 463 q 75 526 75 497 q 131 622 75 583 q 253 681 186 661 q 358 700 321 700 q 494 653 449 700 q 540 540 540 606 l 540 94 l 639 75 l 639 22 q 597 8 639 22 q 500 -6 556 -6 q 449 15 461 -6 q 433 58 436 36 l 428 58 q 367 18 417 46 q 250 -10 317 -10 m 303 78 q 391 90 356 78 q 426 103 426 103 l 426 324 q 236 282 297 314 q 175 183 175 250 q 208 109 175 140 q 303 78 240 78 z "},"ẳ":{"ha":667,"x_min":53,"x_max":639,"o":"m 250 -10 q 99 42 144 -10 q 53 163 53 94 q 115 301 53 249 q 301 372 176 354 l 426 390 l 426 494 q 391 583 426 556 q 290 611 356 611 q 229 606 254 611 q 204 600 204 600 l 183 472 q 173 467 183 472 q 139 463 163 463 q 95 480 115 463 q 75 526 75 497 q 131 622 75 583 q 253 681 186 661 q 358 700 321 700 q 494 653 449 700 q 540 540 540 606 l 540 94 l 639 75 l 639 22 q 597 8 639 22 q 500 -6 556 -6 q 449 15 461 -6 q 433 58 436 36 l 428 58 q 367 18 417 46 q 250 -10 317 -10 m 303 78 q 391 90 356 78 q 426 103 426 103 l 426 324 q 236 282 297 314 q 175 183 175 250 q 208 109 175 140 q 303 78 240 78 z "},"ẵ":{"ha":667,"x_min":53,"x_max":639,"o":"m 250 -10 q 99 42 144 -10 q 53 163 53 94 q 115 301 53 249 q 301 372 176 354 l 426 390 l 426 494 q 391 583 426 556 q 290 611 356 611 q 229 606 254 611 q 204 600 204 600 l 183 472 q 173 467 183 472 q 139 463 163 463 q 95 480 115 463 q 75 526 75 497 q 131 622 75 583 q 253 681 186 661 q 358 700 321 700 q 494 653 449 700 q 540 540 540 606 l 540 94 l 639 75 l 639 22 q 597 8 639 22 q 500 -6 556 -6 q 449 15 461 -6 q 433 58 436 36 l 428 58 q 367 18 417 46 q 250 -10 317 -10 m 303 78 q 391 90 356 78 q 426 103 426 103 l 426 324 q 236 282 297 314 q 175 183 175 250 q 208 109 175 140 q 303 78 240 78 z "},"ǎ":{"ha":667,"x_min":53,"x_max":639,"o":"m 250 -10 q 99 42 144 -10 q 53 163 53 94 q 115 301 53 249 q 301 372 176 354 l 426 390 l 426 494 q 391 583 426 556 q 290 611 356 611 q 229 606 254 611 q 204 600 204 600 l 183 472 q 173 467 183 472 q 139 463 163 463 q 95 480 115 463 q 75 526 75 497 q 131 622 75 583 q 253 681 186 661 q 358 700 321 700 q 494 653 449 700 q 540 540 540 606 l 540 94 l 639 75 l 639 22 q 597 8 639 22 q 500 -6 556 -6 q 449 15 461 -6 q 433 58 436 36 l 428 58 q 367 18 417 46 q 250 -10 317 -10 m 303 78 q 391 90 356 78 q 426 103 426 103 l 426 324 q 236 282 297 314 q 175 183 175 250 q 208 109 175 140 q 303 78 240 78 z "},"â":{"ha":660,"x_min":46,"x_max":632,"o":"m 243 -10 q 91 42 136 -10 q 46 163 46 94 q 108 301 46 249 q 294 372 169 354 l 419 390 l 419 494 q 384 583 419 556 q 283 611 349 611 q 222 606 247 611 q 197 600 197 600 l 176 472 q 166 467 176 472 q 132 463 156 463 q 88 480 108 463 q 68 526 68 497 q 123 622 68 583 q 246 681 178 661 q 351 700 314 700 q 488 653 442 700 q 533 540 533 606 l 533 94 l 632 75 l 632 22 q 591 8 632 22 q 493 -6 550 -6 q 441 15 454 -6 q 426 58 428 36 l 421 58 q 360 18 410 46 q 243 -10 310 -10 m 296 78 q 383 90 347 78 q 419 103 419 103 l 419 324 q 229 282 290 314 q 168 183 168 250 q 201 109 168 140 q 296 78 233 78 m 471 756 l 307 872 l 147 757 l 108 801 l 256 949 q 291 976 275 967 q 319 986 307 986 q 344 979 331 986 q 372 957 357 972 l 519 804 l 471 756 z "},"ấ":{"ha":667,"x_min":53,"x_max":689,"o":"m 250 -10 q 99 42 144 -10 q 53 163 53 94 q 115 301 53 249 q 301 372 176 354 l 426 390 l 426 494 q 391 583 426 556 q 290 611 356 611 q 229 606 254 611 q 204 600 204 600 l 183 472 q 173 467 183 472 q 139 463 163 463 q 95 480 115 463 q 75 526 75 497 q 131 622 75 583 q 253 681 186 661 q 358 700 321 700 q 494 653 449 700 q 540 540 540 606 l 540 94 l 639 75 l 639 22 q 597 8 639 22 q 500 -6 556 -6 q 449 15 461 -6 q 433 58 436 36 l 428 58 q 367 18 417 46 q 250 -10 317 -10 m 303 78 q 391 90 356 78 q 426 103 426 103 l 426 324 q 236 282 297 314 q 175 183 175 250 q 208 109 175 140 q 303 78 240 78 z "},"ậ":{"ha":667,"x_min":53,"x_max":639,"o":"m 250 -10 q 99 42 144 -10 q 53 163 53 94 q 115 301 53 249 q 301 372 176 354 l 426 390 l 426 494 q 391 583 426 556 q 290 611 356 611 q 229 606 254 611 q 204 600 204 600 l 183 472 q 173 467 183 472 q 139 463 163 463 q 95 480 115 463 q 75 526 75 497 q 131 622 75 583 q 253 681 186 661 q 358 700 321 700 q 494 653 449 700 q 540 540 540 606 l 540 94 l 639 75 l 639 22 q 597 8 639 22 q 500 -6 556 -6 q 449 15 461 -6 q 433 58 436 36 l 428 58 q 367 18 417 46 q 250 -10 317 -10 m 303 78 q 391 90 356 78 q 426 103 426 103 l 426 324 q 236 282 297 314 q 175 183 175 250 q 208 109 175 140 q 303 78 240 78 m 329 -239 q 272 -215 293 -239 q 251 -153 251 -192 q 275 -89 251 -117 q 336 -61 299 -61 q 392 -83 371 -61 q 414 -144 414 -106 q 392 -210 414 -182 q 329 -239 369 -239 z "},"ầ":{"ha":667,"x_min":53,"x_max":639,"o":"m 250 -10 q 99 42 144 -10 q 53 163 53 94 q 115 301 53 249 q 301 372 176 354 l 426 390 l 426 494 q 391 583 426 556 q 290 611 356 611 q 229 606 254 611 q 204 600 204 600 l 183 472 q 173 467 183 472 q 139 463 163 463 q 95 480 115 463 q 75 526 75 497 q 131 622 75 583 q 253 681 186 661 q 358 700 321 700 q 494 653 449 700 q 540 540 540 606 l 540 94 l 639 75 l 639 22 q 597 8 639 22 q 500 -6 556 -6 q 449 15 461 -6 q 433 58 436 36 l 428 58 q 367 18 417 46 q 250 -10 317 -10 m 303 78 q 391 90 356 78 q 426 103 426 103 l 426 324 q 236 282 297 314 q 175 183 175 250 q 208 109 175 140 q 303 78 240 78 z "},"ẩ":{"ha":667,"x_min":53,"x_max":639,"o":"m 250 -10 q 99 42 144 -10 q 53 163 53 94 q 115 301 53 249 q 301 372 176 354 l 426 390 l 426 494 q 391 583 426 556 q 290 611 356 611 q 229 606 254 611 q 204 600 204 600 l 183 472 q 173 467 183 472 q 139 463 163 463 q 95 480 115 463 q 75 526 75 497 q 131 622 75 583 q 253 681 186 661 q 358 700 321 700 q 494 653 449 700 q 540 540 540 606 l 540 94 l 639 75 l 639 22 q 597 8 639 22 q 500 -6 556 -6 q 449 15 461 -6 q 433 58 436 36 l 428 58 q 367 18 417 46 q 250 -10 317 -10 m 303 78 q 391 90 356 78 q 426 103 426 103 l 426 324 q 236 282 297 314 q 175 183 175 250 q 208 109 175 140 q 303 78 240 78 z "},"ẫ":{"ha":667,"x_min":53,"x_max":639,"o":"m 250 -10 q 99 42 144 -10 q 53 163 53 94 q 115 301 53 249 q 301 372 176 354 l 426 390 l 426 494 q 391 583 426 556 q 290 611 356 611 q 229 606 254 611 q 204 600 204 600 l 183 472 q 173 467 183 472 q 139 463 163 463 q 95 480 115 463 q 75 526 75 497 q 131 622 75 583 q 253 681 186 661 q 358 700 321 700 q 494 653 449 700 q 540 540 540 606 l 540 94 l 639 75 l 639 22 q 597 8 639 22 q 500 -6 556 -6 q 449 15 461 -6 q 433 58 436 36 l 428 58 q 367 18 417 46 q 250 -10 317 -10 m 303 78 q 391 90 356 78 q 426 103 426 103 l 426 324 q 236 282 297 314 q 175 183 175 250 q 208 109 175 140 q 303 78 240 78 z "},"ȁ":{"ha":667,"x_min":53,"x_max":639,"o":"m 250 -10 q 99 42 144 -10 q 53 163 53 94 q 115 301 53 249 q 301 372 176 354 l 426 390 l 426 494 q 391 583 426 556 q 290 611 356 611 q 229 606 254 611 q 204 600 204 600 l 183 472 q 173 467 183 472 q 139 463 163 463 q 95 480 115 463 q 75 526 75 497 q 131 622 75 583 q 253 681 186 661 q 358 700 321 700 q 494 653 449 700 q 540 540 540 606 l 540 94 l 639 75 l 639 22 q 597 8 639 22 q 500 -6 556 -6 q 449 15 461 -6 q 433 58 436 36 l 428 58 q 367 18 417 46 q 250 -10 317 -10 m 303 78 q 391 90 356 78 q 426 103 426 103 l 426 324 q 236 282 297 314 q 175 183 175 250 q 208 109 175 140 q 303 78 240 78 z "},"ä":{"ha":660,"x_min":46,"x_max":632,"o":"m 243 -10 q 91 42 136 -10 q 46 163 46 94 q 108 301 46 249 q 294 372 169 354 l 419 390 l 419 494 q 384 583 419 556 q 283 611 349 611 q 222 606 247 611 q 197 600 197 600 l 176 472 q 166 467 176 472 q 132 463 156 463 q 88 480 108 463 q 68 526 68 497 q 123 622 68 583 q 246 681 178 661 q 351 700 314 700 q 488 653 442 700 q 533 540 533 606 l 533 94 l 632 75 l 632 22 q 591 8 632 22 q 493 -6 550 -6 q 441 15 454 -6 q 426 58 428 36 l 421 58 q 360 18 410 46 q 243 -10 310 -10 m 296 78 q 383 90 347 78 q 419 103 419 103 l 419 324 q 229 282 290 314 q 168 183 168 250 q 201 109 168 140 q 296 78 233 78 m 150 799 q 99 820 118 799 q 79 876 79 842 q 100 935 79 910 q 156 960 121 960 q 207 940 188 960 q 226 885 226 919 q 206 824 226 850 q 150 799 186 799 m 443 799 q 392 820 411 799 q 372 876 372 842 q 393 935 372 910 q 449 960 414 960 q 500 940 481 960 q 519 885 519 919 q 499 824 519 850 q 443 799 479 799 z "},"ạ":{"ha":667,"x_min":53,"x_max":639,"o":"m 250 -10 q 99 42 144 -10 q 53 163 53 94 q 115 301 53 249 q 301 372 176 354 l 426 390 l 426 494 q 391 583 426 556 q 290 611 356 611 q 229 606 254 611 q 204 600 204 600 l 183 472 q 173 467 183 472 q 139 463 163 463 q 95 480 115 463 q 75 526 75 497 q 131 622 75 583 q 253 681 186 661 q 358 700 321 700 q 494 653 449 700 q 540 540 540 606 l 540 94 l 639 75 l 639 22 q 597 8 639 22 q 500 -6 556 -6 q 449 15 461 -6 q 433 58 436 36 l 428 58 q 367 18 417 46 q 250 -10 317 -10 m 303 78 q 391 90 356 78 q 426 103 426 103 l 426 324 q 236 282 297 314 q 175 183 175 250 q 208 109 175 140 q 303 78 240 78 m 329 -239 q 272 -215 293 -239 q 251 -153 251 -192 q 275 -89 251 -117 q 336 -61 299 -61 q 392 -83 371 -61 q 414 -144 414 -106 q 392 -210 414 -182 q 329 -239 369 -239 z "},"à":{"ha":660,"x_min":46,"x_max":632,"o":"m 243 -10 q 91 42 136 -10 q 46 163 46 94 q 108 301 46 249 q 294 372 169 354 l 419 390 l 419 494 q 384 583 419 556 q 283 611 349 611 q 222 606 247 611 q 197 600 197 600 l 176 472 q 166 467 176 472 q 132 463 156 463 q 88 480 108 463 q 68 526 68 497 q 123 622 68 583 q 246 681 178 661 q 351 700 314 700 q 488 653 442 700 q 533 540 533 606 l 533 94 l 632 75 l 632 22 q 591 8 632 22 q 493 -6 550 -6 q 441 15 454 -6 q 426 58 428 36 l 421 58 q 360 18 410 46 q 243 -10 310 -10 m 296 78 q 383 90 347 78 q 419 103 419 103 l 419 324 q 229 282 290 314 q 168 183 168 250 q 201 109 168 140 q 296 78 233 78 m 406 743 l 164 910 q 197 974 176 953 q 235 996 217 996 q 263 984 250 996 q 293 953 276 972 l 444 785 l 406 743 z "},"ả":{"ha":667,"x_min":53,"x_max":639,"o":"m 250 -10 q 99 42 144 -10 q 53 163 53 94 q 115 301 53 249 q 301 372 176 354 l 426 390 l 426 494 q 391 583 426 556 q 290 611 356 611 q 229 606 254 611 q 204 600 204 600 l 183 472 q 173 467 183 472 q 139 463 163 463 q 95 480 115 463 q 75 526 75 497 q 131 622 75 583 q 253 681 186 661 q 358 700 321 700 q 494 653 449 700 q 540 540 540 606 l 540 94 l 639 75 l 639 22 q 597 8 639 22 q 500 -6 556 -6 q 449 15 461 -6 q 433 58 436 36 l 428 58 q 367 18 417 46 q 250 -10 317 -10 m 303 78 q 391 90 356 78 q 426 103 426 103 l 426 324 q 236 282 297 314 q 175 183 175 250 q 208 109 175 140 q 303 78 240 78 m 299 744 q 286 789 286 772 q 339 844 286 821 q 376 869 365 858 q 388 894 388 879 q 319 931 388 931 q 232 919 279 931 q 222 943 225 933 q 219 964 219 953 q 233 994 219 983 q 303 1006 247 1006 q 433 976 385 1006 q 482 892 482 947 q 401 803 482 838 q 369 782 374 792 q 364 760 364 772 q 364 757 364 758 q 364 753 364 756 l 299 744 z "},"ȃ":{"ha":667,"x_min":53,"x_max":639,"o":"m 250 -10 q 99 42 144 -10 q 53 163 53 94 q 115 301 53 249 q 301 372 176 354 l 426 390 l 426 494 q 391 583 426 556 q 290 611 356 611 q 229 606 254 611 q 204 600 204 600 l 183 472 q 173 467 183 472 q 139 463 163 463 q 95 480 115 463 q 75 526 75 497 q 131 622 75 583 q 253 681 186 661 q 358 700 321 700 q 494 653 449 700 q 540 540 540 606 l 540 94 l 639 75 l 639 22 q 597 8 639 22 q 500 -6 556 -6 q 449 15 461 -6 q 433 58 436 36 l 428 58 q 367 18 417 46 q 250 -10 317 -10 m 303 78 q 391 90 356 78 q 426 103 426 103 l 426 324 q 236 282 297 314 q 175 183 175 250 q 208 109 175 140 q 303 78 240 78 m 472 771 q 464 801 472 771 q 423 863 456 832 q 321 893 390 893 q 220 862 251 893 q 180 799 189 831 q 171 768 171 768 l 124 779 q 128 810 124 779 q 152 881 133 840 q 213 953 171 922 q 331 983 256 983 q 476 935 431 983 q 532 838 521 886 q 543 789 543 789 l 472 771 z "},"ā":{"ha":660,"x_min":46,"x_max":632,"o":"m 243 -10 q 91 42 136 -10 q 46 163 46 94 q 108 301 46 249 q 294 372 169 354 l 419 390 l 419 494 q 384 583 419 556 q 283 611 349 611 q 222 606 247 611 q 197 600 197 600 l 176 472 q 166 467 176 472 q 132 463 156 463 q 88 480 108 463 q 68 526 68 497 q 123 622 68 583 q 246 681 178 661 q 351 700 314 700 q 488 653 442 700 q 533 540 533 606 l 533 94 l 632 75 l 632 22 q 591 8 632 22 q 493 -6 550 -6 q 441 15 454 -6 q 426 58 428 36 l 421 58 q 360 18 410 46 q 243 -10 310 -10 m 296 78 q 383 90 347 78 q 419 103 419 103 l 419 324 q 229 282 290 314 q 168 183 168 250 q 201 109 168 140 q 296 78 233 78 m 68 842 l 82 921 l 543 921 l 529 842 l 68 842 z "},"ą":{"ha":660,"x_min":46,"x_max":632,"o":"m 482 -260 q 399 -234 432 -260 q 367 -157 367 -208 q 397 -67 367 -106 q 467 -1 428 -28 q 436 23 444 6 q 426 58 428 40 l 421 58 q 360 18 410 46 q 243 -10 310 -10 q 91 42 136 -10 q 46 163 46 94 q 108 301 46 249 q 294 372 169 354 l 419 390 l 419 494 q 384 583 419 556 q 283 611 349 611 q 222 606 247 611 q 197 600 197 600 l 176 472 q 166 467 176 472 q 132 463 156 463 q 88 480 108 463 q 68 526 68 497 q 123 622 68 583 q 246 681 178 661 q 351 700 314 700 q 488 653 442 700 q 533 540 533 606 l 533 94 l 632 75 l 632 22 q 603 12 632 22 q 532 -3 574 1 q 483 -52 508 -22 q 458 -115 458 -82 q 518 -176 458 -176 q 556 -167 535 -176 q 597 -147 578 -158 l 622 -189 q 582 -224 622 -189 q 482 -260 542 -260 m 296 78 q 383 90 347 78 q 419 103 419 103 l 419 324 q 229 282 290 314 q 168 183 168 250 q 201 109 168 140 q 296 78 233 78 z "},"å":{"ha":660,"x_min":46,"x_max":632,"o":"m 243 -10 q 91 42 136 -10 q 46 163 46 94 q 108 301 46 249 q 294 372 169 354 l 419 390 l 419 494 q 384 583 419 556 q 283 611 349 611 q 222 606 247 611 q 197 600 197 600 l 176 472 q 166 467 176 472 q 132 463 156 463 q 88 480 108 463 q 68 526 68 497 q 123 622 68 583 q 246 681 178 661 q 351 700 314 700 q 488 653 442 700 q 533 540 533 606 l 533 94 l 632 75 l 632 22 q 591 8 632 22 q 493 -6 550 -6 q 441 15 454 -6 q 426 58 428 36 l 421 58 q 360 18 410 46 q 243 -10 310 -10 m 296 78 q 383 90 347 78 q 419 103 419 103 l 419 324 q 229 282 290 314 q 168 183 168 250 q 201 109 168 140 q 296 78 233 78 m 304 743 q 210 777 240 743 q 179 864 179 811 q 213 956 179 917 q 314 996 247 996 q 408 960 376 996 q 439 872 439 925 q 403 781 439 819 q 304 743 368 743 m 310 803 q 364 869 364 803 q 350 921 364 908 q 307 933 336 933 q 253 869 253 933 q 266 816 253 829 q 310 803 279 803 z "},"ǻ":{"ha":667,"x_min":53,"x_max":639,"o":"m 250 -10 q 99 42 144 -10 q 53 163 53 94 q 115 301 53 249 q 301 372 176 354 l 426 390 l 426 494 q 391 583 426 556 q 290 611 356 611 q 229 606 254 611 q 204 600 204 600 l 183 472 q 173 467 183 472 q 139 463 163 463 q 95 480 115 463 q 75 526 75 497 q 131 622 75 583 q 253 681 186 661 q 358 700 321 700 q 494 653 449 700 q 540 540 540 606 l 540 94 l 639 75 l 639 22 q 597 8 639 22 q 500 -6 556 -6 q 449 15 461 -6 q 433 58 436 36 l 428 58 q 367 18 417 46 q 250 -10 317 -10 m 303 78 q 391 90 356 78 q 426 103 426 103 l 426 324 q 236 282 297 314 q 175 183 175 250 q 208 109 175 140 q 303 78 240 78 z "},"ã":{"ha":660,"x_min":46,"x_max":632,"o":"m 243 -10 q 91 42 136 -10 q 46 163 46 94 q 108 301 46 249 q 294 372 169 354 l 419 390 l 419 494 q 384 583 419 556 q 283 611 349 611 q 222 606 247 611 q 197 600 197 600 l 176 472 q 166 467 176 472 q 132 463 156 463 q 88 480 108 463 q 68 526 68 497 q 123 622 68 583 q 246 681 178 661 q 351 700 314 700 q 488 653 442 700 q 533 540 533 606 l 533 94 l 632 75 l 632 22 q 591 8 632 22 q 493 -6 550 -6 q 441 15 454 -6 q 426 58 428 36 l 421 58 q 360 18 410 46 q 243 -10 310 -10 m 296 78 q 383 90 347 78 q 419 103 419 103 l 419 324 q 229 282 290 314 q 168 183 168 250 q 201 109 168 140 q 296 78 233 78 m 407 797 q 360 804 386 797 q 308 818 335 811 l 192 853 l 97 806 l 67 833 l 106 899 q 193 949 135 949 q 240 942 214 949 q 292 928 265 935 l 408 893 l 503 940 l 533 913 l 494 847 q 407 797 465 797 z "},"æ":{"ha":1022,"x_min":63,"x_max":971,"o":"m 435 376 l 435 486 q 400 575 435 547 q 300 603 365 603 q 240 598 264 603 q 215 593 215 593 l 185 472 q 174 467 185 472 q 143 463 164 463 q 101 476 118 463 q 83 525 83 489 q 139 622 83 583 q 263 681 194 661 q 368 700 331 700 q 469 674 426 700 q 533 606 513 647 q 733 700 613 700 q 879 658 828 700 q 951 540 931 617 q 971 361 971 464 q 960 333 971 342 q 931 324 950 325 l 557 310 q 567 207 557 258 q 613 120 576 156 q 729 85 649 85 q 879 96 824 85 q 935 107 935 107 l 947 61 q 922 43 947 61 q 847 6 896 25 q 726 -12 797 -12 q 596 12 650 -12 q 507 81 542 36 q 408 17 467 43 q 260 -10 350 -10 q 108 42 153 -10 q 63 163 63 94 q 128 308 63 251 q 311 369 194 364 l 435 376 m 851 399 q 856 457 856 424 q 823 578 856 550 q 714 607 790 607 q 591 541 625 607 q 557 382 557 475 l 851 399 m 435 304 q 244 276 303 303 q 185 189 185 250 q 214 111 185 146 q 310 76 243 76 q 398 95 361 76 q 435 114 435 114 l 435 304 z "},"ǽ":{"ha":1022,"x_min":63,"x_max":971,"o":"m 435 376 l 435 486 q 400 575 435 547 q 300 603 365 603 q 240 598 264 603 q 215 593 215 593 l 185 472 q 174 467 185 472 q 143 463 164 463 q 101 476 118 463 q 83 525 83 489 q 139 622 83 583 q 263 681 194 661 q 368 700 331 700 q 469 674 426 700 q 533 606 513 647 q 733 700 613 700 q 879 658 828 700 q 951 540 931 617 q 971 361 971 464 q 960 333 971 342 q 931 324 950 325 l 557 310 q 567 207 557 258 q 613 120 576 156 q 729 85 649 85 q 879 96 824 85 q 935 107 935 107 l 947 61 q 922 43 947 61 q 847 6 896 25 q 726 -12 797 -12 q 596 12 650 -12 q 507 81 542 36 q 408 17 467 43 q 260 -10 350 -10 q 108 42 153 -10 q 63 163 63 94 q 128 308 63 251 q 311 369 194 364 l 435 376 m 851 399 q 856 457 856 424 q 823 578 856 550 q 714 607 790 607 q 591 541 625 607 q 557 382 557 475 l 851 399 m 435 304 q 244 276 303 303 q 185 189 185 250 q 214 111 185 146 q 310 76 243 76 q 398 95 361 76 q 435 114 435 114 l 435 304 z "},"b":{"ha":719,"x_min":-14,"x_max":664,"o":"m 371 -12 q 262 12 303 -12 q 207 49 221 36 l 196 49 l 157 -4 l 100 -4 l 100 861 l -14 879 l -14 933 l 176 971 l 214 951 l 214 660 l 214 638 l 214 628 q 282 673 233 646 q 407 700 331 700 q 590 626 517 700 q 664 383 664 551 q 576 88 664 188 q 371 -12 489 -12 m 354 68 q 489 129 439 68 q 539 344 539 190 q 499 540 539 478 q 357 603 458 603 q 272 595 310 603 q 214 582 233 588 l 214 96 q 272 78 232 89 q 354 68 311 68 z "},"c":{"ha":610,"x_min":35,"x_max":561,"o":"m 554 72 q 497 30 554 72 q 332 -12 439 -12 q 120 74 206 -12 q 35 325 35 160 q 70 510 35 425 q 176 648 106 596 q 349 700 246 700 q 508 647 454 700 q 561 526 561 594 q 544 483 561 504 q 497 463 528 463 q 462 467 471 463 q 453 472 453 472 l 431 603 q 407 611 431 603 q 340 619 383 619 q 196 550 235 619 q 157 342 157 481 q 215 142 157 200 q 381 85 272 85 q 492 99 447 85 q 536 114 536 114 l 554 72 z "},"ć":{"ha":631,"x_min":56,"x_max":582,"o":"m 575 72 q 517 30 575 72 q 353 -12 458 -12 q 140 74 225 -12 q 56 325 56 160 q 91 510 56 425 q 197 648 126 596 q 369 700 267 700 q 528 647 475 700 q 582 526 582 594 q 565 483 582 504 q 518 463 549 463 q 483 467 492 463 q 474 472 474 472 l 451 603 q 428 611 451 603 q 361 619 404 619 q 217 550 256 619 q 178 342 178 481 q 235 142 178 200 q 401 85 293 85 q 513 99 468 85 q 557 114 557 114 l 575 72 m 226 785 l 378 953 q 408 984 394 972 q 436 996 422 996 q 474 974 454 996 q 507 910 494 953 l 265 743 l 226 785 z "},"č":{"ha":631,"x_min":56,"x_max":582,"o":"m 353 -12 q 140 74 225 -12 q 56 325 56 160 q 91 510 56 425 q 197 648 126 596 q 369 700 267 700 q 528 647 475 700 q 582 526 582 594 q 565 483 582 504 q 518 463 549 463 q 483 467 492 463 q 474 472 474 472 l 451 603 q 428 611 451 603 q 361 619 404 619 q 217 550 256 619 q 178 342 178 481 q 235 142 178 200 q 401 85 293 85 q 513 99 468 85 q 557 114 557 114 l 575 72 q 517 30 575 72 q 353 -12 458 -12 m 343 756 q 306 770 325 756 q 272 800 288 785 l 139 935 l 186 983 l 353 863 l 514 985 l 549 939 l 414 800 q 378 768 396 781 q 343 756 361 756 z "},"ç":{"ha":631,"x_min":56,"x_max":582,"o":"m 325 -260 q 269 -253 293 -260 q 222 -237 246 -247 l 244 -186 q 278 -197 260 -192 q 319 -201 296 -201 q 401 -160 401 -201 q 390 -130 401 -136 q 358 -119 379 -124 l 307 -108 l 281 -82 l 311 -10 q 128 88 200 4 q 56 325 56 172 q 91 510 56 425 q 197 648 126 596 q 369 700 267 700 q 528 647 475 700 q 582 526 582 594 q 565 483 582 504 q 518 463 549 463 q 474 472 483 463 l 451 603 q 361 619 418 619 q 217 550 256 619 q 178 342 178 481 q 235 142 178 200 q 401 85 293 85 q 513 99 468 85 q 557 114 557 114 l 575 72 q 522 33 575 72 q 372 -11 469 -6 l 372 -40 l 396 -46 q 466 -72 436 -56 q 496 -133 496 -87 q 442 -233 496 -206 q 325 -260 388 -260 z "},"ĉ":{"ha":610,"x_min":35,"x_max":561,"o":"m 554 72 q 497 30 554 72 q 332 -12 439 -12 q 120 74 206 -12 q 35 325 35 160 q 70 510 35 425 q 176 648 106 596 q 349 700 246 700 q 508 647 454 700 q 561 526 561 594 q 544 483 561 504 q 497 463 528 463 q 462 467 471 463 q 453 472 453 472 l 431 603 q 407 611 431 603 q 340 619 383 619 q 196 550 235 619 q 157 342 157 481 q 215 142 157 200 q 381 85 272 85 q 492 99 447 85 q 536 114 536 114 l 554 72 z "},"ċ":{"ha":610,"x_min":35,"x_max":561,"o":"m 554 72 q 497 30 554 72 q 332 -12 439 -12 q 120 74 206 -12 q 35 325 35 160 q 70 510 35 425 q 176 648 106 596 q 349 700 246 700 q 508 647 454 700 q 561 526 561 594 q 544 483 561 504 q 497 463 528 463 q 462 467 471 463 q 453 472 453 472 l 431 603 q 407 611 431 603 q 340 619 383 619 q 196 550 235 619 q 157 342 157 481 q 215 142 157 200 q 381 85 272 85 q 492 99 447 85 q 536 114 536 114 l 554 72 z "},"d":{"ha":747,"x_min":56,"x_max":717,"o":"m 311 -12 q 133 61 210 -12 q 56 303 56 135 q 103 538 56 450 q 220 663 151 625 q 351 700 289 700 q 451 680 413 700 q 504 646 489 660 l 504 664 l 504 683 l 504 861 l 390 893 l 390 947 l 579 971 l 618 951 l 618 97 l 717 76 l 717 22 l 528 -6 l 510 67 l 504 68 q 436 18 486 49 q 311 -12 386 -12 m 354 85 q 443 98 401 85 q 504 121 485 111 l 504 590 q 452 605 488 597 q 374 613 417 613 q 234 558 289 613 q 179 349 179 503 q 217 150 179 215 q 354 85 254 85 z "},"ð":{"ha":729,"x_min":56,"x_max":674,"o":"m 358 -12 q 130 82 204 -12 q 56 331 56 176 q 143 569 56 479 q 385 660 231 660 q 472 645 433 660 q 532 621 511 631 q 492 739 519 685 q 415 829 465 793 l 274 738 l 236 792 l 349 865 q 163 890 282 890 l 163 946 q 188 951 163 946 q 271 956 214 956 q 435 921 360 956 l 561 1003 l 597 946 l 500 883 q 626 715 578 825 q 674 432 674 606 q 590 97 674 206 q 358 -12 506 -12 m 371 68 q 513 153 478 68 q 547 394 547 238 q 546 467 547 431 q 542 539 544 503 q 472 561 511 550 q 379 572 432 572 q 222 517 264 572 q 181 351 181 463 q 191 221 181 286 q 242 112 201 156 q 371 68 282 68 z "},"ď":{"ha":757,"x_min":57,"x_max":804,"o":"m 313 -12 q 134 61 211 -12 q 57 303 57 135 q 105 538 57 450 q 221 663 153 625 q 353 700 289 700 q 452 680 414 700 q 506 646 490 660 l 506 661 l 506 686 l 506 861 l 392 893 l 392 947 l 581 971 l 619 951 l 619 97 l 718 76 l 718 22 l 529 -6 l 511 67 l 506 68 q 437 18 486 49 q 313 -12 388 -12 m 356 85 q 444 98 403 85 q 506 121 486 111 l 506 590 q 453 605 489 597 q 375 613 418 613 q 235 558 289 613 q 181 349 181 503 q 218 150 181 215 q 356 85 256 85 m 685 753 q 701 819 694 783 q 707 885 707 856 q 697 929 707 910 q 672 967 686 949 q 694 988 679 978 q 735 999 710 999 q 788 976 771 999 q 804 924 804 954 q 785 852 804 892 q 748 783 767 813 q 729 753 729 753 l 685 753 z "},"đ":{"ha":757,"x_min":57,"x_max":718,"o":"m 313 -12 q 134 61 211 -12 q 57 303 57 135 q 105 538 57 450 q 221 663 153 625 q 353 700 289 700 q 452 680 414 700 q 506 646 490 660 l 506 665 l 506 689 l 506 767 l 254 767 l 254 833 l 506 833 l 506 875 l 392 893 l 392 947 l 581 971 l 619 951 l 619 833 l 672 833 l 672 767 l 619 767 l 619 97 l 718 76 l 718 22 l 529 -6 l 511 67 l 506 68 q 437 18 486 49 q 313 -12 388 -12 m 356 85 q 444 98 403 85 q 506 121 486 111 l 506 590 q 453 605 489 597 q 375 613 418 613 q 235 558 289 613 q 181 349 181 503 q 218 150 181 215 q 356 85 256 85 z "},"ḍ":{"ha":747,"x_min":56,"x_max":717,"o":"m 311 -12 q 133 61 210 -12 q 56 303 56 135 q 103 538 56 450 q 220 663 151 625 q 351 700 289 700 q 451 680 413 700 q 504 646 489 660 l 504 664 l 504 683 l 504 861 l 390 893 l 390 947 l 579 971 l 618 951 l 618 97 l 717 76 l 717 22 l 528 -6 l 510 67 l 504 68 q 436 18 486 49 q 311 -12 386 -12 m 354 85 q 443 98 401 85 q 504 121 485 111 l 504 590 q 452 605 488 597 q 374 613 417 613 q 234 558 289 613 q 179 349 179 503 q 217 150 179 215 q 354 85 254 85 m 369 -239 q 313 -215 333 -239 q 292 -153 292 -192 q 315 -89 292 -117 q 376 -61 339 -61 q 433 -83 411 -61 q 454 -144 454 -106 q 432 -210 454 -182 q 369 -239 410 -239 z "},"ǳ":{"ha":1350,"x_min":56,"x_max":1318,"o":"m 311 -12 q 133 61 210 -12 q 56 303 56 135 q 103 538 56 450 q 220 663 151 625 q 351 700 289 700 q 451 680 413 700 q 504 646 489 660 l 504 664 l 504 683 l 504 861 l 390 893 l 390 947 l 579 971 l 618 951 l 618 97 l 717 76 l 717 22 l 528 -6 l 510 67 l 504 68 q 436 18 486 49 q 311 -12 386 -12 m 354 85 q 443 98 401 85 q 504 121 485 111 l 504 590 q 452 605 488 597 q 374 613 417 613 q 234 558 289 613 q 179 349 179 503 q 217 150 179 215 q 354 85 254 85 m 774 0 l 774 69 l 1154 594 l 1154 613 l 883 613 l 864 497 l 807 497 l 788 686 l 1288 686 l 1288 583 l 932 94 l 932 72 l 1222 72 l 1242 190 l 1299 190 l 1318 0 l 774 0 z "},"ǆ":{"ha":1350,"x_min":56,"x_max":1318,"o":"m 311 -12 q 133 61 210 -12 q 56 303 56 135 q 103 538 56 450 q 220 663 151 625 q 351 700 289 700 q 451 680 413 700 q 504 646 489 660 l 504 664 l 504 683 l 504 861 l 390 893 l 390 947 l 579 971 l 618 951 l 618 97 l 717 76 l 717 22 l 528 -6 l 510 67 l 504 68 q 436 18 486 49 q 311 -12 386 -12 m 354 85 q 443 98 401 85 q 504 121 485 111 l 504 590 q 452 605 488 597 q 374 613 417 613 q 234 558 289 613 q 179 349 179 503 q 217 150 179 215 q 354 85 254 85 m 774 0 l 774 69 l 1154 594 l 1154 613 l 883 613 l 864 497 l 807 497 l 788 686 l 1288 686 l 1288 583 l 932 94 l 932 72 l 1222 72 l 1242 190 l 1299 190 l 1318 0 l 774 0 z "},"e":{"ha":638,"x_min":35,"x_max":572,"o":"m 333 -12 q 108 86 181 -12 q 35 324 35 185 q 122 595 35 490 q 344 700 210 700 q 476 663 425 700 q 549 569 526 626 q 572 447 572 511 q 558 348 572 372 q 506 324 544 324 l 157 324 q 205 157 157 229 q 375 85 253 85 q 499 101 457 85 q 542 118 542 118 l 561 79 q 534 56 561 79 q 456 10 507 33 q 333 -12 406 -12 m 158 388 l 456 399 q 460 454 460 424 q 432 576 460 532 q 324 619 404 619 q 199 560 239 619 q 158 388 160 500 z "},"é":{"ha":654,"x_min":51,"x_max":589,"o":"m 350 -12 q 124 86 197 -12 q 51 324 51 185 q 139 595 51 490 q 361 700 226 700 q 492 663 442 700 q 566 569 543 626 q 589 447 589 511 q 575 348 589 372 q 522 324 561 324 l 174 324 q 222 157 174 229 q 392 85 269 85 q 516 101 474 85 q 558 118 558 118 l 578 79 q 551 56 578 79 q 473 10 524 33 q 350 -12 422 -12 m 175 388 l 472 399 q 476 454 476 424 q 449 576 476 532 q 340 619 421 619 q 216 560 256 619 q 175 388 176 500 m 254 743 l 215 785 l 367 953 q 397 984 383 972 q 425 996 411 996 q 463 974 443 996 q 496 910 483 953 l 254 743 z "},"ĕ":{"ha":638,"x_min":35,"x_max":572,"o":"m 333 -12 q 108 86 181 -12 q 35 324 35 185 q 122 595 35 490 q 344 700 210 700 q 476 663 425 700 q 549 569 526 626 q 572 447 572 511 q 558 348 572 372 q 506 324 544 324 l 157 324 q 205 157 157 229 q 375 85 253 85 q 499 101 457 85 q 542 118 542 118 l 561 79 q 534 56 561 79 q 456 10 507 33 q 333 -12 406 -12 m 158 388 l 456 399 q 460 454 460 424 q 432 576 460 532 q 324 619 404 619 q 199 560 239 619 q 158 388 160 500 z "},"ě":{"ha":654,"x_min":51,"x_max":589,"o":"m 350 -12 q 124 86 197 -12 q 51 324 51 185 q 139 595 51 490 q 361 700 226 700 q 492 663 442 700 q 566 569 543 626 q 589 447 589 511 q 575 348 589 372 q 522 324 561 324 l 174 324 q 222 157 174 229 q 392 85 269 85 q 516 101 474 85 q 558 118 558 118 l 578 79 q 551 56 578 79 q 473 10 524 33 q 350 -12 422 -12 m 175 388 l 472 399 q 476 454 476 424 q 449 576 476 532 q 340 619 421 619 q 216 560 256 619 q 175 388 176 500 m 336 756 q 299 770 318 756 q 265 800 281 785 l 132 935 l 179 983 l 346 863 l 507 985 l 542 939 l 407 800 q 372 768 389 781 q 336 756 354 756 z "},"ê":{"ha":654,"x_min":51,"x_max":589,"o":"m 350 -12 q 124 86 197 -12 q 51 324 51 185 q 139 595 51 490 q 361 700 226 700 q 492 663 442 700 q 566 569 543 626 q 589 447 589 511 q 575 348 589 372 q 522 324 561 324 l 174 324 q 222 157 174 229 q 392 85 269 85 q 516 101 474 85 q 558 118 558 118 l 578 79 q 551 56 578 79 q 473 10 524 33 q 350 -12 422 -12 m 175 388 l 472 399 q 476 454 476 424 q 449 576 476 532 q 340 619 421 619 q 216 560 256 619 q 175 388 176 500 m 483 756 l 319 872 l 160 757 l 121 801 l 268 949 q 303 976 286 967 q 332 986 319 986 q 356 979 343 986 q 385 957 369 972 l 532 804 l 483 756 z "},"ế":{"ha":638,"x_min":35,"x_max":693,"o":"m 333 -12 q 108 86 181 -12 q 35 324 35 185 q 122 595 35 490 q 344 700 210 700 q 476 663 425 700 q 549 569 526 626 q 572 447 572 511 q 558 348 572 372 q 506 324 544 324 l 157 324 q 205 157 157 229 q 375 85 253 85 q 499 101 457 85 q 542 118 542 118 l 561 79 q 534 56 561 79 q 456 10 507 33 q 333 -12 406 -12 m 158 388 l 456 399 q 460 454 460 424 q 432 576 460 532 q 324 619 404 619 q 199 560 239 619 q 158 388 160 500 z "},"ệ":{"ha":638,"x_min":35,"x_max":572,"o":"m 333 -12 q 108 86 181 -12 q 35 324 35 185 q 122 595 35 490 q 344 700 210 700 q 476 663 425 700 q 549 569 526 626 q 572 447 572 511 q 558 348 572 372 q 506 324 544 324 l 157 324 q 205 157 157 229 q 375 85 253 85 q 499 101 457 85 q 542 118 542 118 l 561 79 q 534 56 561 79 q 456 10 507 33 q 333 -12 406 -12 m 158 388 l 456 399 q 460 454 460 424 q 432 576 460 532 q 324 619 404 619 q 199 560 239 619 q 158 388 160 500 m 333 -239 q 276 -215 297 -239 q 256 -153 256 -192 q 279 -89 256 -117 q 340 -61 303 -61 q 397 -83 375 -61 q 418 -144 418 -106 q 396 -210 418 -182 q 333 -239 374 -239 z "},"ề":{"ha":638,"x_min":35,"x_max":572,"o":"m 333 -12 q 108 86 181 -12 q 35 324 35 185 q 122 595 35 490 q 344 700 210 700 q 476 663 425 700 q 549 569 526 626 q 572 447 572 511 q 558 348 572 372 q 506 324 544 324 l 157 324 q 205 157 157 229 q 375 85 253 85 q 499 101 457 85 q 542 118 542 118 l 561 79 q 534 56 561 79 q 456 10 507 33 q 333 -12 406 -12 m 158 388 l 456 399 q 460 454 460 424 q 432 576 460 532 q 324 619 404 619 q 199 560 239 619 q 158 388 160 500 z "},"ể":{"ha":638,"x_min":35,"x_max":631,"o":"m 333 -12 q 108 86 181 -12 q 35 324 35 185 q 122 595 35 490 q 344 700 210 700 q 476 663 425 700 q 549 569 526 626 q 572 447 572 511 q 558 348 572 372 q 506 324 544 324 l 157 324 q 205 157 157 229 q 375 85 253 85 q 499 101 457 85 q 542 118 542 118 l 561 79 q 534 56 561 79 q 456 10 507 33 q 333 -12 406 -12 m 158 388 l 456 399 q 460 454 460 424 q 432 576 460 532 q 324 619 404 619 q 199 560 239 619 q 158 388 160 500 z "},"ễ":{"ha":638,"x_min":35,"x_max":572,"o":"m 333 -12 q 108 86 181 -12 q 35 324 35 185 q 122 595 35 490 q 344 700 210 700 q 476 663 425 700 q 549 569 526 626 q 572 447 572 511 q 558 348 572 372 q 506 324 544 324 l 157 324 q 205 157 157 229 q 375 85 253 85 q 499 101 457 85 q 542 118 542 118 l 561 79 q 534 56 561 79 q 456 10 507 33 q 333 -12 406 -12 m 158 388 l 456 399 q 460 454 460 424 q 432 576 460 532 q 324 619 404 619 q 199 560 239 619 q 158 388 160 500 z "},"ȅ":{"ha":638,"x_min":35,"x_max":572,"o":"m 333 -12 q 108 86 181 -12 q 35 324 35 185 q 122 595 35 490 q 344 700 210 700 q 476 663 425 700 q 549 569 526 626 q 572 447 572 511 q 558 348 572 372 q 506 324 544 324 l 157 324 q 205 157 157 229 q 375 85 253 85 q 499 101 457 85 q 542 118 542 118 l 561 79 q 534 56 561 79 q 456 10 507 33 q 333 -12 406 -12 m 158 388 l 456 399 q 460 454 460 424 q 432 576 460 532 q 324 619 404 619 q 199 560 239 619 q 158 388 160 500 z "},"ë":{"ha":654,"x_min":51,"x_max":589,"o":"m 350 -12 q 124 86 197 -12 q 51 324 51 185 q 139 595 51 490 q 361 700 226 700 q 492 663 442 700 q 566 569 543 626 q 589 447 589 511 q 575 348 589 372 q 522 324 561 324 l 174 324 q 222 157 174 229 q 392 85 269 85 q 516 101 474 85 q 558 118 558 118 l 578 79 q 551 56 578 79 q 473 10 524 33 q 350 -12 422 -12 m 175 388 l 472 399 q 476 454 476 424 q 449 576 476 532 q 340 619 421 619 q 216 560 256 619 q 175 388 176 500 m 194 799 q 143 820 163 799 q 124 876 124 842 q 144 935 124 910 q 200 960 165 960 q 251 940 232 960 q 271 885 271 919 q 251 824 271 850 q 194 799 231 799 m 488 799 q 436 820 456 799 q 417 876 417 842 q 438 935 417 910 q 493 960 458 960 q 544 940 525 960 q 564 885 564 919 q 544 824 564 850 q 488 799 524 799 z "},"ė":{"ha":654,"x_min":51,"x_max":589,"o":"m 350 -12 q 124 86 197 -12 q 51 324 51 185 q 139 595 51 490 q 361 700 226 700 q 492 663 442 700 q 566 569 543 626 q 589 447 589 511 q 575 348 589 372 q 522 324 561 324 l 174 324 q 222 157 174 229 q 392 85 269 85 q 516 101 474 85 q 558 118 558 118 l 578 79 q 551 56 578 79 q 473 10 524 33 q 350 -12 422 -12 m 175 388 l 472 399 q 476 454 476 424 q 449 576 476 532 q 340 619 421 619 q 216 560 256 619 q 175 388 176 500 m 342 789 q 285 813 306 789 q 264 875 264 836 q 288 939 264 911 q 349 967 311 967 q 405 944 383 967 q 426 883 426 922 q 404 817 426 846 q 342 789 382 789 z "},"ẹ":{"ha":638,"x_min":35,"x_max":572,"o":"m 333 -12 q 108 86 181 -12 q 35 324 35 185 q 122 595 35 490 q 344 700 210 700 q 476 663 425 700 q 549 569 526 626 q 572 447 572 511 q 558 348 572 372 q 506 324 544 324 l 157 324 q 205 157 157 229 q 375 85 253 85 q 499 101 457 85 q 542 118 542 118 l 561 79 q 534 56 561 79 q 456 10 507 33 q 333 -12 406 -12 m 158 388 l 456 399 q 460 454 460 424 q 432 576 460 532 q 324 619 404 619 q 199 560 239 619 q 158 388 160 500 m 333 -239 q 276 -215 297 -239 q 256 -153 256 -192 q 279 -89 256 -117 q 340 -61 303 -61 q 397 -83 375 -61 q 418 -144 418 -106 q 396 -210 418 -182 q 333 -239 374 -239 z "},"è":{"ha":654,"x_min":51,"x_max":589,"o":"m 350 -12 q 124 86 197 -12 q 51 324 51 185 q 139 595 51 490 q 361 700 226 700 q 492 663 442 700 q 566 569 543 626 q 589 447 589 511 q 575 348 589 372 q 522 324 561 324 l 174 324 q 222 157 174 229 q 392 85 269 85 q 516 101 474 85 q 558 118 558 118 l 578 79 q 551 56 578 79 q 473 10 524 33 q 350 -12 422 -12 m 175 388 l 472 399 q 476 454 476 424 q 449 576 476 532 q 340 619 421 619 q 216 560 256 619 q 175 388 176 500 m 425 743 l 183 910 q 216 974 196 953 q 254 996 236 996 q 283 984 269 996 q 313 953 296 972 l 464 785 l 425 743 z "},"ẻ":{"ha":638,"x_min":35,"x_max":572,"o":"m 333 -12 q 108 86 181 -12 q 35 324 35 185 q 122 595 35 490 q 344 700 210 700 q 476 663 425 700 q 549 569 526 626 q 572 447 572 511 q 558 348 572 372 q 506 324 544 324 l 157 324 q 205 157 157 229 q 375 85 253 85 q 499 101 457 85 q 542 118 542 118 l 561 79 q 534 56 561 79 q 456 10 507 33 q 333 -12 406 -12 m 158 388 l 456 399 q 460 454 460 424 q 432 576 460 532 q 324 619 404 619 q 199 560 239 619 q 158 388 160 500 m 303 744 q 290 789 290 772 q 343 844 290 821 q 381 869 369 858 q 392 894 392 879 q 324 931 392 931 q 236 919 283 931 q 226 943 229 933 q 224 964 224 953 q 238 994 224 983 q 307 1006 251 1006 q 438 976 389 1006 q 486 892 486 947 q 406 803 486 838 q 373 782 378 792 q 368 760 368 772 q 368 757 368 758 q 368 753 368 756 l 303 744 z "},"ȇ":{"ha":638,"x_min":35,"x_max":572,"o":"m 333 -12 q 108 86 181 -12 q 35 324 35 185 q 122 595 35 490 q 344 700 210 700 q 476 663 425 700 q 549 569 526 626 q 572 447 572 511 q 558 348 572 372 q 506 324 544 324 l 157 324 q 205 157 157 229 q 375 85 253 85 q 499 101 457 85 q 542 118 542 118 l 561 79 q 534 56 561 79 q 456 10 507 33 q 333 -12 406 -12 m 158 388 l 456 399 q 460 454 460 424 q 432 576 460 532 q 324 619 404 619 q 199 560 239 619 q 158 388 160 500 m 476 771 q 468 801 476 771 q 427 863 460 832 q 325 893 394 893 q 224 862 256 893 q 184 799 193 831 q 175 768 175 768 l 128 779 q 133 810 128 779 q 156 881 138 840 q 217 953 175 922 q 335 983 260 983 q 480 935 435 983 q 536 838 525 886 q 547 789 547 789 l 476 771 z "},"ē":{"ha":654,"x_min":51,"x_max":589,"o":"m 350 -12 q 124 86 197 -12 q 51 324 51 185 q 139 595 51 490 q 361 700 226 700 q 492 663 442 700 q 566 569 543 626 q 589 447 589 511 q 575 348 589 372 q 522 324 561 324 l 174 324 q 222 157 174 229 q 392 85 269 85 q 516 101 474 85 q 558 118 558 118 l 578 79 q 551 56 578 79 q 473 10 524 33 q 350 -12 422 -12 m 175 388 l 472 399 q 476 454 476 424 q 449 576 476 532 q 340 619 421 619 q 216 560 256 619 q 175 388 176 500 m 110 842 l 124 921 l 585 921 l 571 842 l 110 842 z "},"ę":{"ha":654,"x_min":51,"x_max":589,"o":"m 425 -260 q 342 -234 375 -260 q 310 -157 310 -208 q 338 -71 310 -108 q 401 -8 365 -33 q 376 -12 389 -11 q 350 -12 364 -12 q 124 86 197 -12 q 51 324 51 185 q 139 595 51 490 q 361 700 226 700 q 492 663 442 700 q 566 569 543 626 q 589 447 589 511 q 575 348 589 372 q 522 324 561 324 l 174 324 q 222 157 174 229 q 392 85 269 85 q 516 101 474 85 q 558 118 558 118 l 578 79 q 556 60 578 79 q 497 22 535 42 q 434 -39 467 0 q 401 -115 401 -78 q 461 -176 401 -176 q 499 -167 478 -176 q 540 -147 521 -158 l 565 -189 q 525 -224 565 -189 q 425 -260 485 -260 m 175 388 l 472 399 q 476 454 476 424 q 449 576 476 532 q 340 619 421 619 q 216 560 256 619 q 175 388 176 500 z "},"ẽ":{"ha":638,"x_min":35,"x_max":572,"o":"m 333 -12 q 108 86 181 -12 q 35 324 35 185 q 122 595 35 490 q 344 700 210 700 q 476 663 425 700 q 549 569 526 626 q 572 447 572 511 q 558 348 572 372 q 506 324 544 324 l 157 324 q 205 157 157 229 q 375 85 253 85 q 499 101 457 85 q 542 118 542 118 l 561 79 q 534 56 561 79 q 456 10 507 33 q 333 -12 406 -12 m 158 388 l 456 399 q 460 454 460 424 q 432 576 460 532 q 324 619 404 619 q 199 560 239 619 q 158 388 160 500 z "},"ə":{"ha":638,"x_min":65,"x_max":603,"o":"m 304 699 q 530 600 457 699 q 603 363 603 501 q 515 91 603 196 q 293 -14 428 -14 q 162 23 213 -14 q 88 117 111 60 q 65 239 65 175 q 79 338 65 314 q 132 363 93 363 l 481 363 q 433 529 481 457 q 263 601 385 601 q 138 585 181 601 q 96 568 96 568 l 76 607 q 103 630 76 607 q 181 676 131 653 q 304 699 232 699 m 479 299 l 182 288 q 178 232 178 263 q 206 110 178 154 q 314 67 233 67 q 438 126 399 67 q 479 299 478 186 z "},"f":{"ha":417,"x_min":21,"x_max":468,"o":"m 21 0 l 21 57 l 117 76 l 117 607 l 32 607 l 32 672 l 115 689 q 204 894 124 814 q 390 974 285 974 q 449 954 431 974 q 468 907 468 935 q 453 863 468 881 q 429 840 439 844 q 319 869 343 864 q 275 875 294 875 q 231 863 250 875 l 231 686 l 407 686 l 407 643 l 389 607 l 231 607 l 231 79 l 375 57 l 375 0 l 21 0 z "},"g":{"ha":640,"x_min":31,"x_max":654,"o":"m 297 -231 q 111 -195 192 -231 q 31 -76 31 -160 q 90 39 31 -4 q 189 101 150 82 q 161 174 161 126 q 181 224 161 200 q 224 264 200 249 q 94 340 133 283 q 54 463 54 396 q 132 632 54 564 q 322 700 210 700 q 471 657 414 700 q 513 687 474 658 q 593 715 553 715 q 654 656 654 715 q 645 617 654 633 q 629 594 636 601 l 578 606 q 546 611 558 608 q 514 614 533 614 q 546 547 536 583 q 556 481 556 511 q 478 317 556 378 q 296 257 400 257 l 278 257 l 278 179 l 425 150 q 573 98 517 132 q 629 -11 629 64 q 532 -172 629 -114 q 297 -231 435 -231 m 328 -158 q 472 -127 421 -158 q 522 -44 522 -96 q 505 8 522 -17 q 426 43 488 32 l 235 79 q 174 17 203 56 q 146 -58 146 -21 q 189 -135 146 -112 q 328 -158 232 -158 m 307 338 q 407 367 371 338 q 443 481 443 396 q 413 583 443 546 q 310 619 383 619 q 201 583 233 619 q 169 474 169 547 q 205 369 169 400 q 307 338 240 338 z "},"ǵ":{"ha":640,"x_min":31,"x_max":654,"o":"m 297 -231 q 111 -195 192 -231 q 31 -76 31 -160 q 90 39 31 -4 q 189 101 150 82 q 161 174 161 126 q 181 224 161 200 q 224 264 200 249 q 94 340 133 283 q 54 463 54 396 q 132 632 54 564 q 322 700 210 700 q 471 657 414 700 q 513 687 474 658 q 593 715 553 715 q 654 656 654 715 q 645 617 654 633 q 629 594 636 601 l 578 606 q 546 611 558 608 q 514 614 533 614 q 546 547 536 583 q 556 481 556 511 q 478 317 556 378 q 296 257 400 257 l 278 257 l 278 179 l 425 150 q 573 98 517 132 q 629 -11 629 64 q 532 -172 629 -114 q 297 -231 435 -231 m 328 -158 q 472 -127 421 -158 q 522 -44 522 -96 q 505 8 522 -17 q 426 43 488 32 l 235 79 q 174 17 203 56 q 146 -58 146 -21 q 189 -135 146 -112 q 328 -158 232 -158 m 307 338 q 407 367 371 338 q 443 481 443 396 q 413 583 443 546 q 310 619 383 619 q 201 583 233 619 q 169 474 169 547 q 205 369 169 400 q 307 338 240 338 z "},"ğ":{"ha":647,"x_min":31,"x_max":654,"o":"m 307 768 q 162 817 207 768 q 106 914 117 865 q 94 963 94 963 l 165 981 q 174 950 165 981 q 215 889 182 919 q 317 858 247 858 q 417 890 386 858 q 458 952 449 921 q 467 983 467 983 l 514 972 q 509 942 514 972 q 485 870 504 911 q 424 799 467 829 q 307 768 382 768 m 297 -231 q 111 -195 192 -231 q 31 -76 31 -160 q 90 39 31 -4 q 189 101 150 82 q 161 174 161 126 q 181 224 161 200 q 224 264 200 249 q 94 340 133 283 q 54 463 54 396 q 132 632 54 564 q 322 700 210 700 q 471 657 414 700 q 513 687 474 658 q 593 715 553 715 q 654 656 654 715 q 645 617 654 633 q 629 594 636 601 l 578 606 q 546 611 558 608 q 514 614 533 614 q 546 547 536 583 q 556 481 556 511 q 478 317 556 378 q 296 257 400 257 l 278 257 l 278 179 l 425 150 q 573 98 517 132 q 629 -11 629 64 q 532 -172 629 -114 q 297 -231 435 -231 m 328 -158 q 472 -127 421 -158 q 522 -44 522 -96 q 505 8 522 -17 q 426 43 488 32 l 235 79 q 174 17 203 56 q 146 -58 146 -21 q 189 -135 146 -112 q 328 -158 232 -158 m 307 338 q 407 367 371 338 q 443 481 443 396 q 413 583 443 546 q 310 619 383 619 q 201 583 233 619 q 169 474 169 547 q 205 369 169 400 q 307 338 240 338 z "},"ǧ":{"ha":640,"x_min":31,"x_max":654,"o":"m 297 -231 q 111 -195 192 -231 q 31 -76 31 -160 q 90 39 31 -4 q 189 101 150 82 q 161 174 161 126 q 181 224 161 200 q 224 264 200 249 q 94 340 133 283 q 54 463 54 396 q 132 632 54 564 q 322 700 210 700 q 471 657 414 700 q 513 687 474 658 q 593 715 553 715 q 654 656 654 715 q 645 617 654 633 q 629 594 636 601 l 578 606 q 546 611 558 608 q 514 614 533 614 q 546 547 536 583 q 556 481 556 511 q 478 317 556 378 q 296 257 400 257 l 278 257 l 278 179 l 425 150 q 573 98 517 132 q 629 -11 629 64 q 532 -172 629 -114 q 297 -231 435 -231 m 328 -158 q 472 -127 421 -158 q 522 -44 522 -96 q 505 8 522 -17 q 426 43 488 32 l 235 79 q 174 17 203 56 q 146 -58 146 -21 q 189 -135 146 -112 q 328 -158 232 -158 m 307 338 q 407 367 371 338 q 443 481 443 396 q 413 583 443 546 q 310 619 383 619 q 201 583 233 619 q 169 474 169 547 q 205 369 169 400 q 307 338 240 338 z "},"ĝ":{"ha":640,"x_min":31,"x_max":654,"o":"m 297 -231 q 111 -195 192 -231 q 31 -76 31 -160 q 90 39 31 -4 q 189 101 150 82 q 161 174 161 126 q 181 224 161 200 q 224 264 200 249 q 94 340 133 283 q 54 463 54 396 q 132 632 54 564 q 322 700 210 700 q 471 657 414 700 q 513 687 474 658 q 593 715 553 715 q 654 656 654 715 q 645 617 654 633 q 629 594 636 601 l 578 606 q 546 611 558 608 q 514 614 533 614 q 546 547 536 583 q 556 481 556 511 q 478 317 556 378 q 296 257 400 257 l 278 257 l 278 179 l 425 150 q 573 98 517 132 q 629 -11 629 64 q 532 -172 629 -114 q 297 -231 435 -231 m 328 -158 q 472 -127 421 -158 q 522 -44 522 -96 q 505 8 522 -17 q 426 43 488 32 l 235 79 q 174 17 203 56 q 146 -58 146 -21 q 189 -135 146 -112 q 328 -158 232 -158 m 307 338 q 407 367 371 338 q 443 481 443 396 q 413 583 443 546 q 310 619 383 619 q 201 583 233 619 q 169 474 169 547 q 205 369 169 400 q 307 338 240 338 z "},"ģ":{"ha":647,"x_min":31,"x_max":654,"o":"m 307 760 q 276 767 293 760 q 244 790 258 774 q 269 824 258 804 q 281 869 281 843 q 271 937 281 899 q 251 1006 261 975 l 294 1006 q 314 981 294 1006 q 353 917 333 957 q 374 832 374 878 q 358 783 374 807 q 307 760 343 760 m 297 -231 q 111 -195 192 -231 q 31 -76 31 -160 q 90 39 31 -4 q 189 101 150 82 q 161 174 161 126 q 181 224 161 200 q 224 264 200 249 q 94 340 133 283 q 54 463 54 396 q 132 632 54 564 q 322 700 210 700 q 471 657 414 700 q 513 687 474 658 q 593 715 553 715 q 654 656 654 715 q 645 617 654 633 q 629 594 636 601 l 578 606 q 546 611 558 608 q 514 614 533 614 q 546 547 536 583 q 556 481 556 511 q 478 317 556 378 q 296 257 400 257 l 278 257 l 278 179 l 425 150 q 573 98 517 132 q 629 -11 629 64 q 532 -172 629 -114 q 297 -231 435 -231 m 328 -158 q 472 -127 421 -158 q 522 -44 522 -96 q 505 8 522 -17 q 426 43 488 32 l 235 79 q 174 17 203 56 q 146 -58 146 -21 q 189 -135 146 -112 q 328 -158 232 -158 m 307 338 q 407 367 371 338 q 443 481 443 396 q 413 583 443 546 q 310 619 383 619 q 201 583 233 619 q 169 474 169 547 q 205 369 169 400 q 307 338 240 338 z "},"ġ":{"ha":640,"x_min":31,"x_max":654,"o":"m 297 -231 q 111 -195 192 -231 q 31 -76 31 -160 q 90 39 31 -4 q 189 101 150 82 q 161 174 161 126 q 181 224 161 200 q 224 264 200 249 q 94 340 133 283 q 54 463 54 396 q 132 632 54 564 q 322 700 210 700 q 471 657 414 700 q 513 687 474 658 q 593 715 553 715 q 654 656 654 715 q 645 617 654 633 q 629 594 636 601 l 578 606 q 546 611 558 608 q 514 614 533 614 q 546 547 536 583 q 556 481 556 511 q 478 317 556 378 q 296 257 400 257 l 278 257 l 278 179 l 425 150 q 573 98 517 132 q 629 -11 629 64 q 532 -172 629 -114 q 297 -231 435 -231 m 328 -158 q 472 -127 421 -158 q 522 -44 522 -96 q 505 8 522 -17 q 426 43 488 32 l 235 79 q 174 17 203 56 q 146 -58 146 -21 q 189 -135 146 -112 q 328 -158 232 -158 m 307 338 q 407 367 371 338 q 443 481 443 396 q 413 583 443 546 q 310 619 383 619 q 201 583 233 619 q 169 474 169 547 q 205 369 169 400 q 307 338 240 338 z "},"h":{"ha":799,"x_min":33,"x_max":771,"o":"m 33 0 l 33 57 l 146 76 l 146 864 l 35 883 l 35 940 l 228 971 l 260 958 l 260 649 l 260 638 l 260 629 q 369 681 308 661 q 478 700 431 700 q 604 658 549 700 q 660 510 660 617 l 660 76 l 771 57 l 771 0 l 438 0 l 438 57 l 546 76 l 546 490 q 508 579 546 556 q 400 603 469 603 q 331 597 371 603 q 260 585 292 592 l 260 76 l 369 57 l 369 0 l 33 0 z "},"ħ":{"ha":799,"x_min":32,"x_max":771,"o":"m 33 0 l 33 57 l 146 76 l 146 767 l 32 767 l 32 833 l 146 833 l 146 875 l 32 893 l 32 947 l 221 971 l 260 951 l 260 833 l 450 833 l 450 767 l 260 767 l 260 650 l 260 639 l 260 629 q 328 665 260 629 q 478 700 397 700 q 604 658 549 700 q 660 510 660 617 l 660 76 l 771 57 l 771 0 l 438 0 l 438 57 l 546 76 l 546 490 q 508 579 546 556 q 400 603 469 603 q 306 594 353 603 q 260 585 260 585 l 260 76 l 369 57 l 369 0 l 33 0 z "},"ĥ":{"ha":799,"x_min":-3,"x_max":771,"o":"m 33 0 l 33 57 l 146 76 l 146 864 l 35 883 l 35 940 l 228 971 l 260 958 l 260 649 l 260 638 l 260 629 q 369 681 308 661 q 478 700 431 700 q 604 658 549 700 q 660 510 660 617 l 660 76 l 771 57 l 771 0 l 438 0 l 438 57 l 546 76 l 546 490 q 508 579 546 556 q 400 603 469 603 q 331 597 371 603 q 260 585 292 592 l 260 76 l 369 57 l 369 0 l 33 0 z "},"ḥ":{"ha":799,"x_min":33,"x_max":771,"o":"m 33 0 l 33 57 l 146 76 l 146 864 l 35 883 l 35 940 l 228 971 l 260 958 l 260 649 l 260 638 l 260 629 q 369 681 308 661 q 478 700 431 700 q 604 658 549 700 q 660 510 660 617 l 660 76 l 771 57 l 771 0 l 438 0 l 438 57 l 546 76 l 546 490 q 508 579 546 556 q 400 603 469 603 q 331 597 371 603 q 260 585 292 592 l 260 76 l 369 57 l 369 0 l 33 0 m 396 -239 q 339 -215 360 -239 q 318 -153 318 -192 q 342 -89 318 -117 q 403 -61 365 -61 q 459 -83 438 -61 q 481 -144 481 -106 q 458 -210 481 -182 q 396 -239 436 -239 z "},"i":{"ha":407,"x_min":39,"x_max":372,"o":"m 39 57 l 150 76 l 150 571 l 39 590 l 39 647 l 232 686 l 264 674 l 264 76 l 372 57 l 372 0 l 39 0 l 39 57 m 193 789 q 137 813 158 789 q 115 875 115 836 q 139 939 115 911 q 200 967 163 967 q 257 944 236 967 q 278 883 278 922 q 256 817 278 846 q 193 789 233 789 z "},"ı":{"ha":407,"x_min":39,"x_max":372,"o":"m 39 57 l 150 76 l 150 571 l 39 590 l 39 647 l 232 686 l 264 674 l 264 76 l 372 57 l 372 0 l 39 0 l 39 57 z "},"í":{"ha":407,"x_min":39,"x_max":372,"o":"m 39 0 l 39 57 l 150 76 l 150 571 l 39 590 l 39 647 l 232 686 l 264 674 l 264 76 l 372 57 l 372 0 l 39 0 m 92 743 l 53 785 l 204 953 q 234 984 221 972 q 263 996 247 996 q 301 974 281 996 q 333 910 321 953 l 92 743 z "},"ĭ":{"ha":407,"x_min":-3,"x_max":417,"o":"m 39 57 l 150 76 l 150 571 l 39 590 l 39 647 l 232 686 l 264 674 l 264 76 l 372 57 l 372 0 l 39 0 l 39 57 z "},"ǐ":{"ha":407,"x_min":1,"x_max":411,"o":"m 39 57 l 150 76 l 150 571 l 39 590 l 39 647 l 232 686 l 264 674 l 264 76 l 372 57 l 372 0 l 39 0 l 39 57 z "},"î":{"ha":407,"x_min":-21,"x_max":372,"o":"m 39 57 l 150 76 l 150 571 l 39 590 l 39 647 l 232 686 l 264 674 l 264 76 l 372 57 l 372 0 l 39 0 l 39 57 m -21 811 l 85 926 q 126 971 100 943 q 168 999 153 999 q 208 972 183 999 q 249 926 232 946 l 346 814 l 301 769 l 164 878 l 14 772 l -21 811 z "},"ȉ":{"ha":407,"x_min":-71,"x_max":372,"o":"m 39 57 l 150 76 l 150 571 l 39 590 l 39 647 l 232 686 l 264 674 l 264 76 l 372 57 l 372 0 l 39 0 l 39 57 z "},"ï":{"ha":407,"x_min":-18,"x_max":372,"o":"m 39 0 l 39 57 l 150 76 l 150 571 l 39 590 l 39 647 l 232 686 l 264 674 l 264 76 l 372 57 l 372 0 l 39 0 m 53 796 q 1 817 21 796 q -18 874 -18 839 q 3 932 -18 907 q 58 957 24 957 q 110 937 90 957 q 129 882 129 917 q 109 822 129 847 q 53 796 89 796 m 290 796 q 239 817 258 796 q 219 874 219 839 q 240 932 219 907 q 296 957 261 957 q 347 937 328 957 q 367 882 367 917 q 347 822 367 847 q 290 796 326 796 z "},"ị":{"ha":407,"x_min":39,"x_max":372,"o":"m 39 57 l 150 76 l 150 571 l 39 590 l 39 647 l 232 686 l 264 674 l 264 76 l 372 57 l 372 0 l 39 0 l 39 57 m 193 789 q 137 813 158 789 q 115 875 115 836 q 139 939 115 911 q 200 967 163 967 q 257 944 236 967 q 278 883 278 922 q 256 817 278 846 q 193 789 233 789 m 203 -239 q 146 -215 167 -239 q 125 -153 125 -192 q 149 -89 125 -117 q 210 -61 172 -61 q 266 -83 244 -61 q 288 -144 288 -106 q 265 -210 288 -182 q 203 -239 243 -239 z "},"ì":{"ha":407,"x_min":19,"x_max":372,"o":"m 39 57 l 150 76 l 150 571 l 39 590 l 39 647 l 232 686 l 264 674 l 264 76 l 372 57 l 372 0 l 39 0 l 39 57 m 19 910 q 52 974 32 953 q 90 996 72 996 q 119 984 106 996 q 149 953 132 972 l 300 785 l 261 743 l 19 910 z "},"ỉ":{"ha":407,"x_min":39,"x_max":372,"o":"m 39 57 l 150 76 l 150 571 l 39 590 l 39 647 l 232 686 l 264 674 l 264 76 l 372 57 l 372 0 l 39 0 l 39 57 m 172 744 q 160 789 160 772 q 213 844 160 821 q 250 869 239 858 q 261 894 261 879 q 193 931 261 931 q 106 919 153 931 q 96 943 99 933 q 93 964 93 953 q 107 994 93 983 q 176 1006 121 1006 q 307 976 258 1006 q 356 892 356 947 q 275 803 356 838 q 242 782 247 792 q 238 760 238 772 q 238 757 238 758 q 238 753 238 756 l 172 744 z "},"ȋ":{"ha":407,"x_min":-3,"x_max":417,"o":"m 39 57 l 150 76 l 150 571 l 39 590 l 39 647 l 232 686 l 264 674 l 264 76 l 372 57 l 372 0 l 39 0 l 39 57 m 346 771 q 338 801 346 771 q 297 863 329 832 q 194 893 264 893 q 94 862 125 893 q 53 799 63 831 q 44 768 44 768 l -3 779 q 2 810 -3 779 q 26 881 7 840 q 87 953 44 922 q 204 983 129 983 q 349 935 304 983 q 406 838 394 886 q 417 789 417 789 l 346 771 z "},"ĳ":{"ha":767,"x_min":39,"x_max":661,"o":"m 39 57 l 150 76 l 150 571 l 39 590 l 39 647 l 232 686 l 264 674 l 264 76 l 372 57 l 372 0 l 39 0 l 39 57 m 193 789 q 137 813 158 789 q 115 875 115 836 q 139 939 115 911 q 200 967 163 967 q 257 944 236 967 q 278 883 278 922 q 256 817 278 846 q 193 789 233 789 m 504 -229 q 422 -222 454 -229 q 389 -215 389 -215 l 389 -162 l 539 -126 l 539 571 l 428 590 l 428 647 l 621 686 l 653 674 l 653 -115 q 615 -199 653 -169 q 504 -229 576 -229 m 576 789 q 519 813 540 789 q 499 875 499 836 q 522 939 499 911 q 583 967 546 967 q 640 944 618 967 q 661 883 661 922 q 639 817 661 846 q 576 789 617 789 z "},"ī":{"ha":407,"x_min":-33,"x_max":372,"o":"m 39 0 l 39 57 l 150 76 l 150 571 l 39 590 l 39 647 l 232 686 l 264 674 l 264 76 l 372 57 l 372 0 l 39 0 m -33 842 l -22 925 l 361 925 l 350 842 l -33 842 z "},"į":{"ha":407,"x_min":39,"x_max":426,"o":"m 39 57 l 150 76 l 150 571 l 39 590 l 39 647 l 232 686 l 264 674 l 264 76 l 372 57 l 372 0 l 340 0 q 290 -50 317 -19 q 263 -115 263 -81 q 322 -176 263 -176 q 360 -167 339 -176 q 401 -147 382 -158 l 426 -189 q 386 -224 426 -189 q 286 -260 346 -260 q 203 -234 236 -260 q 171 -157 171 -208 q 203 -65 171 -104 q 275 0 235 -25 l 39 0 l 39 57 m 194 789 q 138 813 158 789 q 117 875 117 836 q 140 939 117 911 q 201 967 164 967 q 258 944 236 967 q 279 883 279 922 q 257 817 279 846 q 194 789 235 789 z "},"ĩ":{"ha":407,"x_min":-26,"x_max":440,"o":"m 39 57 l 150 76 l 150 571 l 39 590 l 39 647 l 232 686 l 264 674 l 264 76 l 372 57 l 372 0 l 39 0 l 39 57 z "},"j":{"ha":360,"x_min":-18,"x_max":254,"o":"m 97 -229 q 15 -222 47 -229 q -18 -215 -18 -215 l -18 -162 l 132 -126 l 132 571 l 21 590 l 21 647 l 214 686 l 246 674 l 246 -115 q 208 -199 246 -169 q 97 -229 169 -229 m 169 789 q 113 813 133 789 q 92 875 92 836 q 115 939 92 911 q 176 967 139 967 q 233 944 211 967 q 254 883 254 922 q 232 817 254 846 q 169 789 210 789 z "},"ȷ":{"ha":360,"x_min":-18,"x_max":246,"o":"m -18 -162 l 132 -126 l 132 571 l 21 590 l 21 647 l 214 686 l 246 674 l 246 -115 q 208 -199 246 -169 q 97 -229 169 -229 q 15 -222 47 -229 q -18 -215 -18 -215 l -18 -162 z "},"ĵ":{"ha":360,"x_min":-18,"x_max":394,"o":"m -18 -162 l 132 -126 l 132 571 l 21 590 l 21 647 l 214 686 l 246 674 l 246 -115 q 208 -199 246 -169 q 97 -229 169 -229 q 15 -222 47 -229 q -18 -215 -18 -215 l -18 -162 z "},"k":{"ha":679,"x_min":26,"x_max":715,"o":"m 26 57 l 138 76 l 138 864 l 26 883 l 26 940 l 219 971 l 251 958 l 251 410 l 329 410 l 476 593 l 476 613 l 394 631 l 394 686 l 661 686 l 661 629 l 578 607 l 417 401 l 601 82 l 715 57 l 715 0 l 490 0 l 490 25 q 481 60 490 44 l 324 336 l 251 336 l 251 76 l 360 57 l 360 0 l 26 0 l 26 57 z "},"ķ":{"ha":679,"x_min":26,"x_max":715,"o":"m 26 57 l 138 76 l 138 864 l 26 883 l 26 940 l 219 971 l 251 958 l 251 410 l 329 410 l 476 593 l 476 613 l 394 631 l 394 686 l 661 686 l 661 629 l 578 607 l 417 401 l 601 82 l 715 57 l 715 0 l 490 0 l 490 25 q 481 60 490 44 l 324 336 l 251 336 l 251 76 l 360 57 l 360 0 l 26 0 l 26 57 m 325 -260 q 342 -204 336 -229 q 349 -150 349 -179 q 338 -104 349 -124 q 313 -71 328 -85 q 344 -47 328 -54 q 375 -40 361 -40 q 426 -64 411 -40 q 442 -112 442 -87 q 424 -192 442 -158 q 387 -242 406 -225 q 368 -260 368 -260 l 325 -260 z "},"ĸ":{"ha":689,"x_min":36,"x_max":725,"o":"m 36 57 l 147 76 l 147 571 l 36 590 l 36 647 l 229 686 l 261 674 l 261 410 l 339 410 l 486 593 l 486 613 l 404 631 l 404 686 l 671 686 l 671 629 l 588 607 l 426 401 l 611 82 l 725 57 l 725 0 l 500 0 l 500 25 q 490 60 500 44 l 333 336 l 261 336 l 261 76 l 369 57 l 369 0 l 36 0 l 36 57 z "},"l":{"ha":393,"x_min":26,"x_max":360,"o":"m 26 57 l 138 76 l 138 864 l 26 883 l 26 940 l 219 971 l 251 958 l 251 76 l 360 57 l 360 0 l 26 0 l 26 57 z "},"ĺ":{"ha":393,"x_min":1,"x_max":360,"o":"m 26 0 l 26 57 l 138 76 l 138 864 l 26 883 l 26 940 l 219 971 l 251 958 l 251 76 l 360 57 l 360 0 l 26 0 m 32 949 l 1 997 l 183 1133 q 216 1155 201 1146 q 242 1164 231 1164 q 278 1140 261 1164 q 300 1068 296 1117 l 32 949 z "},"ľ":{"ha":404,"x_min":26,"x_max":442,"o":"m 26 0 l 26 57 l 138 76 l 138 864 l 26 883 l 26 940 l 219 971 l 251 958 l 251 76 l 360 57 l 360 0 l 26 0 m 322 753 q 339 819 333 783 q 344 885 344 856 q 335 929 344 910 q 310 967 325 949 q 332 988 317 978 q 372 999 347 999 q 425 976 408 999 q 442 924 442 954 q 423 852 442 892 q 385 783 404 813 q 367 753 367 753 l 322 753 z "},"ļ":{"ha":393,"x_min":26,"x_max":360,"o":"m 26 0 l 26 57 l 138 76 l 138 864 l 26 883 l 26 940 l 219 971 l 251 958 l 251 76 l 360 57 l 360 0 l 26 0 m 138 -260 q 154 -204 147 -229 q 161 -150 161 -179 q 150 -104 161 -124 q 125 -71 139 -85 q 156 -47 139 -54 q 188 -40 174 -40 q 239 -64 224 -40 q 254 -112 254 -87 q 235 -192 254 -158 q 199 -242 217 -225 q 181 -260 181 -260 l 138 -260 z "},"ŀ":{"ha":393,"x_min":26,"x_max":468,"o":"m 26 57 l 138 76 l 138 864 l 26 883 l 26 940 l 219 971 l 251 958 l 251 76 l 360 57 l 360 0 l 26 0 l 26 57 m 382 410 q 324 434 346 410 q 303 497 303 458 q 326 563 303 535 q 389 590 350 590 q 447 568 425 590 q 468 506 468 546 q 446 439 468 468 q 382 410 424 410 z "},"ǉ":{"ha":753,"x_min":26,"x_max":647,"o":"m 26 57 l 138 76 l 138 864 l 26 883 l 26 940 l 219 971 l 251 958 l 251 76 l 360 57 l 360 0 l 26 0 l 26 57 m 490 -229 q 408 -222 440 -229 q 375 -215 375 -215 l 375 -162 l 525 -126 l 525 571 l 414 590 l 414 647 l 607 686 l 639 674 l 639 -115 q 601 -199 639 -169 q 490 -229 563 -229 m 563 789 q 506 813 526 789 q 485 875 485 836 q 508 939 485 911 q 569 967 532 967 q 626 944 604 967 q 647 883 647 922 q 625 817 647 846 q 563 789 603 789 z "},"ł":{"ha":393,"x_min":-1,"x_max":394,"o":"m 26 57 l 138 76 l 138 424 l -1 374 l -1 456 l 138 507 l 138 864 l 26 883 l 26 940 l 219 971 l 251 958 l 251 549 l 394 603 l 394 515 l 251 464 l 251 76 l 360 57 l 360 0 l 26 0 l 26 57 z "},"m":{"ha":1178,"x_min":36,"x_max":1150,"o":"m 36 0 l 36 57 l 147 76 l 147 572 l 36 594 l 36 647 l 224 686 l 261 629 q 471 700 369 700 q 626 625 578 700 q 736 678 667 656 q 860 700 806 700 q 988 649 936 700 q 1039 522 1039 599 l 1039 76 l 1150 57 l 1150 0 l 817 0 l 817 57 l 925 76 l 925 490 q 894 576 925 550 q 789 603 863 603 q 721 597 761 603 q 649 585 681 592 q 649 567 649 576 q 649 550 649 558 l 649 76 l 736 56 l 736 0 l 444 0 l 444 56 l 535 76 l 535 490 q 504 577 535 551 q 400 603 474 603 q 261 583 344 603 l 261 76 l 371 57 l 371 0 l 36 0 z "},"n":{"ha":800,"x_min":36,"x_max":772,"o":"m 36 0 l 36 57 l 147 76 l 147 571 l 36 590 l 36 647 l 243 686 l 254 640 l 257 632 q 338 669 271 639 q 479 700 406 700 q 661 510 661 700 l 661 76 l 772 57 l 772 0 l 439 0 l 439 57 l 547 76 l 547 490 q 513 576 547 550 q 401 603 478 603 q 326 598 367 603 q 261 586 285 593 l 261 76 l 369 57 l 369 0 l 36 0 z "},"ń":{"ha":800,"x_min":36,"x_max":772,"o":"m 315 743 l 276 785 l 428 953 q 458 984 444 972 q 486 996 472 996 q 524 974 504 996 q 557 910 544 953 l 315 743 m 36 0 l 36 57 l 147 76 l 147 571 l 36 590 l 36 647 l 243 686 l 254 640 l 257 632 q 338 669 271 639 q 479 700 406 700 q 661 510 661 700 l 661 76 l 772 57 l 772 0 l 439 0 l 439 57 l 547 76 l 547 490 q 513 576 547 550 q 401 603 478 603 q 326 598 367 603 q 261 586 285 593 l 261 76 l 369 57 l 369 0 l 36 0 z "},"ŉ":{"ha":833,"x_min":14,"x_max":772,"o":"m 26 753 q 42 819 36 783 q 49 885 49 856 q 38 929 49 910 q 14 967 28 949 q 36 988 21 978 q 76 999 51 999 q 129 976 113 999 q 146 924 146 954 q 127 852 146 892 q 90 783 108 813 q 71 753 71 753 l 26 753 m 36 0 l 36 57 l 147 76 l 147 571 l 36 590 l 36 647 l 243 686 l 254 640 l 257 632 q 338 669 271 639 q 479 700 406 700 q 661 510 661 700 l 661 76 l 772 57 l 772 0 l 439 0 l 439 57 l 547 76 l 547 490 q 513 576 547 550 q 401 603 478 603 q 326 598 367 603 q 261 586 285 593 l 261 76 l 369 57 l 369 0 l 36 0 z "},"ň":{"ha":800,"x_min":36,"x_max":772,"o":"m 389 756 q 352 770 371 756 q 318 800 333 785 l 185 935 l 232 983 l 399 863 l 560 985 l 594 939 l 460 800 q 424 768 442 781 q 389 756 407 756 m 36 0 l 36 57 l 147 76 l 147 571 l 36 590 l 36 647 l 243 686 l 254 640 l 257 632 q 338 669 271 639 q 479 700 406 700 q 661 510 661 700 l 661 76 l 772 57 l 772 0 l 439 0 l 439 57 l 547 76 l 547 490 q 513 576 547 550 q 401 603 478 603 q 326 598 367 603 q 261 586 285 593 l 261 76 l 369 57 l 369 0 l 36 0 z "},"ņ":{"ha":800,"x_min":36,"x_max":772,"o":"m 354 -260 q 371 -204 364 -229 q 378 -150 378 -179 q 367 -104 378 -124 q 342 -71 356 -85 q 373 -47 356 -54 q 404 -40 390 -40 q 456 -64 440 -40 q 471 -112 471 -87 q 452 -192 471 -158 q 415 -242 433 -225 q 397 -260 397 -260 l 354 -260 m 36 0 l 36 57 l 147 76 l 147 571 l 36 590 l 36 647 l 243 686 l 254 640 l 257 632 q 338 669 271 639 q 479 700 406 700 q 661 510 661 700 l 661 76 l 772 57 l 772 0 l 439 0 l 439 57 l 547 76 l 547 490 q 513 576 547 550 q 401 603 478 603 q 326 598 367 603 q 261 586 285 593 l 261 76 l 369 57 l 369 0 l 36 0 z "},"ṅ":{"ha":800,"x_min":36,"x_max":772,"o":"m 36 0 l 36 57 l 147 76 l 147 571 l 36 590 l 36 647 l 243 686 l 254 640 l 257 632 q 338 669 271 639 q 479 700 406 700 q 661 510 661 700 l 661 76 l 772 57 l 772 0 l 439 0 l 439 57 l 547 76 l 547 490 q 513 576 547 550 q 401 603 478 603 q 326 598 367 603 q 261 586 285 593 l 261 76 l 369 57 l 369 0 l 36 0 z "},"ŋ":{"ha":767,"x_min":36,"x_max":661,"o":"m 513 -229 q 397 -215 449 -229 l 397 -162 l 547 -126 l 547 490 q 513 576 547 550 q 401 603 478 603 q 326 598 367 603 q 261 586 285 593 l 261 76 l 369 57 l 369 0 l 36 0 l 36 57 l 147 76 l 147 571 l 36 590 l 36 647 l 243 686 l 256 638 l 257 632 q 338 669 271 639 q 479 700 406 700 q 661 510 661 700 l 661 -115 q 513 -229 661 -229 z "},"ɲ":{"ha":785,"x_min":-18,"x_max":757,"o":"m 97 -229 q -18 -215 33 -229 l -18 -162 l 132 -126 l 132 571 l 21 590 l 21 647 l 228 686 l 240 636 l 242 632 q 323 669 256 639 q 464 700 390 700 q 646 510 646 700 l 646 76 l 757 57 l 757 0 l 424 0 l 424 57 l 532 76 l 532 490 q 498 576 532 550 q 386 603 464 603 q 310 598 350 603 q 246 586 269 593 l 246 -115 q 97 -229 246 -229 z "},"ǌ":{"ha":1160,"x_min":36,"x_max":1054,"o":"m 36 0 l 36 57 l 147 76 l 147 571 l 36 590 l 36 647 l 243 686 l 254 640 l 257 632 q 338 669 271 639 q 479 700 406 700 q 661 510 661 700 l 661 76 l 772 57 l 772 0 l 439 0 l 439 57 l 547 76 l 547 490 q 513 576 547 550 q 401 603 478 603 q 326 598 367 603 q 261 586 285 593 l 261 76 l 369 57 l 369 0 l 36 0 m 897 -229 q 815 -222 847 -229 q 782 -215 782 -215 l 782 -162 l 932 -126 l 932 571 l 821 590 l 821 647 l 1014 686 l 1046 674 l 1046 -115 q 1008 -199 1046 -169 q 897 -229 969 -229 m 969 789 q 913 813 933 789 q 892 875 892 836 q 915 939 892 911 q 976 967 939 967 q 1033 944 1011 967 q 1054 883 1054 922 q 1032 817 1054 846 q 969 789 1010 789 z "},"ñ":{"ha":800,"x_min":36,"x_max":772,"o":"m 493 807 q 447 814 472 807 q 394 828 421 821 l 278 863 l 183 815 l 153 843 l 192 908 q 279 958 221 958 q 326 951 300 958 q 378 938 351 944 l 494 903 l 589 950 l 619 922 l 581 857 q 493 807 551 807 m 36 0 l 36 57 l 147 76 l 147 571 l 36 590 l 36 647 l 243 686 l 254 640 l 257 632 q 338 669 271 639 q 479 700 406 700 q 661 510 661 700 l 661 76 l 772 57 l 772 0 l 439 0 l 439 57 l 547 76 l 547 490 q 513 576 547 550 q 401 603 478 603 q 326 598 367 603 q 261 586 285 593 l 261 76 l 369 57 l 369 0 l 36 0 z "},"o":{"ha":690,"x_min":35,"x_max":651,"o":"m 328 -12 q 109 82 183 -12 q 35 333 35 176 q 120 590 35 481 q 353 700 206 700 q 576 608 501 700 q 651 365 651 517 q 615 174 651 260 q 506 38 578 89 q 328 -12 433 -12 m 354 68 q 490 140 453 68 q 526 340 526 213 q 487 551 526 482 q 344 619 447 619 q 194 547 228 619 q 160 340 160 474 q 201 142 160 217 q 354 68 242 68 z "},"ó":{"ha":724,"x_min":56,"x_max":672,"o":"m 349 -12 q 131 82 206 -12 q 56 333 56 176 q 140 590 56 481 q 374 700 225 700 q 597 608 522 700 q 672 365 672 517 q 635 174 672 260 q 526 38 599 89 q 349 -12 454 -12 m 375 68 q 510 140 474 68 q 547 340 547 213 q 508 551 547 482 q 365 619 468 619 q 215 547 249 619 q 181 340 181 474 q 222 142 181 217 q 375 68 263 68 m 251 785 l 403 953 q 433 984 419 972 q 461 996 447 996 q 499 974 479 996 q 532 910 519 953 l 290 743 l 251 785 z "},"ŏ":{"ha":690,"x_min":35,"x_max":651,"o":"m 328 -12 q 109 82 183 -12 q 35 333 35 176 q 120 590 35 481 q 353 700 206 700 q 576 608 501 700 q 651 365 651 517 q 615 174 651 260 q 506 38 578 89 q 328 -12 433 -12 m 354 68 q 490 140 453 68 q 526 340 526 213 q 487 551 526 482 q 344 619 447 619 q 194 547 228 619 q 160 340 160 474 q 201 142 160 217 q 354 68 242 68 z "},"ǒ":{"ha":690,"x_min":35,"x_max":651,"o":"m 328 -12 q 109 82 183 -12 q 35 333 35 176 q 120 590 35 481 q 353 700 206 700 q 576 608 501 700 q 651 365 651 517 q 615 174 651 260 q 506 38 578 89 q 328 -12 433 -12 m 354 68 q 490 140 453 68 q 526 340 526 213 q 487 551 526 482 q 344 619 447 619 q 194 547 228 619 q 160 340 160 474 q 201 142 160 217 q 354 68 242 68 z "},"ô":{"ha":724,"x_min":56,"x_max":672,"o":"m 349 -12 q 131 82 206 -12 q 56 333 56 176 q 140 590 56 481 q 374 700 225 700 q 597 608 522 700 q 672 365 672 517 q 635 174 672 260 q 526 38 599 89 q 349 -12 454 -12 m 375 68 q 510 140 474 68 q 547 340 547 213 q 508 551 547 482 q 365 619 468 619 q 215 547 249 619 q 181 340 181 474 q 222 142 181 217 q 375 68 263 68 m 160 801 l 307 949 q 342 976 325 967 q 371 986 358 986 q 395 979 382 986 q 424 957 408 972 l 571 804 l 522 756 l 358 872 l 199 757 l 160 801 z "},"ố":{"ha":690,"x_min":35,"x_max":701,"o":"m 328 -12 q 109 82 183 -12 q 35 333 35 176 q 120 590 35 481 q 353 700 206 700 q 576 608 501 700 q 651 365 651 517 q 615 174 651 260 q 506 38 578 89 q 328 -12 433 -12 m 354 68 q 490 140 453 68 q 526 340 526 213 q 487 551 526 482 q 344 619 447 619 q 194 547 228 619 q 160 340 160 474 q 201 142 160 217 q 354 68 242 68 z "},"ộ":{"ha":690,"x_min":35,"x_max":651,"o":"m 328 -12 q 109 82 183 -12 q 35 333 35 176 q 120 590 35 481 q 353 700 206 700 q 576 608 501 700 q 651 365 651 517 q 615 174 651 260 q 506 38 578 89 q 328 -12 433 -12 m 354 68 q 490 140 453 68 q 526 340 526 213 q 487 551 526 482 q 344 619 447 619 q 194 547 228 619 q 160 340 160 474 q 201 142 160 217 q 354 68 242 68 m 342 -239 q 285 -215 306 -239 q 264 -153 264 -192 q 288 -89 264 -117 q 349 -61 311 -61 q 405 -83 383 -61 q 426 -144 426 -106 q 404 -210 426 -182 q 342 -239 382 -239 z "},"ồ":{"ha":690,"x_min":35,"x_max":651,"o":"m 328 -12 q 109 82 183 -12 q 35 333 35 176 q 120 590 35 481 q 353 700 206 700 q 576 608 501 700 q 651 365 651 517 q 615 174 651 260 q 506 38 578 89 q 328 -12 433 -12 m 354 68 q 490 140 453 68 q 526 340 526 213 q 487 551 526 482 q 344 619 447 619 q 194 547 228 619 q 160 340 160 474 q 201 142 160 217 q 354 68 242 68 z "},"ổ":{"ha":690,"x_min":35,"x_max":651,"o":"m 328 -12 q 109 82 183 -12 q 35 333 35 176 q 120 590 35 481 q 353 700 206 700 q 576 608 501 700 q 651 365 651 517 q 615 174 651 260 q 506 38 578 89 q 328 -12 433 -12 m 354 68 q 490 140 453 68 q 526 340 526 213 q 487 551 526 482 q 344 619 447 619 q 194 547 228 619 q 160 340 160 474 q 201 142 160 217 q 354 68 242 68 z "},"ỗ":{"ha":690,"x_min":35,"x_max":651,"o":"m 328 -12 q 109 82 183 -12 q 35 333 35 176 q 120 590 35 481 q 353 700 206 700 q 576 608 501 700 q 651 365 651 517 q 615 174 651 260 q 506 38 578 89 q 328 -12 433 -12 m 354 68 q 490 140 453 68 q 526 340 526 213 q 487 551 526 482 q 344 619 447 619 q 194 547 228 619 q 160 340 160 474 q 201 142 160 217 q 354 68 242 68 z "},"ȍ":{"ha":690,"x_min":35,"x_max":651,"o":"m 328 -12 q 109 82 183 -12 q 35 333 35 176 q 120 590 35 481 q 353 700 206 700 q 576 608 501 700 q 651 365 651 517 q 615 174 651 260 q 506 38 578 89 q 328 -12 433 -12 m 354 68 q 490 140 453 68 q 526 340 526 213 q 487 551 526 482 q 344 619 447 619 q 194 547 228 619 q 160 340 160 474 q 201 142 160 217 q 354 68 242 68 z "},"ö":{"ha":724,"x_min":56,"x_max":672,"o":"m 349 -12 q 131 82 206 -12 q 56 333 56 176 q 140 590 56 481 q 374 700 225 700 q 597 608 522 700 q 672 365 672 517 q 635 174 672 260 q 526 38 599 89 q 349 -12 454 -12 m 375 68 q 510 140 474 68 q 547 340 547 213 q 508 551 547 482 q 365 619 468 619 q 215 547 249 619 q 181 340 181 474 q 222 142 181 217 q 375 68 263 68 m 215 799 q 164 820 183 799 q 144 876 144 842 q 165 935 144 910 q 221 960 186 960 q 272 940 253 960 q 292 885 292 919 q 272 824 292 850 q 215 799 251 799 m 508 799 q 457 820 476 799 q 438 876 438 842 q 458 935 438 910 q 514 960 479 960 q 565 940 546 960 q 585 885 585 919 q 565 824 585 850 q 508 799 544 799 z "},"ọ":{"ha":690,"x_min":35,"x_max":651,"o":"m 328 -12 q 109 82 183 -12 q 35 333 35 176 q 120 590 35 481 q 353 700 206 700 q 576 608 501 700 q 651 365 651 517 q 615 174 651 260 q 506 38 578 89 q 328 -12 433 -12 m 354 68 q 490 140 453 68 q 526 340 526 213 q 487 551 526 482 q 344 619 447 619 q 194 547 228 619 q 160 340 160 474 q 201 142 160 217 q 354 68 242 68 m 342 -239 q 285 -215 306 -239 q 264 -153 264 -192 q 288 -89 264 -117 q 349 -61 311 -61 q 405 -83 383 -61 q 426 -144 426 -106 q 404 -210 426 -182 q 342 -239 382 -239 z "},"ò":{"ha":724,"x_min":56,"x_max":672,"o":"m 349 -12 q 131 82 206 -12 q 56 333 56 176 q 140 590 56 481 q 374 700 225 700 q 597 608 522 700 q 672 365 672 517 q 635 174 672 260 q 526 38 599 89 q 349 -12 454 -12 m 375 68 q 510 140 474 68 q 547 340 547 213 q 508 551 547 482 q 365 619 468 619 q 215 547 249 619 q 181 340 181 474 q 222 142 181 217 q 375 68 263 68 m 207 910 q 240 974 219 953 q 278 996 260 996 q 306 984 292 996 q 336 953 319 972 l 488 785 l 449 743 l 207 910 z "},"ỏ":{"ha":690,"x_min":35,"x_max":651,"o":"m 328 -12 q 109 82 183 -12 q 35 333 35 176 q 120 590 35 481 q 353 700 206 700 q 576 608 501 700 q 651 365 651 517 q 615 174 651 260 q 506 38 578 89 q 328 -12 433 -12 m 354 68 q 490 140 453 68 q 526 340 526 213 q 487 551 526 482 q 344 619 447 619 q 194 547 228 619 q 160 340 160 474 q 201 142 160 217 q 354 68 242 68 m 311 744 q 299 789 299 772 q 351 844 299 821 q 389 869 378 858 q 400 894 400 879 q 332 931 400 931 q 244 919 292 931 q 235 943 238 933 q 232 964 232 953 q 246 994 232 983 q 315 1006 260 1006 q 446 976 397 1006 q 494 892 494 947 q 414 803 494 838 q 381 782 386 792 q 376 760 376 772 q 376 757 376 758 q 376 753 376 756 l 311 744 z "},"ơ":{"ha":690,"x_min":35,"x_max":757,"o":"m 328 -12 q 109 82 183 -12 q 35 333 35 176 q 120 590 35 481 q 353 700 206 700 q 576 608 501 700 q 651 365 651 517 q 615 174 651 260 q 506 38 578 89 q 328 -12 433 -12 m 354 68 q 490 140 453 68 q 526 340 526 213 q 487 551 526 482 q 344 619 447 619 q 194 547 228 619 q 160 340 160 474 q 201 142 160 217 q 354 68 242 68 m 524 440 l 521 482 q 615 558 564 511 q 665 658 665 606 q 636 706 665 685 l 636 726 l 713 781 q 742 753 726 769 q 757 694 757 738 q 708 583 757 650 q 524 440 658 517 z "},"ớ":{"ha":690,"x_min":35,"x_max":757,"o":"m 328 -12 q 109 82 183 -12 q 35 333 35 176 q 120 590 35 481 q 353 700 206 700 q 576 608 501 700 q 651 365 651 517 q 615 174 651 260 q 506 38 578 89 q 328 -12 433 -12 m 354 68 q 490 140 453 68 q 526 340 526 213 q 487 551 526 482 q 344 619 447 619 q 194 547 228 619 q 160 340 160 474 q 201 142 160 217 q 354 68 242 68 m 524 440 l 521 482 q 615 558 564 511 q 665 658 665 606 q 636 706 665 685 l 636 726 l 713 781 q 742 753 726 769 q 757 694 757 738 q 708 583 757 650 q 524 440 658 517 z "},"ợ":{"ha":690,"x_min":35,"x_max":757,"o":"m 328 -12 q 109 82 183 -12 q 35 333 35 176 q 120 590 35 481 q 353 700 206 700 q 576 608 501 700 q 651 365 651 517 q 615 174 651 260 q 506 38 578 89 q 328 -12 433 -12 m 354 68 q 490 140 453 68 q 526 340 526 213 q 487 551 526 482 q 344 619 447 619 q 194 547 228 619 q 160 340 160 474 q 201 142 160 217 q 354 68 242 68 m 524 440 l 521 482 q 615 558 564 511 q 665 658 665 606 q 636 706 665 685 l 636 726 l 713 781 q 742 753 726 769 q 757 694 757 738 q 708 583 757 650 q 524 440 658 517 m 342 -239 q 285 -215 306 -239 q 264 -153 264 -192 q 288 -89 264 -117 q 349 -61 311 -61 q 405 -83 383 -61 q 426 -144 426 -106 q 404 -210 426 -182 q 342 -239 382 -239 z "},"ờ":{"ha":690,"x_min":35,"x_max":757,"o":"m 328 -12 q 109 82 183 -12 q 35 333 35 176 q 120 590 35 481 q 353 700 206 700 q 576 608 501 700 q 651 365 651 517 q 615 174 651 260 q 506 38 578 89 q 328 -12 433 -12 m 354 68 q 490 140 453 68 q 526 340 526 213 q 487 551 526 482 q 344 619 447 619 q 194 547 228 619 q 160 340 160 474 q 201 142 160 217 q 354 68 242 68 m 524 440 l 521 482 q 615 558 564 511 q 665 658 665 606 q 636 706 665 685 l 636 726 l 713 781 q 742 753 726 769 q 757 694 757 738 q 708 583 757 650 q 524 440 658 517 z "},"ở":{"ha":690,"x_min":35,"x_max":757,"o":"m 328 -12 q 109 82 183 -12 q 35 333 35 176 q 120 590 35 481 q 353 700 206 700 q 576 608 501 700 q 651 365 651 517 q 615 174 651 260 q 506 38 578 89 q 328 -12 433 -12 m 354 68 q 490 140 453 68 q 526 340 526 213 q 487 551 526 482 q 344 619 447 619 q 194 547 228 619 q 160 340 160 474 q 201 142 160 217 q 354 68 242 68 m 524 440 l 521 482 q 615 558 564 511 q 665 658 665 606 q 636 706 665 685 l 636 726 l 713 781 q 742 753 726 769 q 757 694 757 738 q 708 583 757 650 q 524 440 658 517 m 311 744 q 299 789 299 772 q 351 844 299 821 q 389 869 378 858 q 400 894 400 879 q 332 931 400 931 q 244 919 292 931 q 235 943 238 933 q 232 964 232 953 q 246 994 232 983 q 315 1006 260 1006 q 446 976 397 1006 q 494 892 494 947 q 414 803 494 838 q 381 782 386 792 q 376 760 376 772 q 376 757 376 758 q 376 753 376 756 l 311 744 z "},"ỡ":{"ha":690,"x_min":35,"x_max":757,"o":"m 328 -12 q 109 82 183 -12 q 35 333 35 176 q 120 590 35 481 q 353 700 206 700 q 576 608 501 700 q 651 365 651 517 q 615 174 651 260 q 506 38 578 89 q 328 -12 433 -12 m 354 68 q 490 140 453 68 q 526 340 526 213 q 487 551 526 482 q 344 619 447 619 q 194 547 228 619 q 160 340 160 474 q 201 142 160 217 q 354 68 242 68 m 524 440 l 521 482 q 615 558 564 511 q 665 658 665 606 q 636 706 665 685 l 636 726 l 713 781 q 742 753 726 769 q 757 694 757 738 q 708 583 757 650 q 524 440 658 517 z "},"ő":{"ha":724,"x_min":56,"x_max":672,"o":"m 349 -12 q 131 82 206 -12 q 56 333 56 176 q 140 590 56 481 q 374 700 225 700 q 597 608 522 700 q 672 365 672 517 q 635 174 672 260 q 526 38 599 89 q 349 -12 454 -12 m 375 68 q 510 140 474 68 q 547 340 547 213 q 508 551 547 482 q 365 619 468 619 q 215 547 249 619 q 181 340 181 474 q 222 142 181 217 q 375 68 263 68 m 276 929 q 302 976 289 953 q 343 1000 315 1000 q 376 985 357 1000 q 415 935 394 969 l 238 744 l 196 775 l 276 929 m 500 929 q 526 976 513 953 q 567 1000 539 1000 q 599 985 581 1000 q 639 935 618 969 l 461 744 l 419 775 l 500 929 z "},"ȏ":{"ha":690,"x_min":35,"x_max":651,"o":"m 328 -12 q 109 82 183 -12 q 35 333 35 176 q 120 590 35 481 q 353 700 206 700 q 576 608 501 700 q 651 365 651 517 q 615 174 651 260 q 506 38 578 89 q 328 -12 433 -12 m 354 68 q 490 140 453 68 q 526 340 526 213 q 487 551 526 482 q 344 619 447 619 q 194 547 228 619 q 160 340 160 474 q 201 142 160 217 q 354 68 242 68 m 485 771 q 476 801 485 771 q 435 863 468 832 q 333 893 403 893 q 233 862 264 893 q 192 799 201 831 q 183 768 183 768 l 136 779 q 141 810 136 779 q 165 881 146 840 q 226 953 183 922 q 343 983 268 983 q 488 935 443 983 q 544 838 533 886 q 556 789 556 789 l 485 771 z "},"ō":{"ha":724,"x_min":56,"x_max":672,"o":"m 349 -12 q 131 82 206 -12 q 56 333 56 176 q 140 590 56 481 q 374 700 225 700 q 597 608 522 700 q 672 365 672 517 q 635 174 672 260 q 526 38 599 89 q 349 -12 454 -12 m 375 68 q 510 140 474 68 q 547 340 547 213 q 508 551 547 482 q 365 619 468 619 q 215 547 249 619 q 181 340 181 474 q 222 142 181 217 q 375 68 263 68 m 150 921 l 611 921 l 597 842 l 136 842 l 150 921 z "},"ǫ":{"ha":690,"x_min":35,"x_max":651,"o":"m 328 -12 q 109 82 183 -12 q 35 333 35 176 q 120 590 35 481 q 353 700 206 700 q 576 608 501 700 q 651 365 651 517 q 615 174 651 260 q 506 38 578 89 q 328 -12 433 -12 m 354 68 q 490 140 453 68 q 526 340 526 213 q 487 551 526 482 q 344 619 447 619 q 194 547 228 619 q 160 340 160 474 q 201 142 160 217 q 354 68 242 68 z "},"ø":{"ha":724,"x_min":56,"x_max":672,"o":"m 215 -107 l 138 -74 l 183 32 q 88 152 119 75 q 56 333 56 229 q 140 590 56 481 q 374 700 225 700 q 471 688 428 700 l 518 794 l 593 761 l 546 653 q 640 538 608 611 q 672 365 672 464 q 635 174 672 260 q 526 38 599 89 q 349 -12 454 -12 q 303 -10 325 -12 q 261 -1 281 -7 l 215 -107 m 228 133 l 436 608 q 365 619 403 619 q 215 547 249 619 q 181 340 181 474 q 191 222 181 274 q 228 133 201 169 m 375 68 q 510 140 474 68 q 547 340 547 213 q 504 557 547 492 l 296 81 q 375 68 329 68 z "},"ǿ":{"ha":724,"x_min":56,"x_max":672,"o":"m 215 -107 l 138 -74 l 183 32 q 88 152 119 75 q 56 333 56 229 q 140 590 56 481 q 374 700 225 700 q 471 688 428 700 l 518 794 l 593 761 l 546 653 q 640 538 608 611 q 672 365 672 464 q 635 174 672 260 q 526 38 599 89 q 349 -12 454 -12 q 303 -10 325 -12 q 261 -1 281 -7 l 215 -107 m 228 133 l 436 608 q 365 619 403 619 q 215 547 249 619 q 181 340 181 474 q 191 222 181 274 q 228 133 201 169 m 375 68 q 510 140 474 68 q 547 340 547 213 q 504 557 547 492 l 296 81 q 375 68 329 68 z "},"õ":{"ha":724,"x_min":56,"x_max":672,"o":"m 349 -12 q 131 82 206 -12 q 56 333 56 176 q 140 590 56 481 q 374 700 225 700 q 597 608 522 700 q 672 365 672 517 q 635 174 672 260 q 526 38 599 89 q 349 -12 454 -12 m 375 68 q 510 140 474 68 q 547 340 547 213 q 508 551 547 482 q 365 619 468 619 q 215 547 249 619 q 181 340 181 474 q 222 142 181 217 q 375 68 263 68 m 168 899 q 256 949 197 949 q 302 942 276 949 q 354 928 328 935 l 471 893 l 565 940 l 596 913 l 557 847 q 469 797 528 797 q 423 804 449 797 q 371 818 397 811 l 254 853 l 160 806 l 129 833 l 168 899 z "},"œ":{"ha":1149,"x_min":60,"x_max":1092,"o":"m 1081 79 q 1053 56 1081 79 q 976 10 1026 33 q 853 -12 925 -12 q 703 22 765 -12 q 607 115 642 57 q 503 22 567 56 q 353 -12 439 -12 q 134 82 208 -12 q 60 333 60 176 q 145 590 60 481 q 378 700 231 700 q 625 575 549 700 q 864 700 714 700 q 995 663 944 700 q 1069 569 1046 626 q 1092 447 1092 511 q 1078 348 1092 372 q 1025 324 1064 324 l 676 324 q 724 157 676 229 q 894 85 772 85 q 1019 101 976 85 q 1061 118 1061 118 l 1081 79 m 379 68 q 515 140 478 68 q 551 340 551 213 q 512 551 551 482 q 369 619 472 619 q 219 547 253 619 q 185 340 185 474 q 226 142 185 217 q 379 68 267 68 m 975 399 q 979 454 979 424 q 951 576 979 532 q 843 619 924 619 q 719 560 758 619 q 678 388 679 500 l 975 399 z "},"p":{"ha":750,"x_min":19,"x_max":694,"o":"m 35 -229 l 35 -171 l 131 -151 l 131 571 l 19 590 l 19 647 l 226 686 l 242 629 l 243 625 q 438 700 332 700 q 628 619 563 700 q 694 383 694 538 q 613 103 694 207 q 390 0 531 0 q 244 47 307 0 l 244 40 l 244 26 l 244 -151 l 365 -168 l 365 -229 l 35 -229 m 382 81 q 525 144 481 81 q 569 344 569 207 q 528 543 569 483 q 388 603 486 603 q 244 582 317 603 l 244 115 q 382 81 303 81 z "},"þ":{"ha":750,"x_min":17,"x_max":694,"o":"m 35 -229 l 35 -171 l 131 -151 l 131 861 l 17 879 l 17 933 l 207 971 l 244 951 l 244 629 q 438 700 329 700 q 628 617 561 700 q 694 383 694 535 q 615 104 694 208 q 401 0 535 0 q 244 51 300 0 l 244 43 l 244 31 l 244 -151 l 365 -168 l 365 -229 l 35 -229 m 385 82 q 526 144 482 82 q 569 344 569 207 q 527 544 569 483 q 388 606 485 606 q 244 585 317 606 l 244 119 q 385 82 308 82 z "},"q":{"ha":719,"x_min":56,"x_max":708,"o":"m 403 -229 l 403 -171 l 506 -151 l 506 57 l 506 64 l 506 69 q 318 0 436 0 q 124 79 192 0 q 56 303 56 158 q 142 588 56 475 q 360 700 228 700 q 514 647 450 700 l 521 647 l 576 686 l 619 686 l 619 -151 l 708 -171 l 708 -229 l 403 -229 m 361 86 q 506 126 436 86 l 506 590 q 374 613 449 613 q 229 545 279 613 q 179 349 179 478 q 222 148 179 210 q 361 86 265 86 z "},"r":{"ha":499,"x_min":29,"x_max":469,"o":"m 42 57 l 138 76 l 138 578 l 29 597 l 29 654 l 229 692 l 251 615 q 278 637 251 615 q 341 679 304 658 q 408 700 378 700 q 469 632 469 700 q 449 576 469 596 q 428 557 428 557 l 364 574 q 339 579 347 578 q 314 581 331 581 q 277 576 297 581 q 251 571 257 572 l 251 78 l 379 60 l 379 0 l 42 0 l 42 57 z "},"ŕ":{"ha":474,"x_min":29,"x_max":469,"o":"m 42 57 l 138 76 l 138 578 l 29 597 l 29 654 l 229 692 l 251 615 q 278 637 251 615 q 341 679 304 658 q 408 700 378 700 q 469 632 469 700 q 449 576 469 596 q 428 557 428 557 l 364 574 q 339 579 347 578 q 314 581 331 581 q 277 576 297 581 q 251 571 257 572 l 251 78 l 379 60 l 379 0 l 42 0 l 42 57 m 124 785 l 275 953 q 306 984 292 972 q 333 996 319 996 q 372 974 351 996 q 404 910 392 953 l 163 743 l 124 785 z "},"ř":{"ha":474,"x_min":29,"x_max":469,"o":"m 42 0 l 42 57 l 138 76 l 138 578 l 29 597 l 29 654 l 229 692 l 251 615 q 278 637 251 615 q 341 679 304 658 q 408 700 378 700 q 469 632 469 700 q 449 576 469 596 q 428 557 428 557 l 364 574 q 339 579 347 578 q 314 581 331 581 q 277 576 297 581 q 251 571 257 572 l 251 78 l 379 60 l 379 0 l 42 0 m 254 756 q 217 770 236 756 q 183 800 199 785 l 50 935 l 97 983 l 264 863 l 425 985 l 460 939 l 325 800 q 290 768 307 781 q 254 756 272 756 z "},"ŗ":{"ha":474,"x_min":29,"x_max":469,"o":"m 42 0 l 42 57 l 138 76 l 138 578 l 29 597 l 29 654 l 229 692 l 251 615 q 278 637 251 615 q 341 679 304 658 q 408 700 378 700 q 469 632 469 700 q 449 576 469 596 q 428 557 428 557 l 364 574 q 339 579 347 578 q 314 581 331 581 q 277 576 297 581 q 251 571 257 572 l 251 78 l 379 60 l 379 0 l 42 0 m 153 -260 q 170 -204 164 -229 q 176 -150 176 -179 q 166 -104 176 -124 q 140 -71 156 -85 q 172 -47 156 -54 q 203 -40 189 -40 q 254 -64 239 -40 q 269 -112 269 -87 q 251 -192 269 -158 q 215 -242 233 -225 q 196 -260 196 -260 l 153 -260 z "},"ȑ":{"ha":499,"x_min":-46,"x_max":469,"o":"m 42 57 l 138 76 l 138 578 l 29 597 l 29 654 l 229 692 l 251 615 q 278 637 251 615 q 341 679 304 658 q 408 700 378 700 q 469 632 469 700 q 449 576 469 596 q 428 557 428 557 l 364 574 q 339 579 347 578 q 314 581 331 581 q 277 576 297 581 q 251 571 257 572 l 251 78 l 379 60 l 379 0 l 42 0 l 42 57 z "},"ṛ":{"ha":499,"x_min":29,"x_max":469,"o":"m 42 57 l 138 76 l 138 578 l 29 597 l 29 654 l 229 692 l 251 615 q 278 637 251 615 q 341 679 304 658 q 408 700 378 700 q 469 632 469 700 q 449 576 469 596 q 428 557 428 557 l 364 574 q 339 579 347 578 q 314 581 331 581 q 277 576 297 581 q 251 571 257 572 l 251 78 l 379 60 l 379 0 l 42 0 l 42 57 m 190 -239 q 133 -215 154 -239 q 113 -153 113 -192 q 136 -89 113 -117 q 197 -61 160 -61 q 253 -83 232 -61 q 275 -144 275 -106 q 253 -210 275 -182 q 190 -239 231 -239 z "},"ȓ":{"ha":499,"x_min":22,"x_max":469,"o":"m 42 57 l 138 76 l 138 578 l 29 597 l 29 654 l 229 692 l 251 615 q 278 637 251 615 q 341 679 304 658 q 408 700 378 700 q 469 632 469 700 q 449 576 469 596 q 428 557 428 557 l 364 574 q 339 579 347 578 q 314 581 331 581 q 277 576 297 581 q 251 571 257 572 l 251 78 l 379 60 l 379 0 l 42 0 l 42 57 m 371 771 q 363 801 371 771 q 322 863 354 832 q 219 893 289 893 q 119 862 150 893 q 78 799 88 831 q 69 768 69 768 l 22 779 q 27 810 22 779 q 51 881 32 840 q 112 953 69 922 q 229 983 154 983 q 374 935 329 983 q 431 838 419 886 q 442 789 442 789 l 371 771 z "},"s":{"ha":574,"x_min":42,"x_max":518,"o":"m 58 211 l 115 211 l 135 103 q 186 76 153 89 q 267 64 219 64 q 381 99 353 64 q 410 185 410 133 q 373 260 410 238 q 282 296 336 283 q 174 326 228 308 q 83 384 119 344 q 46 504 46 424 q 119 651 46 603 q 299 700 192 700 q 421 686 364 700 q 497 663 478 672 l 478 489 l 421 489 l 401 600 q 365 610 401 600 q 288 621 328 621 q 182 597 211 621 q 153 519 153 572 q 190 451 153 472 q 281 416 226 429 q 390 384 336 403 q 481 324 444 365 q 518 203 518 283 q 441 33 518 79 q 261 -12 364 -12 q 123 8 185 -12 q 42 42 61 28 l 58 211 z "},"ś":{"ha":564,"x_min":36,"x_max":513,"o":"m 53 211 l 110 211 l 129 103 q 181 76 147 89 q 261 64 214 64 q 376 99 347 64 q 404 185 404 133 q 367 260 404 238 q 276 296 331 283 q 168 326 222 308 q 77 384 114 344 q 40 504 40 424 q 113 651 40 603 q 293 700 186 700 q 415 686 358 700 q 492 663 472 672 l 472 489 l 415 489 l 396 600 q 359 610 396 600 q 282 621 322 621 q 176 597 206 621 q 147 519 147 572 q 184 451 147 472 q 276 416 221 429 q 385 384 331 403 q 476 324 439 365 q 513 203 513 283 q 435 33 513 79 q 256 -12 358 -12 q 117 8 179 -12 q 36 42 56 28 l 53 211 m 154 785 l 306 953 q 336 984 322 972 q 364 996 350 996 q 402 974 382 996 q 435 910 422 953 l 193 743 l 154 785 z "},"ꞌ":{"ha":175,"x_min":26,"x_max":149,"o":"m 26 979 q 100 997 68 997 q 142 978 135 997 q 149 944 149 960 q 145 895 149 925 q 132 819 142 865 l 82 575 l 26 575 l 26 979 z "},"š":{"ha":564,"x_min":36,"x_max":513,"o":"m 256 -12 q 117 8 179 -12 q 36 42 56 28 l 53 211 l 110 211 l 129 103 q 181 76 147 89 q 261 64 214 64 q 376 99 347 64 q 404 185 404 133 q 367 260 404 238 q 276 296 331 283 q 168 326 222 308 q 77 384 114 344 q 40 504 40 424 q 113 651 40 603 q 293 700 186 700 q 415 686 358 700 q 492 663 472 672 l 472 489 l 415 489 l 396 600 q 359 610 396 600 q 282 621 322 621 q 176 597 206 621 q 147 519 147 572 q 184 451 147 472 q 276 416 221 429 q 385 384 331 403 q 476 324 439 365 q 513 203 513 283 q 435 33 513 79 q 256 -12 358 -12 m 275 756 q 238 770 257 756 q 204 800 219 785 l 71 935 l 118 983 l 285 863 l 446 985 l 481 939 l 346 800 q 310 768 328 781 q 275 756 293 756 z "},"ş":{"ha":564,"x_min":36,"x_max":513,"o":"m 244 -260 q 189 -253 213 -260 q 142 -237 165 -247 l 164 -186 q 197 -197 179 -192 q 239 -201 215 -201 q 321 -160 321 -201 q 310 -130 321 -136 q 278 -119 299 -124 l 226 -108 l 200 -82 l 229 -11 q 107 11 161 -7 q 36 42 53 29 l 53 211 l 110 211 l 129 103 q 181 76 147 89 q 261 64 214 64 q 376 99 347 64 q 404 185 404 133 q 367 260 404 238 q 276 296 331 283 q 168 326 222 308 q 77 384 114 344 q 40 504 40 424 q 113 651 40 603 q 293 700 186 700 q 415 686 358 700 q 492 663 472 672 l 472 489 l 415 489 l 396 600 q 359 610 396 600 q 282 621 322 621 q 176 597 206 621 q 147 519 147 572 q 184 451 147 472 q 276 416 221 429 q 385 384 331 403 q 476 324 439 365 q 513 203 513 283 q 447 42 513 89 q 292 -11 382 -6 l 292 -40 l 315 -46 q 385 -72 356 -56 q 415 -133 415 -87 q 361 -233 415 -206 q 244 -260 307 -260 z "},"ŝ":{"ha":574,"x_min":42,"x_max":518,"o":"m 58 211 l 115 211 l 135 103 q 186 76 153 89 q 267 64 219 64 q 381 99 353 64 q 410 185 410 133 q 373 260 410 238 q 282 296 336 283 q 174 326 228 308 q 83 384 119 344 q 46 504 46 424 q 119 651 46 603 q 299 700 192 700 q 421 686 364 700 q 497 663 478 672 l 478 489 l 421 489 l 401 600 q 365 610 401 600 q 288 621 328 621 q 182 597 211 621 q 153 519 153 572 q 190 451 153 472 q 281 416 226 429 q 390 384 336 403 q 481 324 444 365 q 518 203 518 283 q 441 33 518 79 q 261 -12 364 -12 q 123 8 185 -12 q 42 42 61 28 l 58 211 z "},"ș":{"ha":564,"x_min":36,"x_max":513,"o":"m 226 -260 q 243 -204 236 -229 q 250 -150 250 -179 q 239 -104 250 -124 q 214 -71 228 -85 q 245 -47 228 -54 q 276 -40 263 -40 q 328 -64 313 -40 q 343 -112 343 -87 q 324 -192 343 -158 q 288 -242 306 -225 q 269 -260 269 -260 l 226 -260 m 53 211 l 110 211 l 129 103 q 181 76 147 89 q 261 64 214 64 q 376 99 347 64 q 404 185 404 133 q 367 260 404 238 q 276 296 331 283 q 168 326 222 308 q 77 384 114 344 q 40 504 40 424 q 113 651 40 603 q 293 700 186 700 q 415 686 358 700 q 492 663 472 672 l 472 489 l 415 489 l 396 600 q 359 610 396 600 q 282 621 322 621 q 176 597 206 621 q 147 519 147 572 q 184 451 147 472 q 276 416 221 429 q 385 384 331 403 q 476 324 439 365 q 513 203 513 283 q 435 33 513 79 q 256 -12 358 -12 q 117 8 179 -12 q 36 42 56 28 l 53 211 z "},"ṣ":{"ha":574,"x_min":42,"x_max":518,"o":"m 58 211 l 115 211 l 135 103 q 186 76 153 89 q 267 64 219 64 q 381 99 353 64 q 410 185 410 133 q 373 260 410 238 q 282 296 336 283 q 174 326 228 308 q 83 384 119 344 q 46 504 46 424 q 119 651 46 603 q 299 700 192 700 q 421 686 364 700 q 497 663 478 672 l 478 489 l 421 489 l 401 600 q 365 610 401 600 q 288 621 328 621 q 182 597 211 621 q 153 519 153 572 q 190 451 153 472 q 281 416 226 429 q 390 384 336 403 q 481 324 444 365 q 518 203 518 283 q 441 33 518 79 q 261 -12 364 -12 q 123 8 185 -12 q 42 42 61 28 l 58 211 m 283 -239 q 226 -215 247 -239 q 206 -153 206 -192 q 229 -89 206 -117 q 290 -61 253 -61 q 347 -83 325 -61 q 368 -144 368 -106 q 346 -210 368 -182 q 283 -239 324 -239 z "},"ß":{"ha":839,"x_min":38,"x_max":774,"o":"m 536 -12 q 410 8 464 -12 q 339 42 356 28 l 356 211 l 413 211 l 432 103 q 472 76 446 89 q 542 64 497 64 q 640 99 614 64 q 665 176 665 135 q 633 247 665 228 q 526 288 601 267 q 413 335 469 304 q 357 464 357 365 q 399 590 357 550 q 481 660 442 629 q 539 712 517 686 q 561 781 561 738 q 531 854 561 824 q 419 885 500 885 q 289 844 331 885 q 247 732 247 804 l 247 0 l 38 0 l 38 57 l 133 76 l 133 607 l 49 607 l 49 672 l 132 689 q 216 901 132 828 q 428 974 300 974 q 605 923 533 974 q 676 779 676 872 q 662 703 676 736 q 624 647 647 671 q 523 572 582 604 q 464 478 464 540 q 499 417 464 433 q 583 385 533 400 q 717 324 661 361 q 774 193 774 288 q 701 35 774 83 q 536 -12 628 -12 z "},"ſ":{"ha":417,"x_min":21,"x_max":468,"o":"m 21 0 l 21 57 l 117 76 l 117 607 l 32 607 l 32 672 l 115 689 q 203 892 124 810 q 390 974 282 974 q 468 907 468 974 q 429 840 468 858 q 322 868 349 861 q 275 875 294 875 q 231 863 253 875 l 231 79 l 375 57 l 375 0 l 21 0 z "},"t":{"ha":476,"x_min":18,"x_max":436,"o":"m 126 614 l 18 614 l 18 672 l 126 701 l 160 846 l 240 846 l 240 688 l 436 688 l 436 649 l 417 614 l 240 614 l 240 158 q 258 101 240 114 q 310 89 275 89 q 385 98 350 89 q 421 107 421 107 l 435 63 q 386 28 436 63 q 276 -6 336 -6 q 156 38 186 -6 q 126 149 126 81 l 126 614 z "},"ŧ":{"ha":421,"x_min":14,"x_max":436,"o":"m 14 381 l 14 447 l 410 447 l 410 381 l 14 381 m 126 614 l 18 614 l 18 672 l 126 701 l 160 846 l 240 846 l 240 688 l 436 688 l 436 649 l 417 614 l 240 614 l 240 158 q 258 101 240 114 q 310 89 275 89 q 385 98 350 89 q 421 107 421 107 l 435 63 q 386 28 436 63 q 276 -6 336 -6 q 156 38 186 -6 q 126 149 126 81 l 126 614 z "},"ť":{"ha":428,"x_min":7,"x_max":453,"o":"m 333 753 q 350 819 344 783 q 356 885 356 856 q 346 929 356 910 q 321 967 336 949 q 343 988 328 978 q 383 999 358 999 q 436 976 419 999 q 453 924 453 954 q 434 852 453 892 q 397 783 415 813 q 378 753 378 753 l 333 753 m 115 614 l 7 614 l 7 672 l 115 701 l 149 846 l 229 846 l 229 688 l 425 688 l 425 649 l 406 614 l 229 614 l 229 158 q 247 101 229 114 q 299 89 264 89 q 374 98 339 89 q 410 107 410 107 l 424 63 q 375 28 425 63 q 265 -6 325 -6 q 145 38 175 -6 q 115 149 115 81 l 115 614 z "},"ţ":{"ha":421,"x_min":7,"x_max":425,"o":"m 217 -260 q 161 -253 185 -260 q 114 -237 138 -247 l 136 -186 q 169 -197 151 -192 q 211 -201 188 -201 q 293 -160 293 -201 q 282 -130 293 -136 q 250 -119 271 -124 l 199 -108 l 172 -82 l 207 0 q 134 53 153 14 q 115 149 115 92 l 115 614 l 7 614 l 7 672 l 115 701 l 149 846 l 229 846 l 229 688 l 425 688 l 425 649 l 406 614 l 229 614 l 229 158 q 247 101 229 114 q 299 89 264 89 q 374 98 339 89 q 410 107 410 107 l 424 63 q 375 28 425 63 q 264 -6 325 -6 l 264 -40 l 288 -46 q 358 -72 328 -56 q 388 -133 388 -87 q 333 -233 388 -206 q 217 -260 279 -260 z "},"ț":{"ha":421,"x_min":7,"x_max":425,"o":"m 183 -260 q 201 -204 194 -229 q 207 -150 207 -179 q 197 -104 207 -124 q 171 -71 186 -85 q 203 -47 186 -54 q 233 -40 219 -40 q 285 -64 269 -40 q 300 -112 300 -87 q 282 -192 300 -158 q 245 -242 264 -225 q 226 -260 226 -260 l 183 -260 m 115 614 l 7 614 l 7 672 l 115 701 l 149 846 l 229 846 l 229 688 l 425 688 l 425 649 l 406 614 l 229 614 l 229 158 q 247 101 229 114 q 299 89 264 89 q 374 98 339 89 q 410 107 410 107 l 424 63 q 375 28 425 63 q 265 -6 325 -6 q 145 38 175 -6 q 115 149 115 81 l 115 614 z "},"ṭ":{"ha":476,"x_min":18,"x_max":436,"o":"m 126 614 l 18 614 l 18 672 l 126 701 l 160 846 l 240 846 l 240 688 l 436 688 l 436 649 l 417 614 l 240 614 l 240 158 q 258 101 240 114 q 310 89 275 89 q 385 98 350 89 q 421 107 421 107 l 435 63 q 386 28 436 63 q 276 -6 336 -6 q 156 38 186 -6 q 126 149 126 81 l 126 614 m 260 -239 q 203 -215 224 -239 q 182 -153 182 -192 q 206 -89 182 -117 q 267 -61 229 -61 q 323 -83 301 -61 q 344 -144 344 -106 q 322 -210 344 -182 q 260 -239 300 -239 z "},"u":{"ha":774,"x_min":10,"x_max":739,"o":"m 329 -12 q 125 179 125 -12 l 125 589 l 10 608 l 10 661 l 200 700 l 239 681 l 239 239 q 272 113 239 149 q 390 78 306 78 q 525 117 457 78 l 525 589 l 411 608 l 411 661 l 601 700 l 640 681 l 640 99 l 739 76 l 739 24 l 546 -4 l 525 65 l 524 64 q 439 8 493 29 q 329 -12 385 -12 z "},"ú":{"ha":774,"x_min":10,"x_max":739,"o":"m 289 743 l 250 785 l 401 953 q 431 984 418 972 q 460 996 444 996 q 498 974 478 996 q 531 910 518 953 l 289 743 m 329 -12 q 125 179 125 -12 l 125 589 l 10 608 l 10 661 l 200 700 l 239 681 l 239 239 q 272 113 239 149 q 390 78 306 78 q 525 117 457 78 l 525 589 l 411 608 l 411 661 l 601 700 l 640 681 l 640 99 l 739 76 l 739 24 l 546 -4 l 525 65 l 524 64 q 439 8 493 29 q 329 -12 385 -12 z "},"ŭ":{"ha":774,"x_min":10,"x_max":739,"o":"m 329 -12 q 125 179 125 -12 l 125 589 l 10 608 l 10 661 l 200 700 l 239 681 l 239 239 q 272 113 239 149 q 390 78 306 78 q 525 117 457 78 l 525 589 l 411 608 l 411 661 l 601 700 l 640 681 l 640 99 l 739 76 l 739 24 l 546 -4 l 525 65 l 524 64 q 439 8 493 29 q 329 -12 385 -12 z "},"ǔ":{"ha":774,"x_min":10,"x_max":739,"o":"m 329 -12 q 125 179 125 -12 l 125 589 l 10 608 l 10 661 l 200 700 l 239 681 l 239 239 q 272 113 239 149 q 390 78 306 78 q 525 117 457 78 l 525 589 l 411 608 l 411 661 l 601 700 l 640 681 l 640 99 l 739 76 l 739 24 l 546 -4 l 525 65 l 524 64 q 439 8 493 29 q 329 -12 385 -12 z "},"û":{"ha":774,"x_min":10,"x_max":739,"o":"m 518 749 l 354 865 l 194 750 l 156 794 l 303 942 q 338 970 322 961 q 367 979 354 979 q 391 972 378 979 q 419 950 404 965 l 567 797 l 518 749 m 329 -12 q 125 179 125 -12 l 125 589 l 10 608 l 10 661 l 200 700 l 239 681 l 239 239 q 272 113 239 149 q 390 78 306 78 q 525 117 457 78 l 525 589 l 411 608 l 411 661 l 601 700 l 640 681 l 640 99 l 739 76 l 739 24 l 546 -4 l 525 65 l 524 64 q 439 8 493 29 q 329 -12 385 -12 z "},"ȕ":{"ha":774,"x_min":10,"x_max":739,"o":"m 329 -12 q 125 179 125 -12 l 125 589 l 10 608 l 10 661 l 200 700 l 239 681 l 239 239 q 272 113 239 149 q 390 78 306 78 q 525 117 457 78 l 525 589 l 411 608 l 411 661 l 601 700 l 640 681 l 640 99 l 739 76 l 739 24 l 546 -4 l 525 65 l 524 64 q 439 8 493 29 q 329 -12 385 -12 z "},"ü":{"ha":774,"x_min":10,"x_max":739,"o":"m 221 799 q 169 820 189 799 q 150 876 150 842 q 171 935 150 910 q 226 960 192 960 q 278 940 258 960 q 297 885 297 919 q 277 824 297 850 q 221 799 257 799 m 514 799 q 463 820 482 799 q 443 876 443 842 q 464 935 443 910 q 519 960 485 960 q 571 940 551 960 q 590 885 590 919 q 570 824 590 850 q 514 799 550 799 m 329 -12 q 125 179 125 -12 l 125 589 l 10 608 l 10 661 l 200 700 l 239 681 l 239 239 q 272 113 239 149 q 390 78 306 78 q 525 117 457 78 l 525 589 l 411 608 l 411 661 l 601 700 l 640 681 l 640 99 l 739 76 l 739 24 l 546 -4 l 525 65 l 524 64 q 439 8 493 29 q 329 -12 385 -12 z "},"ǘ":{"ha":774,"x_min":10,"x_max":739,"o":"m 329 -12 q 125 179 125 -12 l 125 589 l 10 608 l 10 661 l 200 700 l 239 681 l 239 239 q 272 113 239 149 q 390 78 306 78 q 525 117 457 78 l 525 589 l 411 608 l 411 661 l 601 700 l 640 681 l 640 99 l 739 76 l 739 24 l 546 -4 l 525 65 l 524 64 q 439 8 493 29 q 329 -12 385 -12 z "},"ǚ":{"ha":774,"x_min":10,"x_max":739,"o":"m 329 -12 q 125 179 125 -12 l 125 589 l 10 608 l 10 661 l 200 700 l 239 681 l 239 239 q 272 113 239 149 q 390 78 306 78 q 525 117 457 78 l 525 589 l 411 608 l 411 661 l 601 700 l 640 681 l 640 99 l 739 76 l 739 24 l 546 -4 l 525 65 l 524 64 q 439 8 493 29 q 329 -12 385 -12 z "},"ǜ":{"ha":774,"x_min":10,"x_max":739,"o":"m 329 -12 q 125 179 125 -12 l 125 589 l 10 608 l 10 661 l 200 700 l 239 681 l 239 239 q 272 113 239 149 q 390 78 306 78 q 525 117 457 78 l 525 589 l 411 608 l 411 661 l 601 700 l 640 681 l 640 99 l 739 76 l 739 24 l 546 -4 l 525 65 l 524 64 q 439 8 493 29 q 329 -12 385 -12 z "},"ǖ":{"ha":774,"x_min":10,"x_max":739,"o":"m 329 -12 q 125 179 125 -12 l 125 589 l 10 608 l 10 661 l 200 700 l 239 681 l 239 239 q 272 113 239 149 q 390 78 306 78 q 525 117 457 78 l 525 589 l 411 608 l 411 661 l 601 700 l 640 681 l 640 99 l 739 76 l 739 24 l 546 -4 l 525 65 l 524 64 q 439 8 493 29 q 329 -12 385 -12 z "},"ụ":{"ha":774,"x_min":10,"x_max":739,"o":"m 329 -12 q 125 179 125 -12 l 125 589 l 10 608 l 10 661 l 200 700 l 239 681 l 239 239 q 272 113 239 149 q 390 78 306 78 q 525 117 457 78 l 525 589 l 411 608 l 411 661 l 601 700 l 640 681 l 640 99 l 739 76 l 739 24 l 546 -4 l 525 65 l 524 64 q 439 8 493 29 q 329 -12 385 -12 m 383 -239 q 326 -215 347 -239 q 306 -153 306 -192 q 329 -89 306 -117 q 390 -61 353 -61 q 447 -83 425 -61 q 468 -144 468 -106 q 446 -210 468 -182 q 383 -239 424 -239 z "},"ù":{"ha":774,"x_min":10,"x_max":739,"o":"m 444 743 l 203 910 q 235 974 215 953 q 274 996 256 996 q 302 984 289 996 q 332 953 315 972 l 483 785 l 444 743 m 329 -12 q 125 179 125 -12 l 125 589 l 10 608 l 10 661 l 200 700 l 239 681 l 239 239 q 272 113 239 149 q 390 78 306 78 q 525 117 457 78 l 525 589 l 411 608 l 411 661 l 601 700 l 640 681 l 640 99 l 739 76 l 739 24 l 546 -4 l 525 65 l 524 64 q 439 8 493 29 q 329 -12 385 -12 z "},"ủ":{"ha":774,"x_min":10,"x_max":739,"o":"m 329 -12 q 125 179 125 -12 l 125 589 l 10 608 l 10 661 l 200 700 l 239 681 l 239 239 q 272 113 239 149 q 390 78 306 78 q 525 117 457 78 l 525 589 l 411 608 l 411 661 l 601 700 l 640 681 l 640 99 l 739 76 l 739 24 l 546 -4 l 525 65 l 524 64 q 439 8 493 29 q 329 -12 385 -12 m 333 744 q 321 789 321 772 q 374 844 321 821 q 411 869 400 858 q 422 894 422 879 q 354 931 422 931 q 267 919 314 931 q 257 943 260 933 q 254 964 254 953 q 268 994 254 983 q 338 1006 282 1006 q 468 976 419 1006 q 517 892 517 947 q 436 803 517 838 q 403 782 408 792 q 399 760 399 772 q 399 757 399 758 q 399 753 399 756 l 333 744 z "},"ư":{"ha":774,"x_min":10,"x_max":819,"o":"m 329 -12 q 125 179 125 -12 l 125 589 l 10 608 l 10 661 l 200 700 l 239 681 l 239 239 q 272 113 239 149 q 390 78 306 78 q 525 117 457 78 l 525 589 l 411 608 l 411 661 l 601 700 l 640 681 l 640 99 l 739 76 l 739 24 l 546 -4 l 525 65 l 524 64 q 439 8 493 29 q 329 -12 385 -12 m 586 440 l 583 482 q 677 558 626 511 q 728 658 728 606 q 699 706 728 685 l 699 726 l 775 781 q 804 753 789 769 q 819 694 819 738 q 770 583 819 650 q 586 440 721 517 z "},"ứ":{"ha":774,"x_min":10,"x_max":819,"o":"m 329 -12 q 125 179 125 -12 l 125 589 l 10 608 l 10 661 l 200 700 l 239 681 l 239 239 q 272 113 239 149 q 390 78 306 78 q 525 117 457 78 l 525 589 l 411 608 l 411 661 l 601 700 l 640 681 l 640 99 l 739 76 l 739 24 l 546 -4 l 525 65 l 524 64 q 439 8 493 29 q 329 -12 385 -12 m 586 440 l 583 482 q 677 558 626 511 q 728 658 728 606 q 699 706 728 685 l 699 726 l 775 781 q 804 753 789 769 q 819 694 819 738 q 770 583 819 650 q 586 440 721 517 z "}}}
